<?xml version="1.0" standalone="no"?> <!DOCTYPE svg PUBLIC "-//W3C//DTD SVG 1.0//EN" "http://www.w3.org/TR/2001/REC-SVG-20010904/DTD/svg10.dtd" > <svg xmlns="http://www.w3.org/2000/svg" width="100%" height="100%">
<defs >
<font id="vistasansot-bolditalic" horiz-adv-x="452" ><font-face
    font-family="Vista Sans OT Bold"
    units-per-em="1000"
    panose-1="2 0 5 3 3 0 0 2 0 4"
    ascent="850"
    descent="-216"
    alphabetic="0" />
<missing-glyph horiz-adv-x="500" />
<glyph unicode=" " glyph-name="space" horiz-adv-x="204" />
<glyph unicode="!" glyph-name="exclam" horiz-adv-x="252" d="M269 674Q228 457 166 205Q118 198 64 196Q91 457 127 674H269ZM168 78Q168 36 143 13T81 -10Q51 -10 33 6T14 52Q14 94 40 117T104 141Q132 141 150 124T168 78Z" />
<glyph unicode="&quot;" glyph-name="quotedbl" horiz-adv-x="420" d="M249 713L177 447Q139 433 86 433L112 713H249ZM432 713L360 447Q322 433 269 433L295 713H432Z" />
<glyph unicode="#" glyph-name="numbersign" horiz-adv-x="500" d="M529 539Q520 484 488 411H411L359 258H443Q431 196 402 132H314L269 0H186L231 132H150L106 0H23L68 132H4Q17 199 47 258H113L165 411H90Q103 478 131 539H209L256 674H339L292 539H373L419
674H502L455 539H529ZM329 411H248L195 258H276L329 411Z" />
<glyph unicode="$" glyph-name="dollar" horiz-adv-x="500" d="M477 610Q468 546 446 488Q378 504 287 504Q248 504 229 494T210 458Q210 439 234 425T293 399T363 371T422 323T447 243Q447 163 393 114T248 59L240 0H119L131 56Q61 63 22 79Q40 159 62 201Q90
190 142 182T232 174Q272 174 292 184T312 222Q312 241 295 254T251 275T194 295T137 323T94 368T76 441Q76 517 128 562T269 616L277 674H398L387 622Q437 619 477 610Z" />
<glyph unicode="%" glyph-name="percent" horiz-adv-x="817" d="M389 544Q389 436 340 370T203 304Q133 304 95 340T57 447Q57 556 109 620T243 684Q313 684 351 649T389 544ZM283 546Q283 603 241 603Q210 603 194 579T168 499Q163 474 163 444Q163 385 206 385Q237
385 252 410T278 491Q283 517 283 546ZM656 671L264 -12Q235 -7 183 15L565 684Q606 684 656 671ZM773 230Q773 122 724 56T587 -10Q517 -10 479 26T441 133Q441 242 493 306T627 370Q697 370 735 335T773 230ZM667 232Q667 289 625 289Q594 289 578 265T552 185Q547
160 547 130Q547 71 590 71Q621 71 636 96T662 177Q667 203 667 232Z" />
<glyph unicode="&amp;" glyph-name="ampersand" horiz-adv-x="637" d="M602 334Q602 270 588 217Q563 192 493 132L569 6Q497 -8 425 -8L387 55Q287 -10 201 -10Q103 -10 54 38T4 173Q4 244 47 297T191 398Q169 450 169 500Q169 592 219 638T354 684Q431 684 476
645T521 542Q521 481 485 437T361 353L436 228Q507 286 600 380Q602 354 602 334ZM332 147L235 306Q181 280 161 254T140 187Q140 151 161 131T223 110Q275 110 332 147ZM408 537Q408 558 394 572T355 586Q325 586 309 569T292 521Q292 485 313 441Q365 462 386
484T408 537Z" />
<glyph unicode="&apos;" glyph-name="quotesingle" horiz-adv-x="237" d="M248 713L176 447Q138 433 85 433L111 713H248Z" />
<glyph unicode="(" glyph-name="parenleft" horiz-adv-x="305" d="M364 717Q275 600 222 429T168 97Q168 -61 206 -164Q158 -175 89 -175Q30 -48 30 116Q30 461 245 734Q303 734 364 717Z" />
<glyph unicode=")" glyph-name="parenright" horiz-adv-x="305" d="M273 443Q273 98 58 -175Q0 -175 -61 -158Q28 -41 81 130T135 462Q135 620 97 723Q145 734 214 734Q273 607 273 443Z" />
<glyph unicode="*" glyph-name="asterisk" horiz-adv-x="458" d="M467 482L325 461L401 354Q357 317 289 285L246 410L164 292Q116 318 66 363L179 461L57 486Q77 549 110 608L224 546V675Q287 684 354 684L312 545L440 603Q460 545 467 482Z" />
<glyph unicode="+" glyph-name="plus" horiz-adv-x="492" d="M460 321L443 225H286L254 45H157L189 225H31L48 321H206L238 500H335L303 321H460Z" />
<glyph unicode="," glyph-name="comma" horiz-adv-x="250" d="M177 113Q177 98 171 59Q150 -56 17 -173L-99 -140Q-23 -64 6 -21T46 78L52 113H177Z" />
<glyph unicode="-" glyph-name="hyphen" horiz-adv-x="250" d="M219 239H29L48 350H238L219 239Z" />
<glyph unicode="." glyph-name="period" horiz-adv-x="250" d="M178 78Q178 36 153 13T91 -10Q61 -10 43 6T24 52Q24 94 50 117T114 141Q142 141 160 124T178 78Z" />
<glyph unicode="/" glyph-name="slash" horiz-adv-x="390" d="M461 671L19 -114Q-51 -100 -82 -86L351 684Q413 684 461 671Z" />
<glyph unicode="0" glyph-name="zero" horiz-adv-x="500" d="M473 353Q473 309 466 263Q425 -10 209 -10Q126 -10 78 39T30 193Q30 230 38 283Q61 426 128 490T294 555Q473 555 473 353ZM337 358Q337 435 277 435Q233 435 212 397T176 273Q166 215 166 185Q166
109 226 109Q270 109 291 147T328 273Q337 322 337 358Z" />
<glyph unicode="1" glyph-name="one" horiz-adv-x="500" d="M448 130Q436 57 415 0H20L43 130H204L254 414L110 397Q107 420 107 441Q107 480 115 512L282 545H406L333 130H448Z" />
<glyph unicode="2" glyph-name="two" horiz-adv-x="500" d="M438 475T438 400T393 262T244 130H413Q400 58 382 0H13L26 111Q185 213 237 263T290 364Q290 426 208 426Q151 426 107 404Q103 446 103 469Q103 495 107 531Q172 555 247 555Q334 555 386 515Z" />
<glyph unicode="3" glyph-name="three" horiz-adv-x="500" d="M445 397Q445 332 410 290T313 232L312 225Q410 191 410 87Q410 31 386 -13T321 -84T233 -125T136 -139Q41 -139 -18 -111Q-3 -32 21 21Q77 -9 154 -9Q204 -9 233 15T263 87Q263 156 175 156H87L110
285H187Q245 285 271 304T298 364Q298 425 212 425Q155 425 98 407Q97 418 97 441Q97 496 105 538Q168 555 255 555Q338 555 391 516T445 397Z" />
<glyph unicode="4" glyph-name="four" horiz-adv-x="500" d="M454 150Q443 86 422 26H374L347 -129H213L241 26H8L30 151Q152 371 294 555Q372 549 416 532L161 143H268L293 285H418L395 150H454Z" />
<glyph unicode="5" glyph-name="five" horiz-adv-x="500" d="M499 545Q489 492 466 415H257L224 287Q310 286 371 242T432 104Q432 -7 361 -73T164 -139Q82 -139 18 -114Q32 -47 60 18Q110 -8 185 -8Q231 -8 260 16T290 88Q290 127 267 145T190 163Q123 163 69
157Q110 362 168 545H499Z" />
<glyph unicode="6" glyph-name="six" horiz-adv-x="500" d="M478 668Q478 644 471 604T454 543Q406 555 348 555T255 521T199 392H206Q250 437 313 437Q377 437 417 395T457 272Q457 144 395 67T225 -10Q39 -10 39 203Q39 246 47 308Q75 511 153 597T355 684Q424
684 478 668ZM324 255Q324 328 251 328Q206 328 186 287T166 187Q166 107 231 107Q278 107 301 146T324 255Z" />
<glyph unicode="7" glyph-name="seven" horiz-adv-x="500" d="M487 545L465 422Q294 124 104 -137Q25 -131 -30 -115L316 415H72Q72 478 85 545H487Z" />
<glyph unicode="8" glyph-name="eight" horiz-adv-x="500" d="M500 535Q500 473 468 427T375 357Q458 299 458 204Q458 102 395 46T220 -10Q127 -10 75 34T23 160Q23 227 55 272T159 349Q91 402 91 481Q91 579 152 631T318 684Q403 684 451 645T500 535ZM365 512Q365
539 347 555T298 571Q224 571 224 482Q224 420 282 398Q321 414 343 444T365 512ZM320 208Q320 240 301 265T249 301Q159 268 159 177Q159 146 178 126T231 105Q275 105 297 133T320 208Z" />
<glyph unicode="9" glyph-name="nine" horiz-adv-x="500" d="M463 342Q463 299 455 237Q427 34 349 -52T147 -139Q78 -139 24 -123Q24 -99 31 -59T48 2Q96 -10 154 -10T247 24T303 153H296Q252 108 189 108Q125 108 85 150T45 273Q45 401 107 478T277 555Q463
555 463 342ZM336 358Q336 438 271 438Q224 438 201 399T178 290Q178 217 251 217Q296 217 316 258T336 358Z" />
<glyph unicode=":" glyph-name="colon" horiz-adv-x="250" d="M184 78Q184 36 159 13T97 -10Q67 -10 49 6T30 52Q30 94 56 117T120 141Q148 141 166 124T184 78ZM244 425Q244 383 219 360T157 337Q127 337 109 353T90 399Q90 441 116 464T180 488Q208 488 226
471T244 425Z" />
<glyph unicode=";" glyph-name="semicolon" horiz-adv-x="250" d="M249 425Q249 383 224 360T162 337Q132 337 114 353T95 399Q95 441 121 464T185 488Q213 488 231 471T249 425ZM189 113Q189 98 183 59Q162 -56 29 -173L-87 -140Q-11 -64 18 -21T58 78L64 113H189Z" />
<glyph unicode="&lt;" glyph-name="less" horiz-adv-x="434" d="M416 488L177 276L340 56V45H214L46 280L291 500H416V488Z" />
<glyph unicode="=" glyph-name="equal" horiz-adv-x="493" d="M443 317H66L82 411H459L443 317ZM409 128H32L49 222H426L409 128Z" />
<glyph unicode="&gt;" glyph-name="greater" horiz-adv-x="434" d="M387 265L142 45H17V57L256 269L93 489V500H219L387 265Z" />
<glyph unicode="?" glyph-name="question" horiz-adv-x="404" d="M411 519Q411 438 360 383T200 291L184 205Q132 196 65 192Q65 293 78 362Q274 401 274 496Q274 532 252 546T184 560Q151 560 95 553Q86 591 86 630Q86 656 90 675Q140 684 217 684Q306 684 358
642T411 519ZM184 78Q184 36 159 13T97 -10Q67 -10 49 6T30 52Q30 94 56 117T120 141Q148 141 166 124T184 78Z" />
<glyph unicode="@" glyph-name="at" horiz-adv-x="834" d="M800 388Q800 261 739 177T583 93Q492 93 466 141H463Q433 114 407 103T344 92Q288 92 257 120T225 205Q225 226 228 242Q239 298 285 321T412 348L483 351L494 414Q466 428 419 428Q359 428 319 414Q317
434 317 448Q317 483 323 517Q374 529 433 529Q549 529 616 480L571 224Q570 219 570 211Q570 177 610 177T680 240T711 392Q711 490 641 546T459 602Q304 602 225 504T145 234Q145 132 199 74T366 15Q455 15 510 36Q515 6 515 -25Q515 -38 513 -52Q452 -70 356
-70Q208 -70 130 13T51 236Q51 449 169 566T478 684Q621 684 710 602T800 388ZM470 273L399 270Q349 267 343 236Q341 224 341 215Q341 179 385 179Q421 179 457 204L470 273Z" />
<glyph unicode="A" glyph-name="A" horiz-adv-x="596" d="M540 7Q481 -5 397 -5L380 161H189L113 -5Q30 -5 -25 7Q90 268 294 674H458Q510 319 540 7ZM368 284L350 466Q349 476 349 486Q349 501 351 523H341Q337 485 327 466L244 284H368Z" />
<glyph unicode="B" glyph-name="B" horiz-adv-x="596" d="M562 521Q562 461 528 415T438 356V346Q533 317 533 214Q533 156 510 112T447 42T359 4T255 -9Q158 -9 37 5L154 667Q257 681 367 681Q459 681 510 642T562 521ZM416 501Q416 568 344 568Q319 568 280
565L250 395H326Q365 395 390 424T416 501ZM380 214Q380 288 305 288H231L200 109Q240 106 276 106Q326 106 353 134T380 214Z" />
<glyph unicode="C" glyph-name="C" horiz-adv-x="579" d="M593 652Q582 607 550 520Q485 554 397 554Q272 554 231 406Q209 328 209 255Q209 184 240 153T335 121Q424 121 493 154Q502 92 502 16Q424 -10 320 -10Q53 -10 53 247Q53 349 88 454Q125 564 208 624T415
684Q464 684 515 675T593 652Z" />
<glyph unicode="D" glyph-name="D" horiz-adv-x="675" d="M642 405Q642 220 540 106T271 -9Q125 -9 38 5L154 667Q256 681 384 681Q501 681 571 613T642 405ZM485 412Q485 484 451 517T357 550Q314 550 281 547L207 125Q236 122 293 122Q386 122 435 201T485 412Z" />
<glyph unicode="E" glyph-name="E" horiz-adv-x="537" d="M550 674Q537 605 517 544H281L257 408H429L406 280H234L208 130H471Q462 79 437 0H37L156 674H550Z" />
<glyph unicode="F" glyph-name="F" horiz-adv-x="513" d="M551 674Q539 607 518 544H281L254 387H451L428 258H231L185 0H37L156 674H551Z" />
<glyph unicode="G" glyph-name="G" horiz-adv-x="633" d="M613 651Q599 580 572 518Q505 554 408 554Q332 554 286 511T217 345Q209 297 209 255Q209 120 336 120Q365 120 392 125L411 240H327Q326 253 326 264Q326 324 339 367H579L518 21Q440 -10 323 -10Q53
-10 53 252Q53 306 63 360Q120 684 421 684Q532 684 613 651Z" />
<glyph unicode="H" glyph-name="H" horiz-adv-x="695" d="M680 674L561 0H413L463 282H235L185 0H37L156 674H304L258 415H486L532 674H680Z" />
<glyph unicode="I" glyph-name="I" horiz-adv-x="319" d="M304 674L185 0H37L156 674H304Z" />
<glyph unicode="J" glyph-name="J" horiz-adv-x="330" d="M315 674L213 97Q190 -31 133 -97T-49 -163Q-56 -126 -56 -91Q-56 -62 -51 -29Q6 -29 28 -8T61 71L167 674H315Z" />
<glyph unicode="K" glyph-name="K" horiz-adv-x="634" d="M678 667L412 398Q486 248 571 7Q500 -7 421 -7L306 290L220 203L184 0H37L156 674H303L254 399H261L517 680Q616 680 678 667Z" />
<glyph unicode="L" glyph-name="L" horiz-adv-x="489" d="M450 132Q442 88 417 0H37L156 674H304L208 132H450Z" />
<glyph unicode="M" glyph-name="M" horiz-adv-x="862" d="M813 674Q791 319 755 0H613L657 387Q659 411 669 467H659Q644 408 635 387L454 0H314L261 387Q259 401 259 467H249Q242 397 240 387L138 -6Q65 -6 12 6Q85 309 190 674H357L416 255Q418 240 418 170H428Q440
231 451 256L643 674H813Z" />
<glyph unicode="N" glyph-name="N" horiz-adv-x="697" d="M682 674L564 5Q499 -7 422 -7L274 394Q263 425 254 466L244 465Q244 404 240 382L172 0H37L155 667Q232 677 308 677L450 303Q462 274 468 231L478 232Q478 278 485 318L547 674H682Z" />
<glyph unicode="O" glyph-name="O" horiz-adv-x="680" d="M647 412Q647 376 641 328Q618 158 526 74T300 -10Q185 -10 119 57T53 255Q53 304 61 358Q88 525 177 604T401 684Q518 684 582 616T647 412ZM491 431Q491 499 464 528T385 558Q316 558 279 514T219 345Q209
286 209 240Q209 116 315 116Q386 116 422 161T481 330Q491 386 491 431Z" />
<glyph unicode="P" glyph-name="P" horiz-adv-x="586" d="M569 495Q569 359 489 285T290 211H222L184 0H37L155 667Q276 681 369 681Q465 681 517 635T569 495ZM422 479Q422 564 346 564Q322 564 284 561L243 332H298Q356 332 389 372T422 479Z" />
<glyph unicode="Q" glyph-name="Q" horiz-adv-x="680" d="M647 412Q647 376 641 328Q620 178 545 96T358 -3Q355 -18 355 -30Q355 -61 372 -71T423 -82Q479 -82 522 -65Q524 -89 524 -106Q524 -147 517 -193Q463 -210 401 -210Q316 -210 269 -168T221 -38Q221
-18 223 1Q53 43 53 255Q53 304 61 358Q88 525 177 604T401 684Q518 684 582 616T647 412ZM491 431Q491 499 464 528T385 558Q316 558 279 514T219 345Q209 286 209 240Q209 116 315 116Q386 116 422 161T481 330Q491 386 491 431Z" />
<glyph unicode="R" glyph-name="R" horiz-adv-x="602" d="M570 505Q570 424 527 371T415 302Q465 246 492 159L537 8Q462 -7 386 -7L358 95Q326 207 292 256H227L181 0H37L155 667Q259 681 371 681Q463 681 516 638T570 505ZM422 486Q422 562 344 562Q312 562
281 559L247 367H303Q355 367 388 398T422 486Z" />
<glyph unicode="S" glyph-name="S" horiz-adv-x="531" d="M521 664Q514 600 488 538Q400 560 333 560Q246 560 246 484Q246 461 263 442T305 410T359 379T414 341T456 288T473 211Q473 103 396 47T203 -10Q89 -10 17 24Q33 94 60 151Q139 114 231 114Q319 114
319 189Q319 217 296 239T239 278T173 317T116 376T92 465Q92 574 168 629T368 684Q441 684 521 664Z" />
<glyph unicode="T" glyph-name="T" horiz-adv-x="493" d="M551 674Q542 618 517 544H373L277 0H129L225 544H75L98 674H551Z" />
<glyph unicode="U" glyph-name="U" horiz-adv-x="677" d="M666 674L596 279Q571 133 505 62T308 -10Q68 -10 68 199Q68 238 75 279L145 674H293L221 268Q216 241 216 214Q216 169 239 148T316 126Q379 126 409 154T452 258L526 674H666Z" />
<glyph unicode="V" glyph-name="V" horiz-adv-x="592" d="M644 667Q500 332 331 0H163Q115 308 90 667Q168 680 236 680L275 227Q276 215 276 170H286Q292 205 302 227L499 680Q589 680 644 667Z" />
<glyph unicode="W" glyph-name="W" horiz-adv-x="933" d="M945 667Q854 387 700 0H541L494 400Q493 408 493 472H483Q474 421 464 399L290 0H131Q117 243 117 418Q117 529 122 667Q194 680 262 680V281Q262 241 260 201H270Q280 254 291 279L467 674H603L643 278Q646
248 646 201H656Q660 246 671 278L812 680Q886 680 945 667Z" />
<glyph unicode="X" glyph-name="X" horiz-adv-x="649" d="M681 667L449 350L575 7Q491 -7 411 -7L341 203Q333 224 327 255H318Q305 225 291 204L149 -7Q54 -7 -13 7L233 347L115 667Q201 680 279 680L344 485Q352 458 355 439H364Q379 470 391 488L518 680Q614
680 681 667Z" />
<glyph unicode="Y" glyph-name="Y" horiz-adv-x="573" d="M620 667Q511 469 354 240L312 0H164L206 240Q148 404 88 667Q163 680 237 680L294 443Q300 416 303 386H313Q328 421 341 445L475 680Q552 680 620 667Z" />
<glyph unicode="Z" glyph-name="Z" horiz-adv-x="574" d="M577 674L566 564L212 130H494Q484 67 461 0H10L19 107L375 544H121Q124 617 136 674H577Z" />
<glyph unicode="[" glyph-name="bracketleft" horiz-adv-x="338" d="M388 735Q378 682 359 621H270L149 -61H237Q239 -85 239 -97Q239 -141 228 -175H0L160 735H388Z" />
<glyph unicode="\" glyph-name="backslash" horiz-adv-x="390" d="M356 -86Q314 -103 253 -114L79 671Q133 684 186 684L356 -86Z" />
<glyph unicode="]" glyph-name="bracketright" horiz-adv-x="338" d="M337 735L177 -175H-51Q-41 -122 -22 -61H67L188 621H100Q98 645 98 657Q98 701 109 735H337Z" />
<glyph unicode="^" glyph-name="asciicircum" horiz-adv-x="492" d="M467 365Q405 357 347 357L308 597L186 357Q133 357 63 364Q142 534 230 674H406Q442 544 467 365Z" />
<glyph unicode="_" glyph-name="underscore" horiz-adv-x="500" d="M439 -139H-65L-48 -42H468Q459 -93 439 -139Z" />
<glyph unicode="`" glyph-name="grave" horiz-adv-x="500" d="M324 580Q271 572 217 572Q168 642 155 731H298L324 580Z" />
<glyph unicode="a" glyph-name="a" horiz-adv-x="541" d="M508 125L500 80Q491 31 466 11T400 -10Q361 -10 338 3T302 49H298Q238 -10 155 -10Q82 -10 47 25T11 123Q11 140 14 160Q28 237 81 266T237 300L320 303L336 392Q294 412 236 412Q176 412 120 390Q117
412 117 442Q117 480 123 515Q186 532 261 532Q322 532 382 516T479 471L424 160Q423 155 423 148Q423 125 452 125H508ZM304 214L222 211Q188 209 172 198T150 157Q148 147 148 139Q148 94 199 94Q252 94 287 118L304 214Z" />
<glyph unicode="b" glyph-name="b" horiz-adv-x="575" d="M537 332Q537 306 531 259Q513 130 442 60T256 -10Q111 -10 41 54L161 735Q233 744 298 744L251 478H258Q316 532 378 532Q452 532 494 481T537 332ZM393 328Q393 415 317 415Q271 415 236 395L189 125Q215
107 261 107Q308 107 339 140T385 257Q393 301 393 328Z" />
<glyph unicode="c" glyph-name="c" horiz-adv-x="467" d="M464 513Q446 441 418 384Q376 403 319 403Q267 403 238 373T196 266Q190 230 190 205Q190 157 212 138T285 119Q339 119 385 143Q392 96 392 15Q342 -10 257 -10Q154 -10 98 43T42 196Q42 228 48 266Q73
405 148 468T325 532Q413 532 464 513Z" />
<glyph unicode="d" glyph-name="d" horiz-adv-x="585" d="M587 744L456 0H321L328 44H321Q267 -10 201 -10Q124 -10 83 43T42 190Q42 221 48 263Q69 403 143 467T318 532Q369 532 412 519L450 735Q522 744 587 744ZM343 127L391 400Q364 415 318 415Q270 415 240
382T194 265Q186 222 186 192Q186 107 260 107Q305 107 343 127Z" />
<glyph unicode="e" glyph-name="e" horiz-adv-x="531" d="M493 353Q493 295 472 222H186Q181 204 181 189Q181 150 203 134T280 117Q359 117 423 150Q433 88 433 21Q361 -10 256 -10Q150 -10 96 42T42 195Q42 228 48 266Q93 532 307 532Q400 532 446 485T493 353ZM354
310Q363 341 363 364Q363 396 346 413T297 431Q259 431 236 402T202 310H354Z" />
<glyph unicode="f" glyph-name="f" horiz-adv-x="361" d="M413 739Q408 678 391 620Q359 624 337 624Q286 624 277 568L269 522H380Q370 465 351 404H248L177 0H42L113 404H54L75 522H134L141 559Q176 744 346 744Q388 744 413 739Z" />
<glyph unicode="g" glyph-name="g" horiz-adv-x="529" d="M546 522Q535 464 521 425L468 416L466 411Q472 389 472 375Q472 281 414 236T266 190Q224 190 190 198Q162 162 162 143Q162 118 189 118H308Q380 118 416 89T452 -13Q452 -108 383 -162T185 -216Q85
-216 36 -178T-13 -81Q-13 -5 54 35Q42 62 34 112Q58 179 110 234Q72 272 72 332Q72 426 130 479T287 532Q355 532 388 522H546ZM325 -40Q325 -3 291 -3H127Q112 -23 112 -49Q112 -78 133 -91T209 -105Q268 -105 296 -92T325 -40ZM351 382Q351 439 288 439Q202
439 202 343Q202 285 265 285Q351 285 351 382Z" />
<glyph unicode="h" glyph-name="h" horiz-adv-x="587" d="M533 410Q533 392 529 370L464 0H329L391 354Q392 360 392 369Q392 415 327 415Q286 415 235 387L167 0H32L162 735Q232 744 298 744L250 473H257Q290 506 321 519T399 532Q461 532 497 501T533 410Z" />
<glyph unicode="i" glyph-name="i" horiz-adv-x="297" d="M294 672Q294 630 270 605T203 580Q172 580 156 598T139 644Q139 683 164 709T231 736Q262 736 278 718T294 672ZM261 522L169 0H34L126 522H261Z" />
<glyph unicode="j" glyph-name="j" horiz-adv-x="301" d="M264 522L172 3Q153 -104 94 -160T-60 -216Q-69 -175 -69 -95Q-19 -95 4 -73T36 -4L129 522H264ZM297 672Q297 630 273 605T206 580Q175 580 159 598T142 644Q142 683 167 709T234 736Q265 736 281 718T297 672Z" />
<glyph unicode="k" glyph-name="k" horiz-adv-x="536" d="M568 507L368 311Q424 186 484 5Q427 -5 346 -5L267 213L191 137L167 0H32L162 735Q234 744 298 744L223 318H230L436 535Q508 526 568 507Z" />
<glyph unicode="l" glyph-name="l" horiz-adv-x="296" d="M298 744L167 0H32L162 735Q232 744 298 744Z" />
<glyph unicode="m" glyph-name="m" horiz-adv-x="844" d="M790 410Q790 392 786 370L721 0H586L648 354Q649 360 649 369Q649 415 592 415Q550 415 512 387L444 0H309L371 354Q373 366 373 372Q373 415 319 415Q281 415 235 387L167 0H32L123 517Q187 525 259
525L250 473H257Q292 508 323 520T397 532Q486 532 501 462Q574 532 657 532Q718 532 754 502T790 410Z" />
<glyph unicode="n" glyph-name="n" horiz-adv-x="587" d="M533 410Q533 394 529 370L464 0H329L391 354Q392 361 392 370Q392 415 327 415Q283 415 235 387L167 0H32L123 517Q187 525 259 525L250 473H257Q291 509 324 520T399 532Q458 532 495 503T533 410Z" />
<glyph unicode="o" glyph-name="o" horiz-adv-x="572" d="M534 329Q534 291 527 253Q504 125 430 58T250 -10Q151 -10 97 41T42 192Q42 230 49 269Q70 394 144 463T324 532Q422 532 478 482T534 329ZM389 324Q389 418 313 418Q266 418 238 381T195 261Q188 222
188 190Q188 145 205 125T260 104Q309 104 338 140T383 261Q389 297 389 324Z" />
<glyph unicode="p" glyph-name="p" horiz-adv-x="575" d="M393 328Q393 415 317 415Q271 415 236 395L188 122Q215 107 261 107Q309 107 340 141T385 257Q393 303 393 328ZM537 332Q537 296 531 259Q511 125 440 58T259 -10Q212 -10 167 3L130 -206H-5L123 517Q187
525 259 525L251 478H258Q316 532 378 532Q453 532 495 481T537 332Z" />
<glyph unicode="q" glyph-name="q" horiz-adv-x="584" d="M543 494L419 -206H284L328 44H321Q268 -10 201 -10Q125 -10 84 42T42 190Q42 244 56 305Q81 415 150 473T325 532Q374 532 437 521T543 494ZM391 402Q356 415 318 415Q274 415 246 388T201 298Q186 240
186 192Q186 107 260 107Q309 107 343 127L391 402Z" />
<glyph unicode="r" glyph-name="r" horiz-adv-x="394" d="M417 527Q406 454 380 386Q358 392 330 392Q276 392 231 367L167 0H32L123 517Q187 525 259 525L247 458H254Q313 532 379 532Q400 532 417 527Z" />
<glyph unicode="s" glyph-name="s" horiz-adv-x="449" d="M423 516Q413 450 396 396Q332 416 258 416Q199 416 199 370Q199 352 219 340T267 317T324 293T372 248T392 173Q392 89 332 40T166 -10Q69 -10 5 28Q19 100 46 149Q108 112 195 112Q251 112 251 158Q251
175 231 187T183 209T126 233T77 277T57 350Q57 429 117 480T290 532Q366 532 423 516Z" />
<glyph unicode="t" glyph-name="t" horiz-adv-x="411" d="M411 522Q402 453 383 404H255L214 169Q213 163 213 153Q213 131 226 123T270 114Q312 114 348 130Q350 102 350 83Q350 53 346 11Q300 -10 227 -10Q75 -10 75 127Q75 147 80 177L120 404H61L82 522H141L160
630Q228 649 299 652L276 522H411Z" />
<glyph unicode="u" glyph-name="u" horiz-adv-x="588" d="M553 526L460 0H325L332 45H325Q291 11 260 1T187 -10Q129 -10 91 23T52 117Q52 134 55 154L119 518Q185 526 256 526L193 172Q192 165 192 156Q192 108 263 108Q312 108 347 127L416 518Q482 526 553 526Z" />
<glyph unicode="v" glyph-name="v" horiz-adv-x="510" d="M541 517Q446 292 281 0H135Q78 261 61 517Q123 525 194 525L230 211Q233 175 233 147H240Q248 180 263 213L410 525Q493 525 541 517Z" />
<glyph unicode="w" glyph-name="w" horiz-adv-x="803" d="M802 516Q717 255 598 0H462L423 288Q420 306 420 337V369H413Q401 317 389 293L246 0H110Q90 167 90 357Q90 436 93 517Q159 525 221 525L216 225Q216 196 214 158H221Q232 200 244 226L383 522H514L545
228Q547 208 550 159H557Q567 204 574 228L678 525Q748 525 802 516Z" />
<glyph unicode="x" glyph-name="x" horiz-adv-x="540" d="M562 517L361 262L478 5Q403 -4 325 -4L269 139Q261 159 261 195H254Q243 162 227 139L129 -4Q50 -4 -24 5L187 288L70 517Q142 525 223 525L278 400Q289 376 289 335H296Q307 380 322 402L408 525Q502
525 562 517Z" />
<glyph unicode="y" glyph-name="y" horiz-adv-x="525" d="M556 517L300 10Q233 -123 173 -169T34 -216Q-31 -216 -65 -197Q-49 -124 -26 -74Q1 -86 57 -86Q83 -86 98 -76T132 -37L156 3Q85 255 76 517Q140 525 205 525L238 212Q242 180 242 151H249Q258 179 274
212L422 525Q504 525 556 517Z" />
<glyph unicode="z" glyph-name="z" horiz-adv-x="497" d="M478 522L473 410L179 118H411Q411 61 400 0H6L11 113L304 404H93Q93 470 106 522H478Z" />
<glyph unicode="{" glyph-name="braceleft" horiz-adv-x="346" d="M368 625Q289 625 266 619T243 589Q243 574 273 504T303 399Q303 305 161 285L160 277Q219 264 243 242T267 180Q267 148 235 105T170 23T137 -33Q137 -56 153 -60T244 -65Q232 -133 214 -180Q92
-176 44 -146T-4 -52Q-4 -21 17 14T63 76T109 129T130 173Q130 200 111 209T29 219L50 343Q120 343 147 354T174 395Q174 419 143 487T111 599Q111 672 168 703T359 740Q368 698 368 625Z" />
<glyph unicode="|" glyph-name="bar" horiz-adv-x="260" d="M97 -206H-2L162 732H262L97 -206Z" />
<glyph unicode="}" glyph-name="braceright" horiz-adv-x="346" d="M-21 -65Q58 -65 81 -59T104 -29Q104 -14 74 56T44 161Q44 255 186 275L187 283Q128 296 104 318T80 380Q80 412 112 455T177 537T210 593Q210 616 194 620T103 625Q115 693 133 740Q255 736
303 706T351 612Q351 581 330 546T284 484T238 431T217 387Q217 360 236 351T318 341L297 217Q227 217 200 206T173 165Q173 141 204 73T236 -39Q236 -112 179 -143T-12 -180Q-21 -138 -21 -65Z" />
<glyph unicode="~" glyph-name="asciitilde" horiz-adv-x="492" d="M486 374Q452 267 418 229T331 190Q296 190 237 229T165 269Q149 269 140 255T117 189Q58 189 10 209Q43 315 77 354T164 393Q198 393 256 354T330 314Q347 314 355 327T378 394Q399 394 434
388T486 374Z" />
</font>
</defs>
</svg>
