<?xml version="1.0" standalone="no"?>
<!DOCTYPE svg PUBLIC "-//W3C//DTD SVG 1.1//EN" "http://www.w3.org/Graphics/SVG/1.1/DTD/svg11.dtd" >
<svg>
<metadata>
Created by FontForge 20110222 at Thu May 16 08:36:49 2013
 By Orthosie Webhosting
Copyright (C) 2005 Emigre Inc.; Designed by Xavier Dupre. All rights reserved.
</metadata>
<defs>
<font id="VistaSansOTReg" horiz-adv-x="500" >
  <font-face 
    font-family="VistaSansOTReg"
    font-weight="400"
    font-stretch="normal"
    units-per-em="1000"
    panose-1="2 0 5 3 3 0 0 2 0 4"
    ascent="800"
    descent="-200"
    x-height="522"
    cap-height="674"
    bbox="-86 -217 1128 846"
    underline-thickness="20"
    underline-position="-113"
    unicode-range="U+0020-FB02"
  />
<missing-glyph 
 />
    <glyph glyph-name="fi" unicode="fi" horiz-adv-x="611" 
d="M514 0h-89v444h-217v-444h-89v444h-62v78h62v59q0 75 46 119t110 44q25 0 51 -4q0 -45 -6 -81q-16 3 -48 3q-34 0 -49 -18t-15 -56v-66h306v-522zM522 666q0 -24 -13.5 -39.5t-39.5 -15.5q-25 0 -39 16t-14 39q0 24 14 40.5t40 16.5q25 0 38.5 -16.5t13.5 -40.5z" />
    <glyph glyph-name="fl" unicode="fl" horiz-adv-x="620" 
d="M523 0h-89v657q-63 9 -125 9q-58 0 -79.5 -17t-21.5 -57v-70h113q0 -40 -6 -78h-107v-444h-88v444h-63v78h63v63q0 78 51 118.5t143 40.5q108 0 209 -18v-726z" />
    <glyph glyph-name=".notdef" 
 />
    <glyph glyph-name=".null" horiz-adv-x="0" 
 />
    <glyph glyph-name="nonmarkingreturn" horiz-adv-x="333" 
 />
    <glyph glyph-name="space" unicode=" " horiz-adv-x="204" 
 />
    <glyph glyph-name="exclam" unicode="!" horiz-adv-x="245" 
d="M169 674q0 -220 -12 -482q-37 -7 -68 -7q-14 273 -14 489h94zM175 42q0 -25 -14.5 -39t-37.5 -14q-24 0 -38.5 14t-14.5 39q0 26 15 41t38 15t37.5 -15t14.5 -41z" />
    <glyph glyph-name="quotedbl" unicode="&#x22;" horiz-adv-x="350" 
d="M146 713l-19 -262q-25 -9 -60 -9l-17 271h96zM300 713l-19 -262q-27 -9 -59 -9l-18 271h96z" />
    <glyph glyph-name="numbersign" unicode="#" horiz-adv-x="501" 
d="M476 514q0 -32 -11 -82h-92l-31 -186h94q0 -39 -11 -80h-97l-28 -166h-61l27 166h-94l-27 -166h-62l28 166h-86q0 41 13 80h87l31 186h-91q0 44 12 82h93l27 160h62l-27 -160h94l27 160h61l-27 -160h89zM281 246l31 186h-95l-31 -186h95z" />
    <glyph glyph-name="dollar" unicode="$" 
d="M447 220q0 -64 -46.5 -108.5t-128.5 -53.5l3 -58h-84l4 57q-85 4 -139 24q7 58 18 81q68 -27 171 -27q114 0 114 76q0 35 -31.5 57t-76.5 34.5t-90.5 27.5t-77 48t-31.5 84q0 63 47 105t126 52l-2 55h84l-3 -51q63 -4 110 -12q0 -46 -11 -82q-63 15 -147 15
q-64 0 -90 -19t-26 -56q0 -22 17 -37.5t44 -25t60 -18t65.5 -21t59.5 -29.5t44 -47t17 -71z" />
    <glyph glyph-name="percent" unicode="%" horiz-adv-x="807" 
d="M346 494q0 -90 -40.5 -140t-113.5 -50t-115 47t-42 143q0 92 43 141t114 49q74 0 114 -47.5t40 -142.5zM271 494q0 65 -17.5 97.5t-61.5 32.5q-81 0 -81 -130q0 -67 19 -98.5t62 -31.5t61 32t18 98zM573 671l-270 -681q-33 6 -63 21l264 670q29 0 69 -10zM772 180
q0 -90 -40.5 -140t-113.5 -50t-115 47t-42 143q0 92 43 141t114 49q74 0 114 -47.5t40 -142.5zM697 180q0 65 -17.5 97.5t-61.5 32.5q-81 0 -81 -130q0 -67 19 -98.5t62 -31.5t61 32t18 98z" />
    <glyph glyph-name="ampersand" unicode="&#x26;" horiz-adv-x="637" 
d="M508 132l105 -129q-49 -11 -95 -11l-71 85q-101 -87 -200 -87q-98 0 -149.5 52t-51.5 139q0 71 33.5 115.5t121.5 91.5q-49 75 -49 133q0 76 46 119.5t120 43.5q71 0 110.5 -36.5t39.5 -101.5q0 -101 -151 -178q66 -88 144 -176q62 65 125 144q10 -62 10 -105
q-51 -61 -88 -99zM242 329q-67 -37 -87.5 -65.5t-20.5 -75.5q0 -118 119 -118q71 0 147 67q-28 32 -89 106.5t-69 85.5zM390 550q0 69 -75 69q-37 0 -58.5 -21t-21.5 -63q0 -50 40 -110q69 35 92 62t23 63z" />
    <glyph glyph-name="quotesingle" unicode="'" horiz-adv-x="196" 
d="M146 713l-19 -262q-25 -9 -60 -9l-17 271h96z" />
    <glyph glyph-name="parenleft" unicode="(" horiz-adv-x="273" 
d="M246 -164q-31 -11 -71 -11q-122 199 -122 459q0 253 122 456q33 0 71 -11q-49 -89 -77 -206t-28 -234q0 -118 28 -240.5t77 -212.5z" />
    <glyph glyph-name="parenright" unicode=")" horiz-adv-x="273" 
d="M220 281q0 -255 -122 -456q-32 0 -71 11q49 89 77 206t28 234q0 118 -28 240.5t-77 212.5q37 11 71 11q122 -199 122 -459z" />
    <glyph glyph-name="asterisk" unicode="*" horiz-adv-x="433" 
d="M415 502l-156 -32l99 -111q-29 -33 -68 -61l-79 139l-76 -130q-46 23 -78 47l108 117l-147 33q7 48 21 89l145 -67l-15 150q45 8 91 8l-19 -159l138 61q21 -38 36 -84z" />
    <glyph glyph-name="plus" unicode="+" horiz-adv-x="496" 
d="M454 307v-68h-171v-194h-70v194h-171v68h171v193h70v-193h171z" />
    <glyph glyph-name="comma" unicode="," horiz-adv-x="226" 
d="M163 59q0 -103 -117 -232l-72 26q64 76 85 119.5t21 105.5v35h79q4 -17 4 -54z" />
    <glyph glyph-name="hyphen" unicode="-" horiz-adv-x="250" 
d="M217 260h-184v77h184v-77z" />
    <glyph glyph-name="period" unicode="." horiz-adv-x="226" 
d="M165 42q0 -25 -14.5 -39t-37.5 -14t-37.5 14t-14.5 39q0 26 15 41t38 15q22 0 36.5 -15t14.5 -41z" />
    <glyph glyph-name="slash" unicode="/" horiz-adv-x="374" 
d="M362 671l-313 -785q-39 8 -68 22l308 776q36 0 73 -13z" />
    <glyph glyph-name="zero" unicode="0" 
d="M458 273q0 -133 -54 -208t-153 -75q-98 0 -153.5 70.5t-55.5 212.5q0 136 57.5 209t151.5 73q100 0 153.5 -70.5t53.5 -211.5zM368 273q0 102 -26 152.5t-91 50.5q-63 0 -91 -51t-28 -152q0 -105 27.5 -155t91.5 -50q62 0 89.5 51.5t27.5 153.5z" />
    <glyph glyph-name="one" unicode="1" 
d="M466 0h-392v84h180v375l-165 -24q-11 40 -11 77l178 33h84v-461h133q0 -49 -7 -84z" />
    <glyph glyph-name="two" unicode="2" 
d="M197 84h254q0 -45 -7 -84h-370l-6 76q141 94 197.5 162t56.5 132q0 50 -27 75.5t-76 25.5q-78 0 -128 -27q-13 50 -16 84q67 27 148 27q91 0 142.5 -45t51.5 -133q0 -144 -220 -293z" />
    <glyph glyph-name="three" unicode="3" 
d="M432 64q0 -100 -66.5 -151.5t-164.5 -51.5q-88 0 -154 29q7 53 16 85q59 -29 142 -29q130 0 130 120q0 114 -121 114h-102v84h91q63 0 89 29.5t26 83.5q0 45 -29.5 69t-82.5 24q-68 0 -129 -24q-10 43 -13 85q69 24 154 24q86 0 140 -42t54 -127q0 -114 -100 -155v-5
q57 -17 88.5 -58.5t31.5 -103.5z" />
    <glyph glyph-name="four" unicode="4" 
d="M461 113q0 -36 -9 -81h-70v-161h-87v161h-250v83q44 100 109.5 227.5t116.5 212.5q41 -2 77 -17l-219 -428h169v187h84v-184h79z" />
    <glyph glyph-name="five" unicode="5" 
d="M441 69q0 -96 -62 -152t-162 -56q-76 0 -143 25q3 36 16 86q54 -23 128 -23q68 0 100 29t32 93q0 118 -170 118q-55 0 -98 -5q5 177 30 361h319q0 -41 -8 -84h-241l-17 -191q276 0 276 -201z" />
    <glyph glyph-name="six" unicode="6" 
d="M450 224q0 -111 -54 -172.5t-143 -61.5q-102 0 -152.5 72.5t-50.5 238.5q0 192 64 287.5t186 95.5q72 0 117 -14q-2 -44 -12 -85q-44 14 -105 14q-77 0 -116.5 -55.5t-44.5 -180.5h4q45 66 130 66q79 0 128 -51t49 -154zM361 222q0 133 -107 133q-56 0 -83.5 -33.5
t-27.5 -105.5q0 -71 27 -109t79 -38q56 0 84 36.5t28 116.5z" />
    <glyph glyph-name="seven" unicode="7" 
d="M449 465q-134 -294 -305 -601q-51 4 -84 17l298 580h-294q-7 38 -7 84h392v-80z" />
    <glyph glyph-name="eight" unicode="8" 
d="M448 183q0 -92 -55 -142.5t-150 -50.5q-87 0 -139.5 44t-52.5 141q0 112 115 173q-102 58 -102 157q0 85 51 132t136 47t134 -43t49 -125q0 -47 -28 -89t-78 -68q120 -61 120 -176zM346 511q0 45 -26 71.5t-73 26.5q-46 0 -71.5 -27t-25.5 -68q0 -102 104 -129
q42 15 67 50.5t25 75.5zM357 184q0 103 -117 136q-47 -15 -73.5 -53t-26.5 -86q0 -116 107 -116q110 0 110 119z" />
    <glyph glyph-name="nine" unicode="9" 
d="M50 321q0 111 54 172.5t143 61.5q102 0 152.5 -72.5t50.5 -238.5q0 -192 -64 -287.5t-186 -95.5q-72 0 -117 14q2 44 12 85q44 -14 105 -14q77 0 116.5 55.5t44.5 180.5h-4q-45 -66 -130 -66q-79 0 -128 51t-49 154zM139 323q0 -133 107 -133q56 0 83.5 33.5t27.5 105.5
q0 71 -27 109t-79 38q-56 0 -84 -36.5t-28 -116.5z" />
    <glyph glyph-name="colon" unicode=":" horiz-adv-x="226" 
d="M165 42q0 -25 -14.5 -39t-37.5 -14q-24 0 -38 13.5t-14 39.5t14.5 41t37.5 15q22 0 37 -15t15 -41zM165 431q0 -25 -14.5 -39.5t-37.5 -14.5q-24 0 -38 14t-14 40t14.5 40.5t37.5 14.5t37.5 -15t14.5 -40z" />
    <glyph glyph-name="semicolon" unicode=";" horiz-adv-x="226" 
d="M163 431q0 -25 -14.5 -39.5t-37.5 -14.5q-24 0 -38.5 14t-14.5 40t14.5 40.5t38.5 14.5q23 0 37.5 -15t14.5 -40zM163 59q0 -103 -117 -232l-72 26q64 76 85 119.5t21 105.5v35h79q4 -17 4 -54z" />
    <glyph glyph-name="less" unicode="&#x3c;" horiz-adv-x="402" 
d="M340 45h-89l-205 229l205 226h89v-9l-201 -213l201 -226v-7z" />
    <glyph glyph-name="equal" unicode="=" horiz-adv-x="491" 
d="M427 336h-363v67h363v-67zM427 147h-363v67h363v-67z" />
    <glyph glyph-name="greater" unicode="&#x3e;" horiz-adv-x="402" 
d="M356 271l-205 -226h-89v9l201 213l-201 226v7h89z" />
    <glyph glyph-name="question" unicode="?" horiz-adv-x="376" 
d="M353 504q0 -142 -194 -211v-101q-33 -7 -75 -9q-14 82 -14 157q193 55 193 159q0 54 -29.5 78.5t-92.5 24.5q-55 0 -106 -11q-8 40 -8 82q58 11 122 11q90 0 147 -45.5t57 -134.5zM173 42q0 -25 -15 -39t-38 -14t-37.5 14t-14.5 39q0 26 15 41t38 15q22 0 37 -15t15 -41z
" />
    <glyph glyph-name="at" unicode="@" horiz-adv-x="841" 
d="M780 351q0 -120 -43 -191t-118 -71q-86 0 -109 52h-3q-52 -53 -128 -53q-59 0 -94.5 31.5t-35.5 89.5q0 122 149 128l102 4v100q-36 18 -92 18q-63 0 -103 -19q-10 36 -10 70q57 16 118 16q101 0 160 -41v-287q0 -51 49 -51q92 0 92 203q0 136 -76 204t-208 68
q-145 0 -224.5 -82.5t-79.5 -240.5q0 -306 279 -306q80 0 137 25q11 -31 11 -65q-62 -23 -151 -23q-164 0 -252.5 94.5t-88.5 275.5q0 98 29 173t80.5 120t118 68t144.5 23q157 0 252 -85.5t95 -247.5zM500 187v98l-100 -5q-42 -2 -58 -17t-16 -50q0 -63 70 -63q59 0 104 37
z" />
    <glyph glyph-name="A" unicode="A" horiz-adv-x="574" 
d="M560 6q-38 -9 -95 -11l-67 205h-231l-65 -205q-53 2 -88 11q91 306 222 668h104q116 -334 220 -668zM374 280l-79 251q-7 19 -8 48h-7q0 -27 -7 -48l-81 -251h182z" />
    <glyph glyph-name="B" unicode="B" horiz-adv-x="587" 
d="M532 190q0 -101 -65 -150t-170 -49q-86 0 -198 14v662q101 14 188 14q220 0 220 -175q0 -53 -27 -92.5t-71 -58.5v-7q123 -35 123 -158zM411 498q0 107 -120 107q-30 0 -97 -5v-219h107q51 0 80.5 31t29.5 86zM430 196q0 54 -33 83t-90 29h-113v-233q59 -6 101 -6
q135 0 135 127z" />
    <glyph glyph-name="C" unicode="C" horiz-adv-x="572" 
d="M532 34q-72 -44 -180 -44q-144 0 -217.5 88.5t-73.5 259.5q0 174 78 260t210 86q110 0 170 -33q-3 -29 -18 -88q-66 34 -149 34q-93 0 -139.5 -59t-46.5 -202q0 -135 45 -197t142 -62q90 0 161 45q14 -48 18 -88z" />
    <glyph glyph-name="D" unicode="D" horiz-adv-x="683" 
d="M622 351q0 -173 -81.5 -266.5t-215.5 -93.5q-129 0 -226 14v662q100 14 225 14q134 0 216 -81.5t82 -248.5zM517 340q0 73 -16 125t-45 79t-62 39t-73 12q-76 0 -124 -6v-506q66 -6 123 -6q197 0 197 263z" />
    <glyph glyph-name="E" unicode="E" horiz-adv-x="546" 
d="M492 86q0 -41 -8 -86h-385v674h377q0 -43 -8 -86h-271v-194h205v-85h-205v-223h295z" />
    <glyph glyph-name="F" unicode="F" horiz-adv-x="525" 
d="M480 674q0 -35 -7 -86h-276v-210h226v-86h-226v-292h-98v674h381z" />
    <glyph glyph-name="G" unicode="G" horiz-adv-x="645" 
d="M560 34q-36 -19 -91.5 -31.5t-107.5 -12.5q-300 0 -300 348q0 175 81.5 260.5t224.5 85.5q109 0 179 -32q-3 -34 -19 -89q-66 34 -156 34q-103 0 -154 -57.5t-51 -205.5q0 -141 49 -199t148 -58q61 0 101 17v167h-124q-9 38 -9 85h229v-312z" />
    <glyph glyph-name="H" unicode="H" horiz-adv-x="687" 
d="M588 0h-98v311h-293v-311h-98v674h98v-276h293v276h98v-674z" />
    <glyph glyph-name="I" unicode="I" horiz-adv-x="296" 
d="M197 0h-98v674h98v-674z" />
    <glyph glyph-name="J" unicode="J" horiz-adv-x="307" 
d="M208 60q0 -206 -185 -218q-13 38 -15 91q56 3 79 29t23 85v627h98v-614z" />
    <glyph glyph-name="K" unicode="K" horiz-adv-x="622" 
d="M577 668l-239 -281q116 -160 252 -382q-43 -10 -100 -10l-213 322l-81 -95v-222h-97v674h97v-322h4l274 327q61 0 103 -11z" />
    <glyph glyph-name="L" unicode="L" 
d="M470 87q0 -41 -8 -87h-363v674h98v-587h273z" />
    <glyph glyph-name="M" unicode="M" horiz-adv-x="852" 
d="M772 4q-41 -7 -93 -7l-38 482q-1 14 -1 64h-7q-3 -37 -12 -64l-151 -479h-91l-152 479q-7 22 -11 64h-7q0 -40 -2 -64l-44 -482q-52 0 -83 7q22 302 64 670h110l156 -488q10 -34 15 -75h7q4 46 13 76l154 487h112q40 -359 61 -670z" />
    <glyph glyph-name="N" unicode="N" horiz-adv-x="688" 
d="M589 3q-48 -8 -89 -8l-278 473q-20 34 -33 74l-7 -1q5 -43 5 -76v-465h-88v667q44 9 101 9l266 -453q18 -30 33 -73l7 1q-5 33 -5 77v446h88v-671z" />
    <glyph glyph-name="O" unicode="O" horiz-adv-x="677" 
d="M616 337q0 -173 -73.5 -260t-203.5 -87q-134 0 -206 85t-72 258q0 171 73.5 261t204.5 90q134 0 205.5 -86t71.5 -261zM511 337q0 143 -42.5 202.5t-130.5 59.5q-89 0 -130.5 -58.5t-41.5 -203.5q0 -140 40.5 -201t132.5 -61q91 0 131.5 60t40.5 202z" />
    <glyph glyph-name="P" unicode="P" horiz-adv-x="572" 
d="M516 468q0 -110 -66 -166t-164 -56h-90v-246h-97v667q114 14 192 14q100 0 162.5 -53.5t62.5 -159.5zM418 469q0 68 -36 101t-94 33q-18 0 -92 -6v-271h78q144 0 144 143z" />
    <glyph glyph-name="Q" unicode="Q" horiz-adv-x="677" 
d="M616 337q0 -158 -62 -243t-173 -97q1 -108 106 -108q53 0 90 15q9 -39 11 -83q-48 -16 -109 -16q-84 0 -134.5 46.5t-52.5 143.5q-231 28 -231 338q0 171 73 261t205 90q133 0 205 -86.5t72 -260.5zM511 337q0 143 -42.5 202.5t-130.5 59.5q-89 0 -130.5 -58.5
t-41.5 -203.5q0 -139 40.5 -200.5t132.5 -61.5q91 0 131.5 60t40.5 202z" />
    <glyph glyph-name="R" unicode="R" horiz-adv-x="595" 
d="M564 7q-46 -12 -104 -12l-55 110q-63 126 -112 172h-98v-277h-96v667q118 14 193 14q98 0 159 -46.5t61 -147.5q0 -68 -37.5 -116t-99.5 -65q61 -51 114 -153zM413 482q0 120 -125 120q-41 0 -93 -6v-242h82q136 0 136 128z" />
    <glyph glyph-name="S" unicode="S" horiz-adv-x="523" 
d="M469 183q0 -89 -60.5 -141t-164.5 -52q-108 0 -181 31q6 43 22 86q76 -33 168 -33q117 0 117 100q0 39 -31.5 69t-76.5 51t-90 45t-76.5 63.5t-31.5 93.5q0 89 64 138.5t168 49.5q79 0 142 -15q-2 -45 -15 -87q-67 18 -141 18q-119 0 -119 -95q0 -35 31.5 -62t76.5 -48.5
t90 -46t76.5 -66.5t31.5 -99z" />
    <glyph glyph-name="T" unicode="T" horiz-adv-x="493" 
d="M470 674q0 -43 -8 -86h-169v-588h-98v588h-172v86h447z" />
    <glyph glyph-name="U" unicode="U" horiz-adv-x="678" 
d="M580 269q0 -138 -56 -208.5t-185 -70.5q-122 0 -181.5 61.5t-59.5 217.5v405h98v-423q0 -96 31 -134t114 -38q77 0 112.5 40.5t35.5 131.5v423h91v-405z" />
    <glyph glyph-name="V" unicode="V" horiz-adv-x="584" 
d="M554 669q-90 -332 -212 -669h-103q-117 328 -211 669q46 8 96 8l155 -518q4 -14 11 -55h7q3 27 11 55l157 518q51 0 89 -8z" />
    <glyph glyph-name="W" unicode="W" horiz-adv-x="912" 
d="M855 669q-54 -296 -151 -669h-102l-134 475q-8 26 -11 70h-7q-4 -40 -13 -71l-132 -474h-102q-94 362 -146 669q37 8 92 8l101 -488q6 -34 8 -67h8q3 32 12 66l137 486h88l131 -487q6 -22 13 -65h7q1 29 9 65l107 491q49 0 85 -9z" />
    <glyph glyph-name="X" unicode="X" horiz-adv-x="594" 
d="M569 5q-46 -10 -108 -10l-143 249q-10 17 -21 44h-6q-9 -25 -20 -44l-144 -249q-64 0 -103 10l207 342l-196 322q54 8 111 8l136 -232q11 -19 18 -39h6q10 26 19 41l130 230q59 0 104 -8l-192 -319z" />
    <glyph glyph-name="Y" unicode="Y" horiz-adv-x="550" 
d="M529 669q-99 -222 -206 -415v-254h-97v254q-102 178 -205 415q46 8 101 8l133 -281q9 -19 20 -52h7q12 36 20 54l133 279q48 0 94 -8z" />
    <glyph glyph-name="Z" unicode="Z" horiz-adv-x="555" 
d="M508 86q0 -42 -7 -86h-448l-6 76l341 512h-321q-6 44 -6 86h435l7 -76l-342 -512h347z" />
    <glyph glyph-name="bracketleft" unicode="[" horiz-adv-x="346" 
d="M300 -175h-198v910h198q0 -39 -8 -79h-104v-752h104q8 -42 8 -79z" />
    <glyph glyph-name="backslash" unicode="\" horiz-adv-x="374" 
d="M86 684l308 -776q-31 -15 -69 -22l-313 785q39 13 74 13z" />
    <glyph glyph-name="bracketright" unicode="]" horiz-adv-x="346" 
d="M47 735h197v-910h-197q0 44 7 79h104v752h-104q-7 36 -7 79z" />
    <glyph glyph-name="asciicircum" unicode="^" horiz-adv-x="493" 
d="M430 364q-32 -7 -81 -7l-102 260l-104 -260q-44 0 -80 6q62 179 130 311h109q62 -128 128 -310z" />
    <glyph glyph-name="underscore" unicode="_" 
d="M507 -139h-507v69h516q0 -31 -9 -69z" />
    <glyph glyph-name="grave" unicode="`" 
d="M332 579q-28 -7 -70 -7q-69 81 -96 159h93z" />
    <glyph glyph-name="a" unicode="a" horiz-adv-x="533" 
d="M517 79v-27q0 -62 -69 -62q-74 0 -95 54h-4q-66 -54 -146 -54q-70 0 -111 36t-41 107q0 80 46 116.5t142 40.5l104 4v135q-41 23 -109 23q-73 0 -122 -22q-10 38 -12 82q69 20 138 20q125 0 191 -51v-368q0 -19 6.5 -26.5t23.5 -7.5h58zM343 102v129l-107 -5
q-52 -2 -73 -21.5t-21 -65.5q0 -40 19 -58t60 -18q68 0 122 39z" />
    <glyph glyph-name="b" unicode="b" horiz-adv-x="577" 
d="M517 279q0 -142 -61 -215.5t-173 -73.5q-110 0 -186 56v691q42 7 89 7v-267h5q62 55 140 55q85 0 135.5 -60.5t50.5 -192.5zM421 269q0 102 -28.5 142t-87.5 40q-65 0 -119 -42v-315q36 -25 94 -25q72 0 106.5 45t34.5 155z" />
    <glyph glyph-name="c" unicode="c" horiz-adv-x="473" 
d="M429 20q-51 -30 -135 -30q-234 0 -234 262q0 142 62 211t159 69q81 0 136 -21q-5 -44 -19 -86q-49 21 -112 21q-64 0 -97 -40.5t-33 -137.5q0 -110 32.5 -151t107.5 -41q66 0 114 28q15 -47 19 -84z" />
    <glyph glyph-name="d" unicode="d" horiz-adv-x="577" 
d="M390 106v325q-39 22 -97 22q-70 0 -103.5 -44t-33.5 -153q0 -105 27.5 -145t87.5 -40q66 0 119 35zM480 0h-90v44h-5q-59 -54 -142 -54q-86 0 -134.5 63t-48.5 192q0 287 229 287q52 0 101 -18v223q42 7 90 7v-744z" />
    <glyph glyph-name="e" unicode="e" horiz-adv-x="526" 
d="M466 320q0 -39 -3 -75h-306v-8q0 -85 31.5 -123.5t112.5 -38.5q80 0 134 33q16 -42 22 -84q-62 -34 -158 -34q-239 0 -239 264q0 139 58.5 208.5t155.5 69.5q94 0 143 -55t49 -157zM272 462q-110 0 -114 -155h218q1 8 1 32q0 123 -105 123z" />
    <glyph glyph-name="f" unicode="f" horiz-adv-x="355" 
d="M326 740q0 -50 -6 -81q-15 3 -48 3q-34 0 -49 -18t-15 -56v-66h117q0 -34 -7 -78h-110v-444h-89v444h-62v78h62v59q0 75 45.5 119t110.5 44q25 0 51 -4z" />
    <glyph glyph-name="g" unicode="g" horiz-adv-x="538" 
d="M496 -34q0 -84 -58.5 -133t-170.5 -49q-206 0 -206 152q0 58 50 109q-22 35 -29 70q18 70 56 117q-60 41 -60 126q0 78 48.5 126t132.5 48q34 0 82 -10h151q0 -37 -7 -66l-69 -5l-1 -4q28 -32 28 -86q0 -82 -49 -124t-126 -42q-36 0 -72 10q-30 -38 -30 -69q0 -32 30 -32
h156q70 0 107 -32t37 -106zM410 -42q0 38 -13.5 50.5t-48.5 12.5h-183q-23 -23 -23 -67q0 -52 29 -73.5t100 -21.5q139 0 139 99zM359 364q0 103 -98 103q-96 0 -96 -103q0 -102 96 -102q98 0 98 102z" />
    <glyph glyph-name="h" unicode="h" horiz-adv-x="585" 
d="M493 0h-90v369q0 40 -20 61t-67 21q-68 0 -130 -41v-410h-89v737q42 7 89 7v-271h5q69 59 154 59q68 0 108 -38t40 -120v-374z" />
    <glyph glyph-name="i" unicode="i" horiz-adv-x="283" 
d="M194 666q0 -24 -13.5 -39.5t-39.5 -15.5q-25 0 -38.5 16t-13.5 39q0 24 13.5 40.5t39.5 16.5q25 0 38.5 -16.5t13.5 -40.5zM186 0h-89v522h89v-522z" />
    <glyph glyph-name="j" unicode="j" horiz-adv-x="285" 
d="M190 -26q0 -84 -43.5 -133.5t-124.5 -56.5q-15 42 -18 82q52 3 74 29t22 76v551h90v-548zM198 666q0 -24 -14 -39.5t-40 -15.5q-24 0 -38 16t-14 39q0 24 13.5 40.5t39.5 16.5q25 0 39 -16.5t14 -40.5z" />
    <glyph glyph-name="k" unicode="k" horiz-adv-x="518" 
d="M496 4q-37 -8 -95 -8l-145 249l-70 -78v-167h-89v737q42 7 89 7v-455h5l208 241q58 -6 92 -17l-177 -200q91 -146 182 -309z" />
    <glyph glyph-name="l" unicode="l" horiz-adv-x="283" 
d="M186 0h-89v737q42 7 89 7v-744z" />
    <glyph glyph-name="m" unicode="m" horiz-adv-x="851" 
d="M759 0h-90v369q0 82 -83 82q-60 0 -114 -43v-408h-90v369q0 82 -82 82q-57 0 -114 -41v-410h-89v518q36 6 89 6v-51h5q36 32 67 45.5t71 13.5q89 0 121 -70q74 70 160 70q67 0 108 -37.5t41 -120.5v-374z" />
    <glyph glyph-name="n" unicode="n" horiz-adv-x="585" 
d="M493 0h-90v369q0 82 -87 82q-69 0 -130 -41v-410h-89v518q36 6 89 6v-51h5q68 59 154 59q66 0 107 -37t41 -122v-373z" />
    <glyph glyph-name="o" unicode="o" horiz-adv-x="569" 
d="M509 261q0 -131 -63 -201t-164 -70q-105 0 -163.5 66.5t-58.5 204.5q0 127 62 199t163 72q103 0 163.5 -65t60.5 -206zM413 261q0 104 -32.5 148.5t-95.5 44.5q-61 0 -94.5 -44t-33.5 -149q0 -106 31 -149.5t94 -43.5q65 0 98 44t33 149z" />
    <glyph glyph-name="p" unicode="p" horiz-adv-x="577" 
d="M517 277q0 -146 -60 -216.5t-170 -70.5q-47 0 -101 18v-214h-89v724q36 6 89 6v-47h5q62 55 143 55q86 0 134.5 -63t48.5 -192zM421 267q0 106 -28.5 145t-87.5 39q-67 0 -119 -36v-324q45 -22 97 -22q73 0 105.5 45.5t32.5 152.5z" />
    <glyph glyph-name="q" unicode="q" horiz-adv-x="577" 
d="M480 -206h-90v250h-5q-61 -54 -142 -54q-86 0 -134.5 62.5t-48.5 192.5q0 145 60.5 216t172.5 71q108 0 187 -41v-697zM390 106v328q-41 18 -95 18q-72 0 -105.5 -44.5t-33.5 -152.5q0 -106 28 -145t87 -39q64 0 119 35z" />
    <glyph glyph-name="r" unicode="r" horiz-adv-x="384" 
d="M356 527q0 -40 -9 -94q-22 6 -45 6q-64 0 -116 -51v-388h-89v518q36 6 89 6v-66h5q38 46 66.5 60t58.5 14q25 0 40 -5z" />
    <glyph glyph-name="s" unicode="s" horiz-adv-x="452" 
d="M398 145q0 -77 -55 -116t-138 -39q-91 0 -152 33q14 57 23 81q62 -32 147 -32q81 0 81 68q0 28 -25 47.5t-60.5 33t-71 29t-60.5 46.5t-25 76q0 76 55.5 118t140.5 42q69 0 122 -15q-1 -32 -13 -83q-59 19 -133 19q-80 0 -80 -70q0 -18 13.5 -32t35 -24t47.5 -20t52 -23
t47.5 -30t35 -45t13.5 -64z" />
    <glyph glyph-name="t" unicode="t" horiz-adv-x="390" 
d="M363 11q-44 -21 -97 -21q-80 0 -116 41t-36 128v285h-62v78h62v112q42 12 90 16v-128h132q0 -39 -6 -78h-126v-292q0 -45 15.5 -61.5t54.5 -16.5q40 0 76 16q10 -38 13 -79z" />
    <glyph glyph-name="u" unicode="u" horiz-adv-x="584" 
d="M487 0h-90v45h-5q-71 -55 -152 -55q-66 0 -106.5 37t-40.5 121v371q50 6 90 6v-370q0 -84 89 -84q64 0 125 36v412q50 6 90 6v-525z" />
    <glyph glyph-name="v" unicode="v" horiz-adv-x="501" 
d="M475 518q-69 -240 -178 -518h-96q-106 271 -175 518q36 6 89 6l122 -370q8 -25 13 -61h5q6 38 14 63l120 368q49 0 86 -6z" />
    <glyph glyph-name="w" unicode="w" horiz-adv-x="790" 
d="M739 518q-46 -259 -125 -518h-90l-115 356q-10 29 -14 64h-4q-4 -29 -15 -65l-111 -355h-91q-75 243 -123 518q38 6 87 6l77 -355q7 -34 10 -69h5q6 42 15 71l110 351h86l111 -352q10 -31 16 -70h4q4 35 12 71l75 353q45 0 80 -6z" />
    <glyph glyph-name="x" unicode="x" horiz-adv-x="510" 
d="M484 4q-46 -8 -103 -8l-111 182q-11 20 -17 40h-4q-6 -16 -18 -40l-108 -182q-55 0 -97 8l169 274l-159 240q43 7 103 7l101 -166q13 -25 18 -42h5q8 23 18 42l99 166q55 0 97 -7l-163 -251z" />
    <glyph glyph-name="y" unicode="y" horiz-adv-x="513" 
d="M487 518l-171 -502q-41 -121 -94 -176.5t-123 -55.5q-56 0 -92 19q5 47 18 83q35 -15 79 -15q57 0 86 66l27 63q-112 260 -179 518q44 7 88 7l117 -369q10 -29 17 -62h4q6 31 16 63l119 368q53 0 88 -7z" />
    <glyph glyph-name="z" unicode="z" horiz-adv-x="475" 
d="M429 0h-383l-9 73l278 371h-251q-6 39 -6 78h354l9 -73l-277 -371h275q8 -32 10 -78z" />
    <glyph glyph-name="braceleft" unicode="{" horiz-adv-x="332" 
d="M286 -100q0 -41 -7 -80q-117 0 -170.5 31.5t-53.5 94.5q0 37 28 82.5t55.5 86t27.5 64.5q0 32 -25 46t-95 14v84q70 0 95 14t25 46q0 24 -27.5 64t-55.5 85.5t-28 82.5q0 60 59 92.5t166 32.5q6 -31 6 -80q-77 0 -108.5 -12.5t-31.5 -44.5q0 -21 27 -60.5t54 -83
t27 -74.5q0 -40 -22.5 -63.5t-82.5 -37.5v-5q59 -12 82 -37t23 -66q0 -38 -54 -116.5t-54 -102.5q0 -32 31 -44.5t109 -12.5z" />
    <glyph glyph-name="bar" unicode="|" horiz-adv-x="260" 
d="M166 -206h-72v938h72v-938z" />
    <glyph glyph-name="braceright" unicode="}" horiz-adv-x="332" 
d="M286 238q-71 0 -96 -14t-25 -46q0 -24 28 -64t56 -85.5t28 -82.5q0 -60 -59 -92.5t-166 -32.5q-6 31 -6 80q76 0 107.5 12.5t31.5 44.5q0 21 -26.5 60.5t-53.5 83t-27 74.5q0 40 22 63.5t82 37.5v5q-58 12 -81 37t-23 66q0 38 53.5 116.5t53.5 102.5q0 32 -30.5 44.5
t-108.5 12.5q0 49 7 80q117 0 170.5 -31.5t53.5 -94.5q0 -37 -28 -82.5t-56 -86t-28 -64.5q0 -32 25 -46t96 -14v-84z" />
    <glyph glyph-name="asciitilde" unicode="~" horiz-adv-x="494" 
d="M466 349q-16 -90 -43 -124t-72 -34q-29 0 -69.5 23t-76.5 46t-54 23q-21 0 -31 -20t-18 -73q-41 0 -74 15q15 90 42.5 124.5t72.5 34.5q36 0 108 -46t92 -46q21 0 31 19.5t18 72.5q44 0 74 -15z" />
    <glyph glyph-name="nbspace" unicode="&#xa0;" horiz-adv-x="204" 
 />
    <glyph glyph-name="exclamdown" unicode="&#xa1;" horiz-adv-x="245" 
d="M77 -140q0 220 12 482q28 5 68 7q14 -273 14 -489h-94zM71 491q0 26 14.5 40t37.5 14q24 0 38.5 -14t14.5 -40t-15 -40.5t-38 -14.5t-37.5 14.5t-14.5 40.5z" />
    <glyph glyph-name="cent" unicode="&#xa2;" 
d="M460 99q-40 -22 -113 -30l3 -69h-84l3 71q-99 12 -153.5 77t-54.5 179q0 127 58.5 194.5t149.5 78.5l-3 74h84l-3 -73q59 -3 101 -19q-4 -38 -18 -84q-51 22 -120 22q-70 0 -113 -41.5t-43 -135.5q0 -107 42 -149t124 -42q72 0 122 29q12 -38 18 -82z" />
    <glyph glyph-name="sterling" unicode="&#xa3;" 
d="M482 82q0 -37 -10 -82h-386v74q89 26 89 127q0 32 -38 123h-84v66h55q-19 57 -19 94q0 89 57.5 144.5t157.5 55.5q88 0 140 -14q0 -37 -12 -85q-60 17 -132 17q-62 0 -90 -29.5t-28 -90.5q0 -35 23 -92h223q0 -34 -9 -66h-183q33 -76 33 -120q0 -74 -63 -122h276z" />
    <glyph glyph-name="currency" unicode="&#xa4;" 
d="M392 229h-202q10 -81 43.5 -118t95.5 -37q73 0 126 32q9 -41 12 -88q-56 -28 -139 -28q-200 0 -233 239h-62v62h56q-1 15 -1 47q0 34 1 50h-56v62h63q20 120 80 177t150 57q82 0 129 -19q0 -37 -11 -88q-52 22 -116 22q-58 0 -91.5 -34t-45.5 -115h228q0 -28 -8 -62h-226
q-1 -16 -1 -52v-45h216q0 -27 -8 -62z" />
    <glyph glyph-name="yen" unicode="&#xa5;" horiz-adv-x="501" 
d="M486 669q-92 -231 -165 -371h120q0 -32 -8 -67h-135v-231h-97v231h-141v67h118q-85 167 -163 371q42 9 99 9l117 -286q17 -41 22 -62h4q5 26 20 64l117 284q48 0 92 -9z" />
    <glyph glyph-name="brokenbar" unicode="&#xa6;" horiz-adv-x="254" 
d="M163 401h-72v273h72v-273zM163 0h-72v277h72v-277z" />
    <glyph glyph-name="section" unicode="&#xa7;" horiz-adv-x="499" 
d="M459 295q0 -46 -27.5 -86t-77.5 -66q-30 18 -56 50q75 35 75 89q0 35 -29 58.5t-70 38.5t-82 32t-70 48.5t-29 77.5q0 64 54.5 105.5t139.5 41.5q63 0 118 -13q-4 -49 -12 -79q-62 16 -128 16q-41 0 -64 -16.5t-23 -47.5q0 -27 29 -47t70 -34.5t82.5 -32.5t70.5 -52
t29 -83zM40 250q0 46 28 86t78 66q26 -15 56 -49q-76 -36 -76 -90q0 -35 29 -58.5t70 -38.5t82.5 -32t70.5 -48.5t29 -77.5q0 -64 -55 -105.5t-139 -41.5q-63 0 -118 13q4 49 12 79q61 -16 128 -16q40 0 63.5 17t23.5 47q0 27 -29 47t-70.5 34.5t-83 32.5t-70.5 52t-29 83z
" />
    <glyph glyph-name="dieresis" unicode="&#xa8;" 
d="M211 636q0 -23 -13.5 -38t-37.5 -15q-23 0 -36.5 15t-13.5 38q0 24 13.5 39.5t37.5 15.5q23 0 36.5 -16t13.5 -39zM390 636q0 -23 -14 -38t-37 -15t-36.5 15t-13.5 38q0 24 13.5 39.5t37.5 15.5q23 0 36.5 -16t13.5 -39z" />
    <glyph glyph-name="copyright" unicode="&#xa9;" horiz-adv-x="725" 
d="M658 338q0 -142 -83 -229t-213 -87t-212.5 86.5t-82.5 229.5q0 139 82.5 226t212.5 87q127 0 211.5 -85.5t84.5 -227.5zM484 162q-40 -24 -107 -24q-83 0 -127 50t-44 146q0 97 46.5 145.5t121.5 48.5q67 0 103 -18q-1 -26 -9 -60q-41 18 -91 18q-49 0 -74.5 -30.5
t-25.5 -103.5q0 -72 25 -104t77 -32q54 0 96 25q9 -31 9 -61zM617 335q0 124 -72 201t-183 77q-118 0 -186.5 -76.5t-68.5 -201.5q0 -121 70.5 -199t184.5 -78q115 0 185 75.5t70 201.5z" />
    <glyph glyph-name="ordfeminine" unicode="&#xaa;" horiz-adv-x="380" 
d="M353 399v-21q0 -43 -47 -43q-40 0 -55 36h-3q-39 -36 -98 -36q-45 0 -71.5 23t-26.5 67q0 53 29.5 75.5t93.5 25.5l66 3v70q-26 13 -70 13q-46 0 -79 -14q-9 31 -11 63q49 13 95 13q84 0 129 -33v-221q0 -12 4 -16.5t16 -4.5h28zM241 410v74l-69 -3q-29 -1 -41 -12.5
t-12 -36.5q0 -23 11 -33.5t36 -10.5q47 0 75 22z" />
    <glyph glyph-name="guillemotleft" unicode="&#xab;" horiz-adv-x="481" 
d="M242 56l-73 -13l-139 220l139 220l73 -14l-122 -207zM452 56l-73 -13l-139 220l139 220l73 -14l-122 -207z" />
    <glyph glyph-name="logicalnot" unicode="&#xac;" horiz-adv-x="498" 
d="M454 140q-32 -7 -73 -7v158h-346v74h419v-225z" />
    <glyph glyph-name="registered" unicode="&#xae;" horiz-adv-x="725" 
d="M658 338q0 -142 -83 -229t-213 -87t-212.5 86.5t-82.5 229.5q0 139 82.5 226t212.5 87q127 0 211.5 -85.5t84.5 -227.5zM617 335q0 124 -72 201t-183 77q-118 0 -186.5 -76.5t-68.5 -201.5q0 -121 70.5 -199t184.5 -78q115 0 185 75.5t70 201.5zM471 230l40 -82
q-15 -3 -68 -6l-29 59q-29 61 -60 92h-50v-149h-64v375q63 7 119 7q55 0 89.5 -26.5t34.5 -83.5q0 -37 -20.5 -64t-52.5 -37q35 -32 61 -85zM418 412q0 61 -64 61q-20 0 -50 -2v-126h43q71 0 71 67z" />
    <glyph glyph-name="macron" unicode="&#xaf;" 
d="M379 675q0 -36 -8 -73h-244v73h252z" />
    <glyph glyph-name="degree" unicode="&#xb0;" horiz-adv-x="324" 
d="M289 551q0 -57 -35 -93.5t-92 -36.5q-60 0 -93.5 34.5t-33.5 93.5q0 57 35 93t92 36q58 0 92.5 -34.5t34.5 -92.5zM219 551q0 29 -16 47t-41 18q-26 0 -41 -18t-15 -47t14.5 -47.5t41.5 -18.5t42 18t15 48z" />
    <glyph glyph-name="plusminus" unicode="&#xb1;" horiz-adv-x="446" 
d="M386 309h-131v-130h-66v130h-129v64h129v127h66v-127h131v-64zM386 45h-326v67h326v-67z" />
    <glyph glyph-name="twosuperior" unicode="&#xb2;" horiz-adv-x="343" 
d="M310 486q0 -32 -5 -65h-266l-3 56q100 68 139.5 114.5t39.5 91.5q0 66 -75 66q-57 0 -89 -17q-8 23 -11 65q45 18 110 18t103 -32t38 -95q0 -99 -151 -202h170z" />
    <glyph glyph-name="threesuperior" unicode="&#xb3;" horiz-adv-x="343" 
d="M297 531q0 -58 -43.5 -87.5t-119.5 -29.5q-61 0 -104 17q2 38 11 66q44 -18 92 -18q45 0 67.5 11.5t22.5 42.5q0 33 -20.5 44.5t-63.5 11.5h-65v62h64q42 0 59.5 13t17.5 40q0 46 -79 46q-47 0 -84 -14q-8 22 -10 64q46 15 106 15q63 0 101.5 -24t38.5 -75q0 -68 -67 -89
v-3q76 -19 76 -93z" />
    <glyph glyph-name="acute" unicode="&#xb4;" 
d="M335 731q-28 -80 -97 -159q-42 0 -69 7l72 152h94z" />
    <glyph glyph-name="mu" unicode="&#xb5;" horiz-adv-x="588" 
d="M491 0h-90v45h-5q-72 -55 -143 -55q-45 0 -67 23v-219h-89v725q50 6 89 6v-370q0 -84 89 -84q65 0 126 36v412q48 6 90 6v-525z" />
    <glyph glyph-name="paragraph" unicode="&#xb6;" 
d="M440 661v-537q0 -94 -31.5 -154t-110.5 -109l-35 43q69 44 93.5 93.5t24.5 125.5v493q-32 10 -78 10v-503q0 -60 -17.5 -94.5t-65.5 -66.5l-32 43q32 19 44.5 44t12.5 64v113h-22q-87 0 -138 52t-51 163q0 121 69.5 182t169.5 61q89 0 167 -23z" />
    <glyph glyph-name="periodcentered" unicode="&#xb7;" horiz-adv-x="220" 
d="M162 285q0 -25 -14.5 -39t-37.5 -14q-24 0 -38 14t-14 39q0 26 14.5 40.5t38.5 14.5q22 0 36.5 -14.5t14.5 -40.5z" />
    <glyph glyph-name="cedilla" unicode="&#xb8;" 
d="M368 -120q0 -97 -131 -97q-31 0 -64 7q-5 25 -5 57q27 -8 62 -8q65 0 65 43t-58 43q-27 0 -45 -3q4 29 14 48h54q53 0 80.5 -23.5t27.5 -66.5z" />
    <glyph glyph-name="onesuperior" unicode="&#xb9;" horiz-adv-x="343" 
d="M320 486q0 -38 -6 -65h-271v65h123v257l-114 -19q-8 26 -8 60l128 24h62v-322h86z" />
    <glyph glyph-name="ordmasculine" unicode="&#xba;" horiz-adv-x="379" 
d="M341 504q0 -81 -42.5 -125t-110.5 -44q-71 0 -110.5 42t-39.5 127q0 80 41.5 125t110.5 45q70 0 110.5 -41t40.5 -129zM268 504q0 111 -78 111q-79 0 -79 -111q0 -110 77 -110q80 0 80 110z" />
    <glyph glyph-name="guillemotright" unicode="&#xbb;" horiz-adv-x="481" 
d="M452 263l-140 -220l-72 14l121 207l-121 206l72 13zM242 263l-139 -220l-73 14l122 207l-122 206l73 13z" />
    <glyph glyph-name="onequarter" unicode="&#xbc;" horiz-adv-x="836" 
d="M320 352q0 -38 -6 -65h-271v65h123v257l-114 -19q-8 26 -8 60l128 24h62v-322h86zM590 672l-274 -681q-31 5 -59 20l270 673q37 -2 63 -12zM822 144q0 -38 -6 -62h-48v-82h-65v82h-191v64q62 119 161 248q37 0 63 -10l-157 -242h125v85h64v-83h54z" />
    <glyph glyph-name="onehalf" unicode="&#xbd;" horiz-adv-x="846" 
d="M320 352q0 -38 -6 -65h-271v65h123v257l-114 -19q-8 26 -8 60l128 24h62v-322h86zM590 672l-274 -681q-31 5 -59 20l270 673q37 -2 63 -12zM813 65q0 -32 -5 -65h-266l-3 56q100 68 139.5 114.5t39.5 91.5q0 66 -75 66q-57 0 -89 -17q-8 23 -11 65q45 18 110 18t103 -32
t38 -95q0 -99 -151 -202h170z" />
    <glyph glyph-name="threequarters" unicode="&#xbe;" horiz-adv-x="836" 
d="M297 397q0 -58 -43.5 -87.5t-119.5 -29.5q-61 0 -104 17q2 38 11 66q44 -18 92 -18q45 0 67.5 11.5t22.5 42.5q0 33 -20.5 44.5t-63.5 11.5h-65v62h64q42 0 59.5 13t17.5 40q0 46 -79 46q-47 0 -84 -14q-8 22 -10 64q46 15 106 15q63 0 101.5 -24t38.5 -75q0 -68 -67 -89
v-3q76 -19 76 -93zM590 672l-274 -681q-31 5 -59 20l270 673q37 -2 63 -12zM822 144q0 -38 -6 -62h-48v-82h-65v82h-191v64q62 119 161 248q37 0 63 -10l-157 -242h125v85h64v-83h54z" />
    <glyph glyph-name="questiondown" unicode="&#xbf;" horiz-adv-x="376" 
d="M22 29q0 143 194 212v101q35 7 76 9q13 -87 13 -157q-193 -55 -193 -159q0 -54 29.5 -78.5t92.5 -24.5q55 0 106 11q8 -40 8 -82q-51 -11 -122 -11q-90 0 -147 45t-57 134zM202 491q0 26 15 40t38 14t38 -14.5t15 -39.5t-15.5 -40t-38.5 -15q-22 0 -37 15t-15 40z" />
    <glyph glyph-name="Agrave" unicode="&#xc0;" horiz-adv-x="574" 
d="M560 6q-38 -9 -95 -11l-67 205h-231l-65 -205q-53 2 -88 11q91 306 222 668h104q116 -334 220 -668zM374 280l-79 251q-7 19 -8 48h-7q0 -27 -7 -48l-81 -251h182zM261 815l67 -103q-63 -7 -78 -7q-60 52 -86 110h97z" />
    <glyph glyph-name="Aacute" unicode="&#xc1;" horiz-adv-x="574" 
d="M560 6q-38 -9 -95 -11l-67 205h-231l-65 -205q-53 2 -88 11q91 306 222 668h104q116 -334 220 -668zM374 280l-79 251q-7 19 -8 48h-7q0 -27 -7 -48l-81 -251h182zM408 815q-25 -56 -86 -110q-16 0 -79 7l67 103h98z" />
    <glyph glyph-name="Acircumflex" unicode="&#xc2;" horiz-adv-x="574" 
d="M560 6q-38 -9 -95 -11l-67 205h-231l-65 -205q-53 2 -88 11q91 306 222 668h104q116 -334 220 -668zM374 280l-79 251q-7 19 -8 48h-7q0 -27 -7 -48l-81 -251h182zM430 711q-31 -6 -78 -6l-66 74l-67 -74q-40 0 -77 5q55 77 80 105h129q35 -40 79 -104z" />
    <glyph glyph-name="Atilde" unicode="&#xc3;" horiz-adv-x="574" 
d="M560 6q-38 -9 -95 -11l-67 205h-231l-65 -205q-53 2 -88 11q91 306 222 668h104q116 -334 220 -668zM374 280l-79 251q-7 19 -8 48h-7q0 -27 -7 -48l-81 -251h182zM123 715q11 57 33 78.5t58 21.5q23 0 68.5 -21t60.5 -21q19 0 27 8.5t13 40.5q37 -2 61 -12
q-10 -59 -31 -80t-57 -21q-23 0 -71 21.5t-61 21.5q-34 0 -39 -49q-33 0 -62 12z" />
    <glyph glyph-name="Adieresis" unicode="&#xc4;" horiz-adv-x="574" 
d="M245 758q0 -21 -13.5 -34t-36.5 -13q-22 0 -35 13.5t-13 33.5t13 33.5t36 13.5q22 0 35.5 -13t13.5 -34zM424 758q0 -21 -13.5 -34t-35.5 -13t-35 13.5t-13 33.5t13 33.5t35 13.5t35.5 -13t13.5 -34zM560 6q-38 -9 -95 -11l-67 205h-231l-65 -205q-53 2 -88 11
q91 306 222 668h104q116 -334 220 -668zM374 280l-79 251q-7 19 -8 48h-7q0 -27 -7 -48l-81 -251h182z" />
    <glyph glyph-name="Aring" unicode="&#xc5;" horiz-adv-x="574" 
d="M560 6q-38 -9 -95 -11l-67 205h-231l-65 -205q-53 2 -88 11q89 299 219 660q-61 19 -61 86q0 42 30.5 68t86.5 26q57 0 86 -24.5t29 -69.5q0 -64 -62 -86q115 -329 218 -660zM374 280l-79 251q-5 22 -7 46h-7q-2 -22 -8 -46l-81 -251h182zM338 753q0 47 -49 47
q-23 0 -37 -12t-14 -35q0 -49 49 -49q51 0 51 49z" />
    <glyph glyph-name="AE" unicode="&#xc6;" horiz-adv-x="819" 
d="M377 300v292h-8l-149 -292h157zM765 86q0 -37 -7 -86h-381v219h-194l-118 -225q-46 2 -96 12q172 343 360 668h420q0 -43 -8 -86h-270v-194h205v-85h-205v-223h294z" />
    <glyph glyph-name="Ccedilla" unicode="&#xc7;" horiz-adv-x="572" 
d="M532 34q-72 -44 -180 -44q-144 0 -217.5 88.5t-73.5 259.5q0 174 78 260t210 86q110 0 170 -33q-3 -29 -18 -88q-66 34 -149 34q-93 0 -139.5 -59t-46.5 -202q0 -135 45 -197t142 -62q90 0 161 45q14 -48 18 -88zM429 -120q0 -97 -131 -97q-31 0 -64 7q-5 25 -5 57
q27 -8 62 -8q65 0 65 43t-58 43q-27 0 -45 -3q4 29 14 48h54q53 0 80.5 -23.5t27.5 -66.5z" />
    <glyph glyph-name="Egrave" unicode="&#xc8;" horiz-adv-x="546" 
d="M492 86q0 -41 -8 -86h-385v674h377q0 -43 -8 -86h-271v-194h205v-85h-205v-223h295zM263 815l67 -103q-63 -7 -78 -7q-60 52 -86 110h97z" />
    <glyph glyph-name="Eacute" unicode="&#xc9;" horiz-adv-x="546" 
d="M371 815q-25 -56 -86 -110q-16 0 -79 7l67 103h98zM492 86q0 -41 -8 -86h-385v674h377q0 -43 -8 -86h-271v-194h205v-85h-205v-223h295z" />
    <glyph glyph-name="Ecircumflex" unicode="&#xca;" horiz-adv-x="546" 
d="M492 86q0 -41 -8 -86h-385v674h377q0 -43 -8 -86h-271v-194h205v-85h-205v-223h295zM430 711q-31 -6 -78 -6l-66 74l-67 -74q-40 0 -77 5q55 77 80 105h129q35 -40 79 -104z" />
    <glyph glyph-name="Edieresis" unicode="&#xcb;" horiz-adv-x="546" 
d="M492 86q0 -41 -8 -86h-385v674h377q0 -43 -8 -86h-271v-194h205v-85h-205v-223h295zM249 758q0 -21 -13.5 -34t-36.5 -13q-22 0 -35 13.5t-13 33.5t13 33.5t36 13.5q22 0 35.5 -13t13.5 -34zM428 758q0 -21 -13.5 -34t-35.5 -13t-35 13.5t-13 33.5t13 33.5t35 13.5
t35.5 -13t13.5 -34z" />
    <glyph glyph-name="Igrave" unicode="&#xcc;" horiz-adv-x="296" 
d="M128 815l67 -103q-63 -7 -78 -7q-60 52 -86 110h97zM197 0h-98v674h98v-674z" />
    <glyph glyph-name="Iacute" unicode="&#xcd;" horiz-adv-x="296" 
d="M197 0h-98v674h98v-674zM266 815q-25 -56 -86 -110q-16 0 -79 7l67 103h98z" />
    <glyph glyph-name="Icircumflex" unicode="&#xce;" horiz-adv-x="296" 
d="M292 711q-32 -6 -78 -6l-66 74l-67 -74q-40 0 -77 5q55 77 80 105h129q35 -40 79 -104zM197 0h-98v674h98v-674z" />
    <glyph glyph-name="Idieresis" unicode="&#xcf;" horiz-adv-x="296" 
d="M108 758q0 -21 -13.5 -34t-36.5 -13q-22 0 -35 13.5t-13 33.5t13 33.5t36 13.5q22 0 35.5 -13t13.5 -34zM287 758q0 -21 -13.5 -34t-35.5 -13t-35 13.5t-13 33.5t13 33.5t35 13.5t35.5 -13t13.5 -34zM197 0h-98v674h98v-674z" />
    <glyph glyph-name="Eth" unicode="&#xd0;" horiz-adv-x="683" 
d="M622 351q0 -173 -81.5 -266.5t-215.5 -93.5q-129 0 -226 14v307h-57v82h57v273q100 14 225 14q134 0 216 -81.5t82 -248.5zM517 341q0 73 -16.5 125t-45.5 79t-61.5 39t-72.5 12q-65 0 -125 -6v-196h113q0 -40 -9 -82h-104v-229q58 -7 124 -7q197 0 197 265z" />
    <glyph glyph-name="Ntilde" unicode="&#xd1;" horiz-adv-x="688" 
d="M193 715q11 57 33 78.5t58 21.5q23 0 68.5 -21t60.5 -21q19 0 27 8.5t13 40.5q37 -2 61 -12q-10 -59 -31 -80t-57 -21q-23 0 -71 21.5t-61 21.5q-34 0 -39 -49q-33 0 -62 12zM589 3q-48 -8 -89 -8l-278 473q-20 34 -33 74l-7 -1q5 -43 5 -76v-465h-88v667q44 9 101 9
l266 -453q18 -30 33 -73l7 1q-5 33 -5 77v446h88v-671z" />
    <glyph glyph-name="Ograve" unicode="&#xd2;" horiz-adv-x="677" 
d="M616 337q0 -173 -73.5 -260t-203.5 -87q-134 0 -206 85t-72 258q0 171 73.5 261t204.5 90q134 0 205.5 -86t71.5 -261zM511 337q0 143 -42.5 202.5t-130.5 59.5q-89 0 -130.5 -58.5t-41.5 -203.5q0 -140 40.5 -201t132.5 -61q91 0 131.5 60t40.5 202zM329 815l67 -103
q-63 -7 -78 -7q-60 52 -86 110h97z" />
    <glyph glyph-name="Oacute" unicode="&#xd3;" horiz-adv-x="677" 
d="M616 337q0 -173 -73.5 -260t-203.5 -87q-134 0 -206 85t-72 258q0 171 73.5 261t204.5 90q134 0 205.5 -86t71.5 -261zM511 337q0 143 -42.5 202.5t-130.5 59.5q-89 0 -130.5 -58.5t-41.5 -203.5q0 -140 40.5 -201t132.5 -61q91 0 131.5 60t40.5 202zM449 815
q-25 -56 -86 -110q-16 0 -79 7l67 103h98z" />
    <glyph glyph-name="Ocircumflex" unicode="&#xd4;" horiz-adv-x="677" 
d="M616 337q0 -173 -73.5 -260t-203.5 -87q-134 0 -206 85t-72 258q0 171 73.5 261t204.5 90q134 0 205.5 -86t71.5 -261zM511 337q0 143 -42.5 202.5t-130.5 59.5q-89 0 -130.5 -58.5t-41.5 -203.5q0 -140 40.5 -201t132.5 -61q91 0 131.5 60t40.5 202zM482 711
q-32 -6 -78 -6l-66 74l-67 -74q-40 0 -77 5q55 77 80 105h129q35 -40 79 -104z" />
    <glyph glyph-name="Otilde" unicode="&#xd5;" horiz-adv-x="677" 
d="M616 337q0 -173 -73.5 -260t-203.5 -87q-134 0 -206 85t-72 258q0 171 73.5 261t204.5 90q134 0 205.5 -86t71.5 -261zM511 337q0 143 -42.5 202.5t-130.5 59.5q-89 0 -130.5 -58.5t-41.5 -203.5q0 -140 40.5 -201t132.5 -61q91 0 131.5 60t40.5 202zM177 715
q11 57 33 78.5t58 21.5q23 0 68.5 -21t60.5 -21q19 0 27 8.5t13 40.5q37 -2 61 -12q-10 -59 -31 -80t-57 -21q-23 0 -71 21.5t-61 21.5q-34 0 -39 -49q-33 0 -62 12z" />
    <glyph glyph-name="Odieresis" unicode="&#xd6;" horiz-adv-x="677" 
d="M296 758q0 -21 -13.5 -34t-36.5 -13q-22 0 -35 13.5t-13 33.5t13 33.5t36 13.5q22 0 35.5 -13t13.5 -34zM475 758q0 -21 -13.5 -34t-35.5 -13t-35 13.5t-13 33.5t13 33.5t35 13.5t35.5 -13t13.5 -34zM616 337q0 -173 -73.5 -260t-203.5 -87q-134 0 -206 85t-72 258
q0 171 73.5 261t204.5 90q134 0 205.5 -86t71.5 -261zM511 337q0 143 -42.5 202.5t-130.5 59.5q-89 0 -130.5 -58.5t-41.5 -203.5q0 -140 40.5 -201t132.5 -61q91 0 131.5 60t40.5 202z" />
    <glyph glyph-name="multiply" unicode="&#xd7;" horiz-adv-x="495" 
d="M444 79l-50 -48l-147 150l-147 -150l-49 48l150 150l-150 148l49 49l147 -152l147 152l50 -49l-150 -148z" />
    <glyph glyph-name="Oslash" unicode="&#xd8;" horiz-adv-x="677" 
d="M616 337q0 -173 -73.5 -260t-203.5 -87q-89 0 -150 36l-46 -87h-45l59 111q-96 84 -96 283q0 171 73.5 261t204.5 90q78 0 138 -31l42 79h46l-54 -101q105 -85 105 -294zM511 337q0 146 -46 207l-233 -437q39 -32 107 -32q91 0 131.5 60t40.5 202zM166 337
q0 -137 38 -198l231 434q-38 26 -97 26q-89 0 -130.5 -58.5t-41.5 -203.5z" />
    <glyph glyph-name="Ugrave" unicode="&#xd9;" horiz-adv-x="678" 
d="M580 269q0 -138 -56 -208.5t-185 -70.5q-122 0 -181.5 61.5t-59.5 217.5v405h98v-423q0 -96 31 -134t114 -38q77 0 112.5 40.5t35.5 131.5v423h91v-405zM338 815l67 -103q-63 -7 -78 -7q-60 52 -86 110h97z" />
    <glyph glyph-name="Uacute" unicode="&#xda;" horiz-adv-x="678" 
d="M580 269q0 -138 -56 -208.5t-185 -70.5q-122 0 -181.5 61.5t-59.5 217.5v405h98v-423q0 -96 31 -134t114 -38q77 0 112.5 40.5t35.5 131.5v423h91v-405zM450 815q-25 -56 -86 -110q-16 0 -79 7l67 103h98z" />
    <glyph glyph-name="Ucircumflex" unicode="&#xdb;" horiz-adv-x="678" 
d="M580 269q0 -138 -56 -208.5t-185 -70.5q-122 0 -181.5 61.5t-59.5 217.5v405h98v-423q0 -96 31 -134t114 -38q77 0 112.5 40.5t35.5 131.5v423h91v-405zM491 711q-32 -6 -78 -6l-66 74l-67 -74q-40 0 -77 5q55 77 80 105h129q35 -40 79 -104z" />
    <glyph glyph-name="Udieresis" unicode="&#xdc;" horiz-adv-x="678" 
d="M305 758q0 -21 -13.5 -34t-36.5 -13q-22 0 -35 13.5t-13 33.5t13 33.5t36 13.5q22 0 35.5 -13t13.5 -34zM484 758q0 -21 -13.5 -34t-35.5 -13t-35 13.5t-13 33.5t13 33.5t35 13.5t35.5 -13t13.5 -34zM580 269q0 -138 -56 -208.5t-185 -70.5q-122 0 -181.5 61.5
t-59.5 217.5v405h98v-423q0 -96 31 -134t114 -38q77 0 112.5 40.5t35.5 131.5v423h91v-405z" />
    <glyph glyph-name="Yacute" unicode="&#xdd;" horiz-adv-x="550" 
d="M529 669q-99 -222 -206 -415v-254h-97v254q-102 178 -205 415q46 8 101 8l133 -281q9 -19 20 -52h7q12 36 20 54l133 279q48 0 94 -8zM380 815q-25 -56 -86 -110q-16 0 -79 7l67 103h98z" />
    <glyph glyph-name="Thorn" unicode="&#xde;" horiz-adv-x="572" 
d="M516 351q0 -110 -66 -166.5t-164 -56.5h-90v-128h-97v674h97v-115q57 5 95 5q100 0 162.5 -53.5t62.5 -159.5zM418 351q0 68 -36 101t-94 33q-36 0 -92 -6v-270h78q144 0 144 142z" />
    <glyph glyph-name="germandbls" unicode="&#xdf;" horiz-adv-x="555" 
d="M520 125q0 -64 -43 -99.5t-111 -35.5q-73 0 -131 29q10 52 24 82q50 -31 100 -31q35 0 51.5 13.5t16.5 45.5q0 26 -25.5 53t-56 48t-56 56t-25.5 74q0 35 19 69t41.5 56t41.5 49.5t19 51.5q0 42 -21 61t-67 19q-66 0 -89 -29.5t-23 -94.5v-542h-88v543q0 96 54.5 148.5
t148.5 52.5q83 0 131.5 -37t48.5 -107q0 -29 -12.5 -56.5t-31 -48.5t-36.5 -41t-30.5 -42.5t-12.5 -43.5q0 -27 25.5 -55.5t56 -51t56 -59t25.5 -77.5z" />
    <glyph glyph-name="agrave" unicode="&#xe0;" horiz-adv-x="533" 
d="M517 79v-27q0 -62 -69 -62q-74 0 -95 54h-4q-66 -54 -146 -54q-70 0 -111 36t-41 107q0 80 46 116.5t142 40.5l104 4v135q-41 23 -109 23q-73 0 -122 -22q-10 38 -12 82q69 20 138 20q125 0 191 -51v-368q0 -19 6.5 -26.5t23.5 -7.5h58zM343 102v129l-107 -5
q-52 -2 -73 -21.5t-21 -65.5q0 -40 19 -58t60 -18q68 0 122 39zM287 579q-28 -7 -70 -7q-69 81 -96 159h93z" />
    <glyph glyph-name="aacute" unicode="&#xe1;" horiz-adv-x="533" 
d="M517 79v-27q0 -62 -69 -62q-74 0 -95 54h-4q-66 -54 -146 -54q-70 0 -111 36t-41 107q0 80 46 116.5t142 40.5l104 4v135q-41 23 -109 23q-73 0 -122 -22q-10 38 -12 82q69 20 138 20q125 0 191 -51v-368q0 -19 6.5 -26.5t23.5 -7.5h58zM343 102v129l-107 -5
q-52 -2 -73 -21.5t-21 -65.5q0 -40 19 -58t60 -18q68 0 122 39zM366 731q-28 -80 -97 -159q-42 0 -69 7l72 152h94z" />
    <glyph glyph-name="acircumflex" unicode="&#xe2;" horiz-adv-x="533" 
d="M517 79v-27q0 -62 -69 -62q-74 0 -95 54h-4q-66 -54 -146 -54q-70 0 -111 36t-41 107q0 80 46 116.5t142 40.5l104 4v135q-41 23 -109 23q-73 0 -122 -22q-10 38 -12 82q69 20 138 20q125 0 191 -51v-368q0 -19 6.5 -26.5t23.5 -7.5h58zM343 102v129l-107 -5
q-52 -2 -73 -21.5t-21 -65.5q0 -40 19 -58t60 -18q68 0 122 39zM416 578q-34 -6 -78 -6l-76 108l-75 -108q-38 0 -76 5q45 82 96 154h113q57 -80 96 -153z" />
    <glyph glyph-name="atilde" unicode="&#xe3;" horiz-adv-x="533" 
d="M517 79v-27q0 -62 -69 -62q-74 0 -95 54h-4q-66 -54 -146 -54q-70 0 -111 36t-41 107q0 80 46 116.5t142 40.5l104 4v135q-41 23 -109 23q-73 0 -122 -22q-10 38 -12 82q69 20 138 20q125 0 191 -51v-368q0 -19 6.5 -26.5t23.5 -7.5h58zM343 102v129l-107 -5
q-52 -2 -73 -21.5t-21 -65.5q0 -40 19 -58t60 -18q68 0 122 39zM89 584q15 73 38.5 96t64.5 23q25 0 51 -14l53 -29q18 -11 34 -11q17 0 25.5 11.5t15.5 50.5q33 0 66 -15q-15 -72 -38 -95.5t-63 -23.5q-27 0 -52 14l-52 29q-22 12 -35 12q-18 0 -26.5 -11.5t-15.5 -50.5
q-29 0 -66 14z" />
    <glyph glyph-name="adieresis" unicode="&#xe4;" horiz-adv-x="533" 
d="M517 79v-27q0 -62 -69 -62q-74 0 -95 54h-4q-66 -54 -146 -54q-70 0 -111 36t-41 107q0 80 46 116.5t142 40.5l104 4v135q-41 23 -109 23q-73 0 -122 -22q-10 38 -12 82q69 20 138 20q125 0 191 -51v-368q0 -19 6.5 -26.5t23.5 -7.5h58zM343 102v129l-107 -5
q-52 -2 -73 -21.5t-21 -65.5q0 -40 19 -58t60 -18q68 0 122 39zM213 636q0 -23 -13.5 -38t-37.5 -15q-23 0 -36.5 15t-13.5 38q0 24 13.5 39.5t37.5 15.5q23 0 36.5 -16t13.5 -39zM392 636q0 -23 -14 -38t-37 -15t-36.5 15t-13.5 38q0 24 13.5 39.5t37.5 15.5q23 0 36.5 -16
t13.5 -39z" />
    <glyph glyph-name="aring" unicode="&#xe5;" horiz-adv-x="533" 
d="M517 79v-27q0 -62 -69 -62q-74 0 -95 54h-4q-66 -54 -146 -54q-70 0 -111 36t-41 107q0 80 46 116.5t142 40.5l104 4v135q-41 23 -109 23q-73 0 -122 -22q-10 38 -12 82q69 20 138 20q125 0 191 -51v-368q0 -19 6.5 -26.5t23.5 -7.5h58zM343 102v129l-107 -5
q-52 -2 -73 -21.5t-21 -65.5q0 -40 19 -58t60 -18q68 0 122 39zM372 669q0 -44 -31 -71.5t-84 -27.5q-58 0 -87.5 26.5t-29.5 72.5q0 45 31 73t86 28q57 0 86 -26.5t29 -74.5zM306 671q0 51 -49 51q-23 0 -37 -13t-14 -38q0 -54 49 -54q51 0 51 54z" />
    <glyph glyph-name="ae" unicode="&#xe6;" horiz-adv-x="796" 
d="M736 319q0 -34 -4 -69l-306 -11q0 -82 31.5 -124t112.5 -42q78 0 134 33q17 -39 22 -83q-60 -33 -158 -33q-125 0 -185 81h-1q-86 -81 -179 -81q-72 0 -112 37t-40 109q0 82 46.5 118t143.5 40l100 4q5 83 30 127q-56 27 -131 27q-78 0 -128 -22q-11 40 -11 81
q69 21 143 21q109 0 178 -44q48 44 122 44q92 0 142 -54.5t50 -158.5zM646 338q0 125 -104 125q-111 0 -115 -163l218 8q1 8 1 30zM221 62q77 0 139 57q-20 44 -20 117l-97 -4q-50 -2 -75 -22t-25 -68q0 -42 18 -61t60 -19z" />
    <glyph glyph-name="ccedilla" unicode="&#xe7;" horiz-adv-x="473" 
d="M429 20q-51 -30 -135 -30q-234 0 -234 262q0 142 62 211t159 69q81 0 136 -21q-5 -44 -19 -86q-49 21 -112 21q-64 0 -97 -40.5t-33 -137.5q0 -110 32.5 -151t107.5 -41q66 0 114 28q15 -47 19 -84zM375 -120q0 -97 -131 -97q-31 0 -64 7q-5 25 -5 57q27 -8 62 -8
q65 0 65 43t-58 43q-27 0 -45 -3q4 29 14 48h54q53 0 80.5 -23.5t27.5 -66.5z" />
    <glyph glyph-name="egrave" unicode="&#xe8;" horiz-adv-x="526" 
d="M466 320q0 -39 -3 -75h-306v-8q0 -85 31.5 -123.5t112.5 -38.5q80 0 134 33q16 -42 22 -84q-62 -34 -158 -34q-239 0 -239 264q0 139 58.5 208.5t155.5 69.5q94 0 143 -55t49 -157zM272 462q-110 0 -114 -155h218q1 8 1 32q0 123 -105 123zM310 579q-28 -7 -70 -7
q-69 81 -96 159h93z" />
    <glyph glyph-name="eacute" unicode="&#xe9;" horiz-adv-x="526" 
d="M466 320q0 -39 -3 -75h-306v-8q0 -85 31.5 -123.5t112.5 -38.5q80 0 134 33q16 -42 22 -84q-62 -34 -158 -34q-239 0 -239 264q0 139 58.5 208.5t155.5 69.5q94 0 143 -55t49 -157zM272 462q-110 0 -114 -155h218q1 8 1 32q0 123 -105 123zM388 731q-28 -80 -97 -159
q-42 0 -69 7l72 152h94z" />
    <glyph glyph-name="ecircumflex" unicode="&#xea;" horiz-adv-x="526" 
d="M466 320q0 -39 -3 -75h-306v-8q0 -85 31.5 -123.5t112.5 -38.5q80 0 134 33q16 -42 22 -84q-62 -34 -158 -34q-239 0 -239 264q0 139 58.5 208.5t155.5 69.5q94 0 143 -55t49 -157zM272 462q-110 0 -114 -155h218q1 8 1 32q0 123 -105 123zM423 578q-35 -6 -78 -6
l-76 108l-75 -108q-38 0 -76 5q45 82 96 154h113q57 -80 96 -153z" />
    <glyph glyph-name="edieresis" unicode="&#xeb;" horiz-adv-x="526" 
d="M466 320q0 -39 -3 -75h-306v-8q0 -85 31.5 -123.5t112.5 -38.5q80 0 134 33q16 -42 22 -84q-62 -34 -158 -34q-239 0 -239 264q0 139 58.5 208.5t155.5 69.5q94 0 143 -55t49 -157zM272 462q-110 0 -114 -155h218q1 8 1 32q0 123 -105 123zM233 636q0 -23 -13.5 -38
t-37.5 -15q-23 0 -36.5 15t-13.5 38q0 24 13.5 39.5t37.5 15.5q23 0 36.5 -16t13.5 -39zM412 636q0 -23 -14 -38t-37 -15t-36.5 15t-13.5 38q0 24 13.5 39.5t37.5 15.5q23 0 36.5 -16t13.5 -39z" />
    <glyph glyph-name="igrave" unicode="&#xec;" horiz-adv-x="283" 
d="M186 0h-89v522h89v-522zM180 579q-28 -7 -70 -7q-69 81 -96 159h93z" />
    <glyph glyph-name="iacute" unicode="&#xed;" horiz-adv-x="283" 
d="M186 0h-89v522h89v-522zM269 731q-28 -80 -97 -159q-42 0 -69 7l72 152h94z" />
    <glyph glyph-name="icircumflex" unicode="&#xee;" horiz-adv-x="283" 
d="M186 0h-89v522h89v-522zM295 578q-35 -6 -78 -6l-76 108l-75 -108q-38 0 -76 5q45 82 96 154h113q57 -80 96 -153z" />
    <glyph glyph-name="idieresis" unicode="&#xef;" horiz-adv-x="283" 
d="M186 0h-89v522h89v-522zM102 636q0 -23 -13.5 -38t-37.5 -15q-23 0 -36.5 15t-13.5 38q0 24 13.5 39.5t37.5 15.5q23 0 36.5 -16t13.5 -39zM281 636q0 -23 -14 -38t-37 -15t-36.5 15t-13.5 38q0 24 13.5 39.5t37.5 15.5q23 0 36.5 -16t13.5 -39z" />
    <glyph glyph-name="eth" unicode="&#xf0;" horiz-adv-x="545" 
d="M497 365q0 -190 -55.5 -282.5t-170.5 -92.5q-109 0 -166 61t-57 197q0 133 63 202.5t170 69.5q64 0 114 -17q-7 81 -43 118t-104 42l-43 -96q-33 2 -58 10l37 84q-55 -6 -93 -23q0 48 7 83q49 21 123 23l32 71q36 0 58 -13l-28 -61q67 -9 112 -43t73.5 -117t28.5 -216z
M403 328q0 42 -2 96q-49 19 -112 19q-145 0 -145 -187q0 -104 28.5 -145.5t97.5 -41.5q70 0 101.5 55.5t31.5 203.5z" />
    <glyph glyph-name="ntilde" unicode="&#xf1;" horiz-adv-x="585" 
d="M493 0h-90v369q0 82 -87 82q-69 0 -130 -41v-410h-89v518q36 6 89 6v-51h5q68 59 154 59q66 0 107 -37t41 -122v-373zM128 584q15 73 38.5 96t64.5 23q25 0 51 -14l53 -29q18 -11 34 -11q17 0 25.5 11.5t15.5 50.5q33 0 66 -15q-15 -72 -38 -95.5t-63 -23.5q-27 0 -52 14
l-52 29q-22 12 -35 12q-18 0 -26.5 -11.5t-15.5 -50.5q-29 0 -66 14z" />
    <glyph glyph-name="ograve" unicode="&#xf2;" horiz-adv-x="569" 
d="M509 261q0 -131 -63 -201t-164 -70q-105 0 -163.5 66.5t-58.5 204.5q0 127 62 199t163 72q103 0 163.5 -65t60.5 -206zM413 261q0 104 -32.5 148.5t-95.5 44.5q-61 0 -94.5 -44t-33.5 -149q0 -106 31 -149.5t94 -43.5q65 0 98 44t33 149zM321 579q-28 -7 -70 -7
q-69 81 -96 159h93z" />
    <glyph glyph-name="oacute" unicode="&#xf3;" horiz-adv-x="569" 
d="M509 261q0 -131 -63 -201t-164 -70q-105 0 -163.5 66.5t-58.5 204.5q0 127 62 199t163 72q103 0 163.5 -65t60.5 -206zM413 261q0 104 -32.5 148.5t-95.5 44.5q-61 0 -94.5 -44t-33.5 -149q0 -106 31 -149.5t94 -43.5q65 0 98 44t33 149zM402 731q-28 -80 -97 -159
q-42 0 -69 7l72 152h94z" />
    <glyph glyph-name="ocircumflex" unicode="&#xf4;" horiz-adv-x="569" 
d="M509 261q0 -131 -63 -201t-164 -70q-105 0 -163.5 66.5t-58.5 204.5q0 127 62 199t163 72q103 0 163.5 -65t60.5 -206zM413 261q0 104 -32.5 148.5t-95.5 44.5q-61 0 -94.5 -44t-33.5 -149q0 -106 31 -149.5t94 -43.5q65 0 98 44t33 149zM436 578q-35 -6 -78 -6l-76 108
l-75 -108q-38 0 -76 5q45 82 96 154h113q57 -80 96 -153z" />
    <glyph glyph-name="otilde" unicode="&#xf5;" horiz-adv-x="569" 
d="M509 261q0 -131 -63 -201t-164 -70q-105 0 -163.5 66.5t-58.5 204.5q0 127 62 199t163 72q103 0 163.5 -65t60.5 -206zM413 261q0 104 -32.5 148.5t-95.5 44.5q-61 0 -94.5 -44t-33.5 -149q0 -106 31 -149.5t94 -43.5q65 0 98 44t33 149zM109 584q15 73 38.5 96t64.5 23
q25 0 51 -14l53 -29q18 -11 34 -11q17 0 25.5 11.5t15.5 50.5q33 0 66 -15q-15 -72 -38 -95.5t-63 -23.5q-27 0 -52 14l-52 29q-22 12 -35 12q-18 0 -26.5 -11.5t-15.5 -50.5q-29 0 -66 14z" />
    <glyph glyph-name="odieresis" unicode="&#xf6;" horiz-adv-x="569" 
d="M509 261q0 -131 -63 -201t-164 -70q-105 0 -163.5 66.5t-58.5 204.5q0 127 62 199t163 72q103 0 163.5 -65t60.5 -206zM413 261q0 104 -32.5 148.5t-95.5 44.5q-61 0 -94.5 -44t-33.5 -149q0 -106 31 -149.5t94 -43.5q65 0 98 44t33 149zM244 636q0 -23 -13.5 -38
t-37.5 -15q-23 0 -36.5 15t-13.5 38q0 24 13.5 39.5t37.5 15.5q23 0 36.5 -16t13.5 -39zM423 636q0 -23 -14 -38t-37 -15t-36.5 15t-13.5 38q0 24 13.5 39.5t37.5 15.5q23 0 36.5 -16t13.5 -39z" />
    <glyph glyph-name="divide" unicode="&#xf7;" horiz-adv-x="409" 
d="M256 86q0 -26 -14.5 -40t-37.5 -14t-37.5 14t-14.5 40t14.5 40.5t38.5 14.5q22 0 36.5 -14.5t14.5 -40.5zM256 459q0 -25 -14.5 -39t-37.5 -14t-37.5 14t-14.5 39q0 26 14.5 40.5t38.5 14.5q22 0 36.5 -14.5t14.5 -40.5zM346 244h-283v60h283v-60z" />
    <glyph glyph-name="oslash" unicode="&#xf8;" horiz-adv-x="569" 
d="M509 261q0 -131 -63 -201t-164 -70q-58 0 -105 21l-46 -86h-44l57 107q-84 65 -84 229q0 127 62 199t163 72q66 0 114 -26l44 83h44l-56 -105q78 -68 78 -223zM157 261q0 -104 30 -149l172 320q-29 23 -74 23q-61 0 -94.5 -44t-33.5 -150zM413 261q0 91 -27 139
l-170 -317q26 -16 66 -16q64 0 97.5 44.5t33.5 149.5z" />
    <glyph glyph-name="ugrave" unicode="&#xf9;" horiz-adv-x="584" 
d="M487 0h-90v45h-5q-71 -55 -152 -55q-66 0 -106.5 37t-40.5 121v371q50 6 90 6v-370q0 -84 89 -84q64 0 125 36v412q50 6 90 6v-525zM342 579q-28 -7 -70 -7q-69 81 -96 159h93z" />
    <glyph glyph-name="uacute" unicode="&#xfa;" horiz-adv-x="584" 
d="M487 0h-90v45h-5q-71 -55 -152 -55q-66 0 -106.5 37t-40.5 121v371q50 6 90 6v-370q0 -84 89 -84q64 0 125 36v412q50 6 90 6v-525zM423 731q-28 -80 -97 -159q-42 0 -69 7l72 152h94z" />
    <glyph glyph-name="ucircumflex" unicode="&#xfb;" horiz-adv-x="584" 
d="M487 0h-90v45h-5q-71 -55 -152 -55q-66 0 -106.5 37t-40.5 121v371q50 6 90 6v-370q0 -84 89 -84q64 0 125 36v412q50 6 90 6v-525zM443 578q-34 -6 -78 -6l-76 108l-75 -108q-38 0 -76 5q45 82 96 154h113q57 -80 96 -153z" />
    <glyph glyph-name="udieresis" unicode="&#xfc;" horiz-adv-x="584" 
d="M487 0h-90v45h-5q-71 -55 -152 -55q-66 0 -106.5 37t-40.5 121v371q50 6 90 6v-370q0 -84 89 -84q64 0 125 36v412q50 6 90 6v-525zM250 636q0 -23 -13.5 -38t-37.5 -15q-23 0 -36.5 15t-13.5 38q0 24 13.5 39.5t37.5 15.5q23 0 36.5 -16t13.5 -39zM429 636
q0 -23 -14 -38t-37 -15t-36.5 15t-13.5 38q0 24 13.5 39.5t37.5 15.5q23 0 36.5 -16t13.5 -39z" />
    <glyph glyph-name="yacute" unicode="&#xfd;" horiz-adv-x="513" 
d="M487 518l-171 -502q-41 -121 -94 -176.5t-123 -55.5q-56 0 -92 19q5 47 18 83q35 -15 79 -15q57 0 86 66l27 63q-112 260 -179 518q44 7 88 7l117 -369q10 -29 17 -62h4q6 31 16 63l119 368q53 0 88 -7zM384 731q-28 -80 -97 -159q-42 0 -69 7l72 152h94z" />
    <glyph glyph-name="thorn" unicode="&#xfe;" horiz-adv-x="577" 
d="M517 277q0 -145 -60 -216t-170 -71q-49 0 -101 18v-214h-89v943q42 7 89 7v-267h5q62 55 143 55q85 0 134 -63t49 -192zM421 267q0 106 -28.5 145t-87.5 39q-66 0 -119 -36v-324q43 -22 97 -22q72 0 105 45.5t33 152.5z" />
    <glyph glyph-name="ydieresis" unicode="&#xff;" horiz-adv-x="513" 
d="M487 518l-171 -502q-41 -121 -94 -176.5t-123 -55.5q-56 0 -92 19q5 47 18 83q35 -15 79 -15q57 0 86 66l27 63q-112 260 -179 518q44 7 88 7l117 -369q10 -29 17 -62h4q6 31 16 63l119 368q53 0 88 -7zM230 636q0 -23 -13.5 -38t-37.5 -15q-23 0 -36.5 15t-13.5 38
q0 24 13.5 39.5t37.5 15.5q23 0 36.5 -16t13.5 -39zM409 636q0 -23 -14 -38t-37 -15t-36.5 15t-13.5 38q0 24 13.5 39.5t37.5 15.5q23 0 36.5 -16t13.5 -39z" />
    <glyph glyph-name="dotlessi" unicode="&#x131;" horiz-adv-x="283" 
d="M186 0h-89v522h89v-522z" />
    <glyph glyph-name="Lslash" unicode="&#x141;" 
d="M478 87q0 -41 -8 -87h-370v304l-64 -22v84l64 22v286h98v-251l80 28q0 -48 -10 -87l-70 -25v-252h280z" />
    <glyph glyph-name="lslash" unicode="&#x142;" horiz-adv-x="283" 
d="M179 0h-90v320l-49 -16v84l49 16v333q42 7 90 7v-311l54 18q0 -43 -8 -86l-46 -15v-350z" />
    <glyph glyph-name="OE" unicode="&#x152;" horiz-adv-x="933" 
d="M879 86q0 -30 -8 -86h-364v72h-4q-56 -82 -173 -82q-269 0 -269 343q0 167 69.5 259t199.5 92q119 0 173 -78h4v68h356q0 -32 -8 -86h-271v-194h205v-85h-205v-223h295zM493 337q0 141 -38.5 202t-123.5 61q-87 0 -126 -60t-39 -203q0 -140 38 -201.5t129 -61.5
q88 0 124 61.5t36 201.5z" />
    <glyph glyph-name="oe" unicode="&#x153;" horiz-adv-x="868" 
d="M808 321q0 -41 -3 -76h-307v-12q0 -86 34 -122.5t112 -36.5q81 0 132 32q18 -46 23 -83q-61 -33 -158 -33q-134 0 -184 102q-57 -102 -175 -102q-106 0 -164 67t-58 204q0 126 61 198.5t164 72.5q124 0 172 -100q46 100 159 100q95 0 143.5 -56.5t48.5 -154.5zM717 307
q1 7 1 31q0 125 -104 125q-55 0 -83 -37t-32 -119h218zM413 261q0 102 -32 148t-96 46q-62 0 -95 -44.5t-33 -149.5t30.5 -150.5t94.5 -45.5q65 0 98 46t33 150z" />
    <glyph glyph-name="Scaron" unicode="&#x160;" horiz-adv-x="523" 
d="M429 812q-54 -76 -80 -104h-129q-38 43 -79 103q31 6 78 6l66 -74l67 74q40 0 77 -5zM469 183q0 -89 -60.5 -141t-164.5 -52q-108 0 -181 31q6 43 22 86q76 -33 168 -33q117 0 117 100q0 39 -31.5 69t-76.5 51t-90 45t-76.5 63.5t-31.5 93.5q0 89 64 138.5t168 49.5
q79 0 142 -15q-2 -45 -15 -87q-67 18 -141 18q-119 0 -119 -95q0 -35 31.5 -62t76.5 -48.5t90 -46t76.5 -66.5t31.5 -99z" />
    <glyph glyph-name="scaron" unicode="&#x161;" horiz-adv-x="452" 
d="M97 727q34 7 78 7l76 -108l76 108q40 0 76 -6q-39 -72 -97 -153h-112q-55 74 -97 152zM398 145q0 -77 -55 -116t-138 -39q-91 0 -152 33q14 57 23 81q62 -32 147 -32q81 0 81 68q0 28 -25 47.5t-60.5 33t-71 29t-60.5 46.5t-25 76q0 76 55.5 118t140.5 42q69 0 122 -15
q-1 -32 -13 -83q-59 19 -133 19q-80 0 -80 -70q0 -18 13.5 -32t35 -24t47.5 -20t52 -23t47.5 -30t35 -45t13.5 -64z" />
    <glyph glyph-name="Ydieresis" unicode="&#x178;" horiz-adv-x="550" 
d="M529 669q-99 -222 -206 -415v-254h-97v254q-102 178 -205 415q46 8 101 8l133 -281q9 -19 20 -52h7q12 36 20 54l133 279q48 0 94 -8zM237 758q0 -21 -13.5 -34t-36.5 -13q-22 0 -35 13.5t-13 33.5t13 33.5t36 13.5q22 0 35.5 -13t13.5 -34zM416 758q0 -21 -13.5 -34
t-35.5 -13t-35 13.5t-13 33.5t13 33.5t35 13.5t35.5 -13t13.5 -34z" />
    <glyph glyph-name="Zcaron" unicode="&#x17d;" horiz-adv-x="555" 
d="M508 86q0 -42 -7 -86h-448l-6 76l341 512h-321q-6 44 -6 86h435l7 -76l-342 -512h347zM427 812q-54 -76 -80 -104h-129q-38 43 -79 103q32 6 78 6l66 -74l67 74q40 0 77 -5z" />
    <glyph glyph-name="zcaron" unicode="&#x17e;" horiz-adv-x="475" 
d="M429 0h-383l-9 73l278 371h-251q-6 39 -6 78h354l9 -73l-277 -371h275q8 -32 10 -78zM82 727q34 7 78 7l76 -108l76 108q40 0 76 -6q-39 -72 -97 -153h-112q-55 74 -97 152z" />
    <glyph glyph-name="florin" unicode="&#x192;" 
d="M418 680q0 -40 -6 -81q-20 4 -49 4q-39 0 -62.5 -24t-23.5 -68v-118h161q0 -33 -7 -77h-154v-448h-88v448h-135v77h135v111q0 82 50.5 131t125.5 49q27 0 53 -4z" />
    <glyph glyph-name="circumflex" unicode="&#x2c6;" 
d="M404 578q-35 -6 -78 -6l-76 108l-75 -108q-38 0 -76 5q45 82 96 154h113q57 -80 96 -153z" />
    <glyph glyph-name="caron" unicode="&#x2c7;" 
d="M97 727q34 7 78 7l76 -108l76 108q40 0 76 -6q-39 -72 -97 -153h-112q-55 74 -97 152z" />
    <glyph glyph-name="breve" unicode="&#x2d8;" 
d="M427 708q-41 -138 -178 -138q-134 0 -174 138q29 12 72 21q25 -88 104 -88q81 0 107 88q40 -8 69 -21z" />
    <glyph glyph-name="dotaccent" unicode="&#x2d9;" 
d="M303 636q0 -24 -14 -39.5t-40 -15.5q-25 0 -38.5 15.5t-13.5 39.5t13.5 40t39.5 16q25 0 39 -16t14 -40z" />
    <glyph glyph-name="ring" unicode="&#x2da;" 
d="M366 669q0 -44 -31 -71.5t-84 -27.5q-58 0 -87.5 26.5t-29.5 72.5q0 45 31 73t86 28q57 0 86 -26.5t29 -74.5zM300 671q0 51 -49 51q-23 0 -37 -13t-14 -38q0 -54 49 -54q51 0 51 54z" />
    <glyph glyph-name="ogonek" unicode="&#x2db;" 
d="M373 20q-88 -42 -118 -71.5t-30 -63.5q0 -48 54 -48q21 0 53 7q-2 -28 -9 -54q-32 -7 -64 -7q-49 0 -77.5 22t-28.5 69q0 48 40.5 84.5t141.5 76.5z" />
    <glyph glyph-name="tilde" unicode="&#x2dc;" 
d="M76 584q15 73 38.5 96t64.5 23q25 0 51 -14l53 -29q18 -11 34 -11q17 0 25.5 11.5t15.5 50.5q33 0 66 -15q-15 -72 -38 -95.5t-63 -23.5q-27 0 -52 14l-52 29q-22 12 -35 12q-18 0 -26.5 -11.5t-15.5 -50.5q-29 0 -66 14z" />
    <glyph glyph-name="hungarumlaut" unicode="&#x2dd;" 
d="M268 731q-28 -80 -94 -159q-39 0 -66 7l70 152h90zM412 731q-30 -83 -94 -159q-39 0 -66 7l69 152h91z" />
    <glyph glyph-name="pi" unicode="&#x3c0;" horiz-adv-x="644" 
d="M625 8q-39 -18 -89 -18q-124 0 -124 133v312h-197v-435h-87v435h-95v87h587q0 -26 -7 -87h-114v-306q0 -32 11.5 -45t38.5 -13q35 0 65 16q11 -42 11 -79z" />
    <glyph glyph-name="endash" unicode="&#x2013;" 
d="M444 231h-389v69h398q0 -39 -9 -69z" />
    <glyph glyph-name="emdash" unicode="&#x2014;" horiz-adv-x="1000" 
d="M929 231h-861v69h869q0 -39 -8 -69z" />
    <glyph glyph-name="quoteleft" unicode="&#x2018;" horiz-adv-x="229" 
d="M40 522q0 147 118 202q19 -22 31 -52q-82 -36 -82 -122h40q12 -48 12 -102h-119v74z" />
    <glyph glyph-name="quoteright" unicode="&#x2019;" horiz-adv-x="229" 
d="M188 639q0 -147 -118 -202q-20 23 -30 51q81 37 81 123h-39q-13 46 -13 102h119v-74z" />
    <glyph glyph-name="quotesinglbase" unicode="&#x201a;" horiz-adv-x="229" 
d="M188 92q0 -147 -118 -202q-20 23 -30 52q80 34 80 120h-39q-13 46 -13 104h120v-74z" />
    <glyph glyph-name="quotedblleft" unicode="&#x201c;" horiz-adv-x="416" 
d="M40 522q0 147 118 202q19 -22 31 -52q-82 -36 -82 -122h40q12 -48 12 -102h-119v74zM228 522q0 147 118 202q20 -23 30 -52q-81 -36 -81 -122h39q13 -42 13 -102h-119v74z" />
    <glyph glyph-name="quotedblright" unicode="&#x201d;" horiz-adv-x="416" 
d="M188 639q0 -147 -118 -202q-20 23 -30 51q81 37 81 123h-39q-13 46 -13 102h119v-74zM376 639q0 -147 -118 -202q-21 26 -30 51q81 38 81 123h-39q-12 43 -12 102h118v-74z" />
    <glyph glyph-name="quotedblbase" unicode="&#x201e;" horiz-adv-x="416" 
d="M188 92q0 -147 -118 -202q-20 23 -30 52q80 34 80 120h-39q-13 46 -13 104h120v-74zM377 92q0 -148 -119 -202q-21 26 -30 52q80 35 80 120h-39q-12 43 -12 104h120v-74z" />
    <glyph glyph-name="dagger" unicode="&#x2020;" horiz-adv-x="523" 
d="M475 281h-170v-410q-37 -9 -88 -9v419h-169v84h169v180h88v-180h170v-84z" />
    <glyph glyph-name="daggerdbl" unicode="&#x2021;" horiz-adv-x="523" 
d="M475 49h-170v-178q-37 -9 -88 -9v187h-169v84h169v152h-169v84h169v176h88v-176h170v-84h-170v-152h170v-84z" />
    <glyph glyph-name="bullet" unicode="&#x2022;" horiz-adv-x="352" 
d="M277 276q0 -46 -29 -74t-73 -28t-72 28t-28 74q0 48 28 77t72 29t73 -29.5t29 -76.5z" />
    <glyph glyph-name="ellipsis" unicode="&#x2026;" horiz-adv-x="647" 
d="M159 41q0 -25 -14.5 -39t-37.5 -14q-24 0 -38.5 13.5t-14.5 39.5t15 40.5t38 14.5t37.5 -15t14.5 -40zM376 41q0 -25 -14.5 -39t-37.5 -14q-24 0 -38.5 13.5t-14.5 39.5t14.5 40.5t38.5 14.5q23 0 37.5 -14.5t14.5 -40.5zM593 41q0 -25 -14.5 -39t-37.5 -14
q-24 0 -38.5 13.5t-14.5 39.5t14.5 40.5t38.5 14.5q23 0 37.5 -14.5t14.5 -40.5z" />
    <glyph glyph-name="perthousand" unicode="&#x2030;" horiz-adv-x="1163" 
d="M346 494q0 -90 -40.5 -140t-113.5 -50t-115 47t-42 143q0 92 43 141t114 49q74 0 114 -47.5t40 -142.5zM271 494q0 65 -17.5 97.5t-61.5 32.5q-81 0 -81 -130q0 -67 19 -98.5t62 -31.5t61 32t18 98zM573 671l-270 -681q-33 6 -63 21l264 670q29 0 69 -10zM772 180
q0 -90 -40.5 -140t-113.5 -50t-115 47t-42 143q0 92 43 141t114 49q74 0 114 -47.5t40 -142.5zM697 180q0 65 -17.5 97.5t-61.5 32.5q-81 0 -81 -130q0 -67 19 -98.5t62 -31.5t61 32t18 98zM1128 180q0 -90 -40.5 -140t-113.5 -50t-115 47t-42 143q0 92 43 141t114 49
q74 0 114 -47.5t40 -142.5zM1053 180q0 65 -17.5 97.5t-61.5 32.5q-81 0 -81 -130q0 -67 19 -98.5t62 -31.5t61 32t18 98z" />
    <glyph glyph-name="guilsinglleft" unicode="&#x2039;" horiz-adv-x="272" 
d="M242 56l-73 -13l-139 220l139 220l73 -14l-122 -207z" />
    <glyph glyph-name="guilsinglright" unicode="&#x203a;" horiz-adv-x="272" 
d="M242 263l-139 -220l-73 14l122 207l-122 206l73 13z" />
    <glyph glyph-name="fraction" unicode="&#x2044;" horiz-adv-x="161" 
d="M247 672l-274 -681q-31 5 -59 20l270 673q37 -2 63 -12z" />
    <glyph glyph-name="zerosuperior" unicode="&#x2070;" horiz-adv-x="343" 
d="M322 615q0 -97 -38.5 -149t-110.5 -52q-152 0 -152 201q0 103 40 151.5t110 48.5q151 0 151 -200zM250 615q0 73 -17 104t-61 31q-43 0 -61 -31t-18 -104q0 -75 18 -105.5t62 -30.5q41 0 59 32.5t18 103.5z" />
    <glyph glyph-name="foursuperior" unicode="&#x2074;" horiz-adv-x="343" 
d="M329 558q0 -38 -6 -62h-48v-82h-65v82h-191v64q62 119 161 248q37 0 63 -10l-157 -242h125v85h64v-83h54z" />
    <glyph glyph-name="fivesuperior" unicode="&#x2075;" horiz-adv-x="343" 
d="M302 538q0 -59 -39.5 -91.5t-112.5 -32.5q-56 0 -104 16q2 40 11 66q43 -16 91 -16q45 0 63 14t18 45q0 33 -24.5 46.5t-79.5 13.5q-38 0 -74 -2q3 115 19 211h223q0 -36 -5 -64h-162l-8 -87q90 0 137 -26t47 -93z" />
    <glyph glyph-name="sixsuperior" unicode="&#x2076;" horiz-adv-x="343" 
d="M309 549q0 -64 -36.5 -99.5t-96.5 -35.5q-70 0 -105.5 42t-35.5 137q0 109 45 165.5t127 56.5q51 0 81 -8q-3 -46 -9 -65q-26 8 -69 8q-53 0 -77.5 -29.5t-28.5 -95.5h3q29 42 83 42q51 0 85 -29t34 -89zM240 548q0 65 -65 65q-68 0 -68 -69q0 -73 67 -73q66 0 66 77z
" />
    <glyph glyph-name="sevensuperior" unicode="&#x2077;" horiz-adv-x="343" 
d="M311 748q-69 -139 -190 -334q-43 2 -70 11l187 319h-200q-6 26 -6 64h279v-60z" />
    <glyph glyph-name="eightsuperior" unicode="&#x2078;" horiz-adv-x="343" 
d="M311 524q0 -53 -37.5 -81.5t-106.5 -28.5q-135 0 -135 105q0 67 79 99q-69 28 -69 93q0 50 34.5 77t96.5 27q129 0 129 -97q0 -62 -75 -91q84 -32 84 -103zM233 713q0 46 -63 46q-60 0 -60 -48q0 -49 65 -62q58 16 58 64zM240 528q0 27 -17.5 43.5t-57.5 26.5
q-62 -17 -62 -71q0 -29 15.5 -43t51.5 -14q70 0 70 58z" />
    <glyph glyph-name="ninesuperior" unicode="&#x2079;" horiz-adv-x="343" 
d="M35 680q0 64 36.5 99.5t96.5 35.5q69 0 105 -42.5t36 -136.5q0 -109 -45 -165.5t-127 -56.5q-50 0 -82 8q2 40 9 65q27 -8 69 -8q53 0 78 30t29 95h-4q-29 -42 -82 -42q-51 0 -85 29t-34 89zM103 681q0 -65 66 -65q67 0 67 69q0 73 -66 73q-35 0 -51 -18.5t-16 -58.5z
" />
    <glyph glyph-name="zeroinferior" unicode="&#x2080;" horiz-adv-x="343" 
d="M322 -12q0 -97 -38.5 -149t-110.5 -52q-152 0 -152 201q0 103 40 151.5t110 48.5q151 0 151 -200zM250 -12q0 72 -17 103.5t-61 31.5q-43 0 -61 -31t-18 -104q0 -75 18 -105.5t62 -30.5q41 0 59 32.5t18 103.5z" />
    <glyph glyph-name="oneinferior" unicode="&#x2081;" horiz-adv-x="343" 
d="M320 -141q0 -38 -6 -65h-271v65h123v257l-114 -19q-8 26 -8 60l128 24h62v-322h86z" />
    <glyph glyph-name="twoinferior" unicode="&#x2082;" horiz-adv-x="343" 
d="M310 -141q0 -32 -5 -65h-266l-3 56q100 68 139.5 114.5t39.5 91.5q0 66 -75 66q-57 0 -89 -17q-8 23 -11 65q45 18 110 18t103 -32t38 -95q0 -99 -151 -202h170z" />
    <glyph glyph-name="threeinferior" unicode="&#x2083;" horiz-adv-x="343" 
d="M297 -96q0 -58 -43.5 -87.5t-119.5 -29.5q-61 0 -104 17q2 38 11 66q44 -18 92 -18q45 0 67.5 11.5t22.5 42.5q0 33 -20.5 44.5t-63.5 11.5h-65v62h64q42 0 59.5 13t17.5 40q0 46 -79 46q-47 0 -84 -14q-8 22 -10 64q46 15 106 15q63 0 101.5 -24t38.5 -75q0 -68 -67 -89
v-3q76 -19 76 -93z" />
    <glyph glyph-name="fourinferior" unicode="&#x2084;" horiz-adv-x="343" 
d="M329 -62q0 -38 -6 -62h-48v-82h-65v82h-191v64q62 119 161 248q37 0 63 -10l-157 -242h125v85h64v-83h54z" />
    <glyph glyph-name="fiveinferior" unicode="&#x2085;" horiz-adv-x="343" 
d="M302 -89q0 -59 -39.5 -91.5t-112.5 -32.5q-56 0 -104 16q2 40 11 66q43 -16 91 -16q45 0 63 14t18 45q0 33 -24.5 46.5t-79.5 13.5q-38 0 -74 -2q3 115 19 211h223q0 -36 -5 -64h-162l-8 -87q90 0 137 -26t47 -93z" />
    <glyph glyph-name="sixinferior" unicode="&#x2086;" horiz-adv-x="343" 
d="M309 -78q0 -64 -36.5 -99.5t-96.5 -35.5q-70 0 -105.5 42t-35.5 137q0 109 45 165.5t127 56.5q51 0 81 -8q-3 -46 -9 -65q-26 8 -69 8q-53 0 -77.5 -29.5t-28.5 -95.5h3q29 42 83 42q51 0 85 -29t34 -89zM240 -79q0 65 -65 65q-68 0 -68 -69q0 -73 67 -73q66 0 66 77z
" />
    <glyph glyph-name="seveninferior" unicode="&#x2087;" horiz-adv-x="343" 
d="M311 121q-69 -139 -190 -334q-43 2 -70 11l187 319h-200q-6 25 -6 64h279v-60z" />
    <glyph glyph-name="eightinferior" unicode="&#x2088;" horiz-adv-x="343" 
d="M311 -103q0 -53 -37.5 -81.5t-106.5 -28.5q-135 0 -135 105q0 67 79 99q-69 28 -69 93q0 50 34.5 77t96.5 27q129 0 129 -97q0 -62 -75 -91q84 -32 84 -103zM233 86q0 46 -63 46q-60 0 -60 -48q0 -49 65 -62q58 16 58 64zM240 -99q0 27 -17.5 43.5t-57.5 26.5
q-62 -17 -62 -71q0 -29 15.5 -43t51.5 -14q70 0 70 58z" />
    <glyph glyph-name="nineinferior" unicode="&#x2089;" horiz-adv-x="343" 
d="M35 53q0 64 36.5 99.5t96.5 35.5q69 0 105 -42.5t36 -136.5q0 -109 -45 -165.5t-127 -56.5q-50 0 -82 8q2 40 9 65q27 -8 69 -8q53 0 78 30t29 95h-4q-29 -42 -82 -42q-51 0 -85 29t-34 89zM103 54q0 -65 66 -65q67 0 67 69q0 73 -66 73q-35 0 -51 -18.5t-16 -58.5z" />
    <glyph glyph-name="Euro" unicode="&#x20ac;" 
d="M392 229h-202q10 -81 43.5 -118t95.5 -37q73 0 126 32q9 -41 12 -88q-56 -28 -139 -28q-200 0 -233 239h-62v62h56q-1 15 -1 47q0 34 1 50h-56v62h63q20 120 80 177t150 57q82 0 129 -19q0 -37 -11 -88q-52 22 -116 22q-58 0 -91.5 -34t-45.5 -115h228q0 -28 -8 -62h-226
q-1 -16 -1 -52v-45h216q0 -27 -8 -62z" />
    <glyph glyph-name="trademark" unicode="&#x2122;" horiz-adv-x="770" 
d="M718 327q-32 -4 -60 -4l-19 221q-2 16 -2 35h-5q-1 -13 -8 -32l-82 -222h-64l-82 222q-6 15 -8 32h-5q0 -15 -2 -35l-23 -221q-30 0 -54 4q9 138 38 347h70l91 -246q5 -16 8 -31h5q3 15 8 31l89 246h69q23 -165 36 -347zM280 674q0 -36 -5 -58h-91v-291h-65v291h-94v58
h255z" />
    <glyph glyph-name="Omega" unicode="&#x2126;" horiz-adv-x="669" 
d="M615 0h-250l-4 71q66 26 105.5 101.5t39.5 203.5q0 119 -42.5 169.5t-129.5 50.5q-86 0 -128.5 -51t-42.5 -171q0 -121 39 -200t106 -103l-3 -71h-251v85h136v6q-59 41 -92 116t-33 175q0 146 69.5 224t200.5 78q132 0 200.5 -78t68.5 -223q0 -203 -125 -292v-6h136v-85z
" />
    <glyph glyph-name="onethird" unicode="&#x2153;" horiz-adv-x="846" 
d="M320 352q0 -38 -6 -65h-271v65h123v257l-114 -19q-8 26 -8 60l128 24h62v-322h86zM590 672l-274 -681q-31 5 -59 20l270 673q37 -2 63 -12zM800 110q0 -58 -43.5 -87.5t-119.5 -29.5q-61 0 -104 17q2 38 11 66q44 -18 92 -18q45 0 67.5 11.5t22.5 42.5q0 33 -20.5 44.5
t-63.5 11.5h-65v62h64q42 0 59.5 13t17.5 40q0 46 -79 46q-47 0 -84 -14q-8 22 -10 64q46 15 106 15q63 0 101.5 -24t38.5 -75q0 -68 -67 -89v-3q76 -19 76 -93z" />
    <glyph glyph-name="twothirds" unicode="&#x2154;" horiz-adv-x="846" 
d="M310 352q0 -32 -5 -65h-266l-3 56q100 68 139.5 114.5t39.5 91.5q0 66 -75 66q-57 0 -89 -17q-8 23 -11 65q45 18 110 18t103 -32t38 -95q0 -99 -151 -202h170zM590 672l-274 -681q-31 5 -59 20l270 673q37 -2 63 -12zM800 110q0 -58 -43.5 -87.5t-119.5 -29.5
q-61 0 -104 17q2 38 11 66q44 -18 92 -18q45 0 67.5 11.5t22.5 42.5q0 33 -20.5 44.5t-63.5 11.5h-65v62h64q42 0 59.5 13t17.5 40q0 46 -79 46q-47 0 -84 -14q-8 22 -10 64q46 15 106 15q63 0 101.5 -24t38.5 -75q0 -68 -67 -89v-3q76 -19 76 -93z" />
    <glyph glyph-name="oneeighth" unicode="&#x215b;" horiz-adv-x="846" 
d="M320 352q0 -38 -6 -65h-271v65h123v257l-114 -19q-8 26 -8 60l128 24h62v-322h86zM590 672l-274 -681q-31 5 -59 20l270 673q37 -2 63 -12zM814 103q0 -53 -37 -81.5t-107 -28.5q-135 0 -135 105q0 67 79 99q-69 28 -69 93q0 50 34.5 77t96.5 27q129 0 129 -97
q0 -62 -75 -91q84 -32 84 -103zM736 292q0 46 -63 46q-60 0 -60 -48q0 -49 65 -62q58 16 58 64zM743 107q0 27 -17.5 43.5t-57.5 26.5q-62 -17 -62 -71q0 -29 15 -43t52 -14q70 0 70 58z" />
    <glyph glyph-name="threeeighths" unicode="&#x215c;" horiz-adv-x="846" 
d="M297 397q0 -58 -43.5 -87.5t-119.5 -29.5q-61 0 -104 17q2 38 11 66q44 -18 92 -18q45 0 67.5 11.5t22.5 42.5q0 33 -20.5 44.5t-63.5 11.5h-65v62h64q42 0 59.5 13t17.5 40q0 46 -79 46q-47 0 -84 -14q-8 22 -10 64q46 15 106 15q63 0 101.5 -24t38.5 -75q0 -68 -67 -89
v-3q76 -19 76 -93zM590 672l-274 -681q-31 5 -59 20l270 673q37 -2 63 -12zM814 103q0 -53 -37 -81.5t-107 -28.5q-135 0 -135 105q0 67 79 99q-69 28 -69 93q0 50 34.5 77t96.5 27q129 0 129 -97q0 -62 -75 -91q84 -32 84 -103zM736 292q0 46 -63 46q-60 0 -60 -48
q0 -49 65 -62q58 16 58 64zM743 107q0 27 -17.5 43.5t-57.5 26.5q-62 -17 -62 -71q0 -29 15 -43t52 -14q70 0 70 58z" />
    <glyph glyph-name="fiveeighths" unicode="&#x215d;" horiz-adv-x="846" 
d="M302 404q0 -59 -39.5 -91.5t-112.5 -32.5q-56 0 -104 16q2 40 11 66q43 -16 91 -16q45 0 63 14t18 45q0 33 -24.5 46.5t-79.5 13.5q-38 0 -74 -2q3 115 19 211h223q0 -36 -5 -64h-162l-8 -87q90 0 137 -26t47 -93zM590 672l-274 -681q-31 5 -59 20l270 673q37 -2 63 -12z
M814 103q0 -53 -37 -81.5t-107 -28.5q-135 0 -135 105q0 67 79 99q-69 28 -69 93q0 50 34.5 77t96.5 27q129 0 129 -97q0 -62 -75 -91q84 -32 84 -103zM736 292q0 46 -63 46q-60 0 -60 -48q0 -49 65 -62q58 16 58 64zM743 107q0 27 -17.5 43.5t-57.5 26.5q-62 -17 -62 -71
q0 -29 15 -43t52 -14q70 0 70 58z" />
    <glyph glyph-name="seveneighths" unicode="&#x215e;" horiz-adv-x="826" 
d="M311 614q-69 -139 -190 -334q-43 2 -70 11l187 319h-200q-6 26 -6 64h279v-60zM570 672l-274 -681q-31 5 -59 20l270 673q37 -2 63 -12zM794 103q0 -53 -37 -81.5t-107 -28.5q-135 0 -135 105q0 67 79 99q-69 28 -69 93q0 50 34.5 77t96.5 27q129 0 129 -97
q0 -62 -75 -91q84 -32 84 -103zM716 292q0 46 -63 46q-60 0 -60 -48q0 -49 65 -62q58 16 58 64zM723 107q0 27 -17.5 43.5t-57.5 26.5q-62 -17 -62 -71q0 -29 15 -43t52 -14q70 0 70 58z" />
    <glyph glyph-name="arrowleft" unicode="&#x2190;" horiz-adv-x="794" 
d="M734 296h-460q-54 0 -105 4v-4l156 -138q-31 -37 -56 -54q-108 91 -209 195v75q101 104 209 195q25 -18 56 -55l-156 -137v-4q76 4 105 4h460v-81z" />
    <glyph glyph-name="arrowup" unicode="&#x2191;" horiz-adv-x="588" 
d="M528 465q-18 -25 -55 -56l-137 156h-4q4 -76 4 -105v-460h-84v460q0 54 4 105h-4l-138 -156q-40 35 -54 56q91 108 195 209h78q104 -101 195 -209z" />
    <glyph glyph-name="arrowright" unicode="&#x2192;" horiz-adv-x="794" 
d="M734 299q-101 -104 -209 -195q-27 19 -56 54l156 138v4q-51 -4 -105 -4h-460v81h460q29 0 105 -4v4l-156 137q30 35 56 55q108 -91 209 -195v-75z" />
    <glyph glyph-name="arrowdown" unicode="&#x2193;" horiz-adv-x="588" 
d="M528 209q-91 -108 -195 -209h-78q-104 101 -195 209q16 22 54 56l138 -156h4q-4 51 -4 105v460h84v-460q0 -29 -4 -105h4l137 156q35 -30 55 -56z" />
    <glyph glyph-name="partialdiff" unicode="&#x2202;" horiz-adv-x="545" 
d="M497 365q0 -190 -55.5 -282.5t-170.5 -92.5q-109 0 -166 61t-57 197q0 133 63 202.5t170 69.5q64 0 114 -17q-7 88 -48.5 124.5t-121.5 36.5q-73 0 -134 -26q0 48 7 83q54 23 136 23q61 0 105.5 -16t81.5 -56t56.5 -117t19.5 -190zM403 328q0 42 -2 96q-49 19 -112 19
q-145 0 -145 -187q0 -104 28.5 -145.5t97.5 -41.5q70 0 101.5 55.5t31.5 203.5z" />
    <glyph glyph-name="Delta" unicode="&#x2206;" horiz-adv-x="573" 
d="M561 0h-549q92 311 224 674h104q119 -337 221 -674zM437 81l-142 450q-8 21 -8 48h-7q0 -29 -7 -48l-144 -450h308z" />
    <glyph glyph-name="product" unicode="&#x220f;" horiz-adv-x="698" 
d="M595 0h-98v583h-296v-583h-98v674h492v-674z" />
    <glyph glyph-name="summation" unicode="&#x2211;" horiz-adv-x="569" 
d="M160 85h324q0 -35 -8 -85h-438v79l263 271l-244 246v78h410q0 -35 -7 -86h-277l203 -208v-65z" />
    <glyph glyph-name="minus" unicode="&#x2212;" horiz-adv-x="501" 
d="M427 236h-353v72h353v-72z" />
    <glyph glyph-name="radical" unicode="&#x221a;" horiz-adv-x="523" 
d="M525 674q0 -43 -7 -79h-97l-78 -595h-89q-126 256 -235 530q40 9 85 9l164 -368q12 -25 20 -55h7q0 28 4 60l58 498h168z" />
    <glyph glyph-name="infinity" unicode="&#x221e;" horiz-adv-x="884" 
d="M241 49q-90 0 -140.5 57.5t-50.5 160.5q0 93 49.5 151t144.5 58q119 0 198 -132q45 72 93 102t110 30q89 0 139 -57.5t50 -156.5q0 -97 -50 -155t-139 -58q-123 0 -204 130q-77 -130 -200 -130zM643 126q53 0 80 36.5t27 102.5t-29.5 99.5t-81.5 33.5q-53 0 -91 -32
t-72 -103q65 -137 167 -137zM250 126q101 0 157 136q-64 136 -159 136q-114 0 -114 -136q0 -66 27 -101t89 -35z" />
    <glyph glyph-name="integral" unicode="&#x222b;" horiz-adv-x="315" 
d="M318 740q0 -42 -6 -81q-15 3 -50 3q-68 0 -68 -83v-625q0 -76 -46 -123t-115 -47q-24 0 -52 4q0 42 6 81q15 -3 50 -3q67 0 67 83v625q0 77 46 123.5t116 46.5q24 0 52 -4z" />
    <glyph glyph-name="approxequal" unicode="&#x2248;" horiz-adv-x="496" 
d="M438 346q-41 -36 -88 -36q-34 0 -97.5 21.5t-96.5 21.5q-54 0 -98 -41v67q44 41 98 41q33 0 96 -21t97 -21q46 0 89 36v-68zM438 157q-40 -35 -88 -35q-34 0 -97.5 21.5t-96.5 21.5q-52 0 -98 -41v66q44 41 98 41q33 0 96 -21t97 -21q44 0 89 36v-68z" />
    <glyph glyph-name="notequal" unicode="&#x2260;" horiz-adv-x="491" 
d="M427 147h-240l-76 -115h-47l76 115h-76v67h120l82 122h-202v67h246l68 104h49l-68 -104h68v-67h-113l-82 -122h195v-67z" />
    <glyph glyph-name="lessequal" unicode="&#x2264;" horiz-adv-x="445" 
d="M363 150h-93l-191 175l191 175h92v-9l-190 -162l191 -170v-9zM385 45h-325v66h325v-66z" />
    <glyph glyph-name="greaterequal" unicode="&#x2265;" horiz-adv-x="445" 
d="M174 500l192 -175l-192 -175h-91v9l189 164l-190 168v9h92zM385 45h-325v66h325v-66z" />
    <glyph glyph-name="lozenge" unicode="&#x25ca;" horiz-adv-x="460" 
d="M416 235q-64 -122 -147 -245h-78q-78 117 -147 245v62q69 132 147 248h78q84 -120 147 -248v-62zM347 267l-117 204l-116 -202l118 -205z" />
    <glyph glyph-name="Lslashsmall" unicode="&#xf6f9;" horiz-adv-x="449" 
d="M421 83q0 -47 -8 -83h-314v242l-48 -15v83l48 15v220h94v-190l59 19q0 -38 -9 -87l-50 -16v-188h228z" />
    <glyph glyph-name="OEsmall" unicode="&#xf6fa;" horiz-adv-x="818" 
d="M758 79q0 -43 -8 -79h-312v51h-4q-49 -61 -139 -61q-112 0 -173 69t-61 211q0 141 61.5 213t172.5 72q87 0 139 -58h4v48h307q0 -39 -6 -79h-223v-147h166v-79h-166v-161h242zM428 272q0 112 -30.5 158t-101.5 46q-75 0 -105.5 -45t-30.5 -159q0 -111 30 -157t106 -46
t104 45t28 158z" />
    <glyph glyph-name="Scaronsmall" unicode="&#xf6fd;" horiz-adv-x="463" 
d="M107 709q40 7 78 7l70 -90l70 90q28 0 76 -6q-53 -84 -93 -131h-109q-49 59 -92 130zM406 150q0 -74 -51 -117t-140 -43q-97 0 -157 26q7 46 20 82q63 -27 141 -27q93 0 93 72q0 30 -26.5 52t-64 38t-74.5 34.5t-63.5 52t-26.5 79.5q0 73 55 114.5t144 41.5q71 0 124 -13
q-4 -46 -14 -83q-62 15 -118 15q-54 0 -74.5 -17t-20.5 -50q0 -27 26 -47t63.5 -35.5t74.5 -34.5t63 -54.5t26 -85.5z" />
    <glyph glyph-name="Zcaronsmall" unicode="&#xf6ff;" horiz-adv-x="502" 
d="M446 81q0 -48 -6 -81h-381l-6 70l276 394h-258q-6 37 -6 81h370l6 -72l-275 -392h280zM108 709q40 7 78 7l70 -90l70 90q28 0 76 -6q-53 -84 -93 -131h-109q-49 59 -92 130z" />
    <glyph glyph-name="Asmall" unicode="&#xf761;" horiz-adv-x="498" 
d="M486 5q-31 -7 -91 -9l-53 160h-194l-52 -160q-58 2 -84 10q78 259 186 539h103q97 -256 185 -540zM320 229l-63 192q-5 14 -9 44h-6q-3 -27 -9 -44l-63 -192h150z" />
    <glyph glyph-name="Bsmall" unicode="&#xf762;" horiz-adv-x="532" 
d="M471 156q0 -83 -55 -123.5t-146 -40.5q-75 0 -171 11v538q90 11 167 11q184 0 184 -145q0 -85 -73 -118v-5q94 -25 94 -128zM377 161q0 85 -102 85h-88v-176q36 -5 78 -5q112 0 112 96zM361 400q0 80 -99 80q-32 0 -75 -5v-161h83q91 0 91 86z" />
    <glyph glyph-name="Csmall" unicode="&#xf763;" horiz-adv-x="504" 
d="M462 26q-60 -36 -155 -36q-120 0 -183 72t-63 211q0 141 67 211.5t178 70.5q92 0 144 -26q-1 -34 -16 -83q-56 28 -124 28q-78 0 -114 -45.5t-36 -156.5q0 -107 34.5 -154t115.5 -47q76 0 136 35q11 -32 16 -80z" />
    <glyph glyph-name="Dsmall" unicode="&#xf764;" horiz-adv-x="603" 
d="M542 284q0 -141 -68.5 -216.5t-181.5 -75.5t-193 11v538q88 11 193 11q113 0 181.5 -66t68.5 -202zM444 277q0 196 -160 196q-38 0 -91 -5v-391q48 -5 90 -5q82 0 121.5 50t39.5 155z" />
    <glyph glyph-name="Esmall" unicode="&#xf765;" horiz-adv-x="495" 
d="M435 79q0 -43 -8 -79h-328v545h323q0 -39 -6 -79h-223v-147h166v-79h-166v-161h242z" />
    <glyph glyph-name="Fsmall" unicode="&#xf766;" horiz-adv-x="475" 
d="M425 545q0 -43 -6 -79h-226v-162h185v-79h-185v-225h-94v545h326z" />
    <glyph glyph-name="Gsmall" unicode="&#xf767;" horiz-adv-x="568" 
d="M485 25q-68 -35 -170 -35q-126 0 -190 72t-64 211q0 142 69.5 212t189.5 70q94 0 154 -25q-5 -46 -18 -84q-59 28 -131 28q-85 0 -125.5 -44.5t-40.5 -159.5q0 -113 40 -156.5t124 -43.5q38 0 72 13v127h-96q-9 28 -9 76h195v-261z" />
    <glyph glyph-name="Hsmall" unicode="&#xf768;" horiz-adv-x="617" 
d="M518 0h-93v244h-232v-244h-94v545h94v-219h232v219h93v-545z" />
    <glyph glyph-name="Ismall" unicode="&#xf769;" horiz-adv-x="292" 
d="M193 0h-94v545h94v-545z" />
    <glyph glyph-name="Jsmall" unicode="&#xf76a;" horiz-adv-x="304" 
d="M205 44q0 -80 -41 -129.5t-129 -53.5q-13 38 -15 86q50 2 70.5 22t20.5 66v510h94v-501z" />
    <glyph glyph-name="Ksmall" unicode="&#xf76b;" horiz-adv-x="558" 
d="M520 539l-196 -219q89 -122 201 -315q-39 -9 -97 -9l-162 257l-75 -83v-170h-92v545h92v-257h4l225 261q55 0 100 -10z" />
    <glyph glyph-name="Lsmall" unicode="&#xf76c;" horiz-adv-x="449" 
d="M421 83q0 -47 -8 -83h-314v545h94v-462h228z" />
    <glyph glyph-name="Msmall" unicode="&#xf76d;" horiz-adv-x="740" 
d="M666 4q-36 -7 -86 -7l-31 366q-1 12 -1 48h-7q-4 -29 -10 -48l-120 -363h-86l-118 363q-7 20 -11 48h-7q0 -38 -1 -48l-35 -366q-52 0 -79 7q17 234 55 541h101l126 -380q10 -35 13 -61h6q6 36 14 61l124 380h101q32 -270 52 -541z" />
    <glyph glyph-name="Nsmall" unicode="&#xf76e;" horiz-adv-x="623" 
d="M524 2q-42 -6 -83 -6l-233 371q-12 19 -22 48l-6 -1q2 -32 2 -51v-363h-83v539q44 7 92 7l226 -360q8 -13 18 -42l7 1q-2 30 -2 51v349h84v-543z" />
    <glyph glyph-name="Osmall" unicode="&#xf76f;" horiz-adv-x="595" 
d="M534 272q0 -140 -63.5 -211t-173.5 -71q-113 0 -174.5 69.5t-61.5 210.5q0 139 63 212t173 73q114 0 175.5 -70.5t61.5 -212.5zM436 272q0 112 -33.5 158t-105.5 46q-73 0 -105 -45.5t-32 -158.5q0 -109 31 -156t106 -47q76 0 107.5 45.5t31.5 157.5z" />
    <glyph glyph-name="Psmall" unicode="&#xf770;" horiz-adv-x="516" 
d="M454 377q0 -91 -54.5 -137.5t-137.5 -46.5h-70v-193h-93v542q89 10 166 10q88 0 138.5 -43.5t50.5 -131.5zM360 377q0 101 -106 101q-18 0 -62 -4v-206h51q60 0 88.5 26t28.5 83z" />
    <glyph glyph-name="Qsmall" unicode="&#xf771;" horiz-adv-x="595" 
d="M534 272q0 -120 -51 -192.5t-144 -82.5q1 -41 22 -59t64 -18q42 0 74 12q9 -34 11 -78q-42 -13 -95 -13q-71 0 -115 37t-46 118q-94 12 -143.5 81.5t-49.5 191.5q0 137 63 211.5t173 74.5q113 0 175 -70.5t62 -212.5zM436 272q0 112 -34 158.5t-105 46.5
q-73 0 -105 -46.5t-32 -158.5q0 -108 31 -155.5t106 -47.5q76 0 107.5 46t31.5 157z" />
    <glyph glyph-name="Rsmall" unicode="&#xf772;" horiz-adv-x="541" 
d="M434 130l67 -124q-45 -10 -97 -10l-46 90q-47 90 -95 133h-74v-219h-90v541q108 12 172 12q81 0 131.5 -38.5t50.5 -121.5q0 -116 -105 -148q49 -46 86 -115zM361 389q0 47 -25.5 67.5t-76.5 20.5q-26 0 -70 -4v-181h63q57 0 83 23t26 74z" />
    <glyph glyph-name="Ssmall" unicode="&#xf773;" horiz-adv-x="463" 
d="M406 150q0 -74 -51 -117t-140 -43q-97 0 -157 26q7 46 20 82q63 -27 141 -27q93 0 93 72q0 30 -26.5 52t-64 38t-74.5 34.5t-63.5 52t-26.5 79.5q0 73 55 114.5t144 41.5q71 0 124 -13q-4 -46 -14 -83q-62 15 -118 15q-54 0 -74.5 -17t-20.5 -50q0 -27 26 -47t63.5 -35.5
t74.5 -34.5t63 -54.5t26 -85.5z" />
    <glyph glyph-name="Tsmall" unicode="&#xf774;" horiz-adv-x="434" 
d="M410 545q0 -40 -8 -80h-138v-465h-93v465h-143v80h382z" />
    <glyph glyph-name="Usmall" unicode="&#xf775;" horiz-adv-x="598" 
d="M504 219q0 -112 -48 -170.5t-156 -58.5q-103 0 -154.5 51t-51.5 178v326h93v-335q0 -76 23 -106t91 -30q63 0 89.5 32t26.5 104v335h87v-326z" />
    <glyph glyph-name="Vsmall" unicode="&#xf776;" horiz-adv-x="501" 
d="M480 541q-74 -252 -183 -541h-95q-108 287 -181 541q32 7 91 7l125 -392q7 -22 13 -56h6q5 38 11 57l126 391q52 0 87 -7z" />
    <glyph glyph-name="Wsmall" unicode="&#xf777;" horiz-adv-x="777" 
d="M730 541q-49 -252 -130 -541h-95l-107 375q-8 26 -9 48h-6q-1 -18 -9 -48l-109 -375h-94q-79 284 -126 541q35 7 87 7l83 -382q3 -13 7 -45h6q2 20 10 45l110 379h84l106 -379q5 -16 10 -45h6q3 28 7 45l88 383q46 0 81 -8z" />
    <glyph glyph-name="Xsmall" unicode="&#xf778;" horiz-adv-x="526" 
d="M500 6q-39 -10 -102 -10l-118 193q-12 24 -16 36h-6q-7 -21 -16 -36l-119 -193q-63 0 -97 10l179 275l-171 260q45 8 106 8l109 -180q7 -13 15 -33h7q4 16 14 34l106 179q62 0 99 -8l-166 -257z" />
    <glyph glyph-name="Ysmall" unicode="&#xf779;" horiz-adv-x="482" 
d="M461 541q-85 -186 -172 -334v-207h-94v207q-92 155 -174 334q36 8 97 8l109 -221q6 -12 14 -42h7q5 23 15 42l108 221q47 0 90 -8z" />
    <glyph glyph-name="Zsmall" unicode="&#xf77a;" horiz-adv-x="502" 
d="M446 81q0 -48 -6 -81h-381l-6 70l276 394h-258q-6 37 -6 81h370l6 -72l-275 -392h280z" />
    <glyph glyph-name="Agravesmall" unicode="&#xf7e0;" horiz-adv-x="498" 
d="M486 5q-31 -7 -91 -9l-53 160h-194l-52 -160q-58 2 -84 10q78 259 186 539h103q97 -256 185 -540zM320 229l-63 192q-5 14 -9 44h-6q-3 -27 -9 -44l-63 -192h150zM289 581q-28 -7 -70 -7q-76 79 -97 137h93z" />
    <glyph glyph-name="Aacutesmall" unicode="&#xf7e1;" horiz-adv-x="498" 
d="M486 5q-31 -7 -91 -9l-53 160h-194l-52 -160q-58 2 -84 10q78 259 186 539h103q97 -256 185 -540zM320 229l-63 192q-5 14 -9 44h-6q-3 -27 -9 -44l-63 -192h150zM375 711q-13 -35 -35 -65t-63 -72q-42 0 -69 7l74 130h93z" />
    <glyph glyph-name="Acircumflexsmall" unicode="&#xf7e2;" horiz-adv-x="498" 
d="M486 5q-31 -7 -91 -9l-53 160h-194l-52 -160q-58 2 -84 10q78 259 186 539h103q97 -256 185 -540zM320 229l-63 192q-5 14 -9 44h-6q-3 -27 -9 -44l-63 -192h150zM398 580q-36 -6 -78 -6l-70 89l-70 -89q-38 0 -76 5q52 83 92 132h109q44 -53 93 -131z" />
    <glyph glyph-name="Atildesmall" unicode="&#xf7e3;" horiz-adv-x="498" 
d="M486 5q-31 -7 -91 -9l-53 160h-194l-52 -160q-58 2 -84 10q78 259 186 539h103q97 -256 185 -540zM320 229l-63 192q-5 14 -9 44h-6q-3 -27 -9 -44l-63 -192h150zM418 695q-12 -68 -36 -91t-62 -23q-26 0 -72.5 25.5t-59.5 25.5q-20 0 -29.5 -11.5t-13.5 -46.5
q-35 0 -64 13q12 67 36.5 90.5t62.5 23.5q22 0 68.5 -25t62.5 -25q21 0 29.5 10.5t12.5 46.5q37 0 65 -13z" />
    <glyph glyph-name="Adieresissmall" unicode="&#xf7e4;" horiz-adv-x="498" 
d="M486 5q-31 -7 -91 -9l-53 160h-194l-52 -160q-58 2 -84 10q78 259 186 539h103q97 -256 185 -540zM320 229l-63 192q-5 14 -9 44h-6q-3 -27 -9 -44l-63 -192h150zM213 636q0 -22 -12.5 -36t-35.5 -14q-22 0 -34.5 14t-12.5 36q0 21 13 36t35 15t34.5 -15t12.5 -36z
M385 636q0 -22 -12.5 -36t-34.5 -14t-34.5 14t-12.5 36t12.5 36.5t35.5 14.5q21 0 33.5 -15t12.5 -36z" />
    <glyph glyph-name="Aringsmall" unicode="&#xf7e5;" horiz-adv-x="498" 
d="M366 628q0 -67 -62 -91q87 -230 182 -532q-31 -7 -91 -9l-53 160h-194l-52 -160q-58 2 -84 10q82 271 183 531q-61 21 -61 91q0 45 31 73.5t86 28.5q56 0 85.5 -27t29.5 -75zM320 229l-63 192q-5 14 -9 44h-6q-3 -27 -9 -44l-63 -192h150zM300 629q0 53 -49 53
q-23 0 -37 -13.5t-14 -39.5q0 -54 49 -54q51 0 51 54z" />
    <glyph glyph-name="AEsmall" unicode="&#xf7e6;" horiz-adv-x="687" 
d="M627 79q0 -43 -8 -79h-325v156h-156l-80 -160q-52 0 -86 11q132 285 276 538h366q0 -39 -6 -79h-223v-147h166v-79h-166v-161h242zM294 229v238h-4l-118 -238h122z" />
    <glyph glyph-name="Ccedillasmall" unicode="&#xf7e7;" horiz-adv-x="504" 
d="M462 26q-60 -36 -155 -36q-120 0 -183 72t-63 211q0 141 67 211.5t178 70.5q92 0 144 -26q-1 -34 -16 -83q-56 28 -124 28q-78 0 -114 -45.5t-36 -156.5q0 -107 34.5 -154t115.5 -47q76 0 136 35q11 -32 16 -80zM390 -120q0 -97 -131 -97q-31 0 -64 7q-5 25 -5 57
q27 -8 62 -8q65 0 65 43t-58 43q-27 0 -45 -3q4 29 14 48h54q53 0 80.5 -23.5t27.5 -66.5z" />
    <glyph glyph-name="Egravesmall" unicode="&#xf7e8;" horiz-adv-x="495" 
d="M435 79q0 -43 -8 -79h-328v545h323q0 -39 -6 -79h-223v-147h166v-79h-166v-161h242zM299 581q-28 -7 -70 -7q-76 79 -97 137h93z" />
    <glyph glyph-name="Eacutesmall" unicode="&#xf7e9;" horiz-adv-x="495" 
d="M435 79q0 -43 -8 -79h-328v545h323q0 -39 -6 -79h-223v-147h166v-79h-166v-161h242zM362 711q-13 -35 -35 -65t-63 -72q-42 0 -69 7l74 130h93z" />
    <glyph glyph-name="Ecircumflexsmall" unicode="&#xf7ea;" horiz-adv-x="495" 
d="M435 79q0 -43 -8 -79h-328v545h323q0 -39 -6 -79h-223v-147h166v-79h-166v-161h242zM406 580q-36 -6 -78 -6l-70 89l-70 -89q-38 0 -76 5q52 83 92 132h109q44 -53 93 -131z" />
    <glyph glyph-name="Edieresissmall" unicode="&#xf7eb;" horiz-adv-x="495" 
d="M435 79q0 -43 -8 -79h-328v545h323q0 -39 -6 -79h-223v-147h166v-79h-166v-161h242zM219 636q0 -22 -12.5 -36t-35.5 -14q-22 0 -34.5 14t-12.5 36q0 21 13 36t35 15t34.5 -15t12.5 -36zM391 636q0 -22 -12.5 -36t-34.5 -14t-34.5 14t-12.5 36t12.5 36.5t35.5 14.5
q21 0 33.5 -15t12.5 -36z" />
    <glyph glyph-name="Igravesmall" unicode="&#xf7ec;" horiz-adv-x="292" 
d="M193 0h-94v545h94v-545zM188 581q-28 -7 -70 -7q-76 79 -97 137h93z" />
    <glyph glyph-name="Iacutesmall" unicode="&#xf7ed;" horiz-adv-x="292" 
d="M193 0h-94v545h94v-545zM270 711q-13 -35 -35 -65t-63 -72q-42 0 -69 7l74 130h93z" />
    <glyph glyph-name="Icircumflexsmall" unicode="&#xf7ee;" horiz-adv-x="292" 
d="M193 0h-94v545h94v-545zM293 580q-36 -6 -78 -6l-70 89l-70 -89q-38 0 -76 5q52 83 92 132h109q44 -53 93 -131z" />
    <glyph glyph-name="Idieresissmall" unicode="&#xf7ef;" horiz-adv-x="292" 
d="M193 0h-94v545h94v-545zM108 636q0 -22 -12.5 -36t-35.5 -14q-22 0 -34.5 14t-12.5 36q0 21 13 36t35 15t34.5 -15t12.5 -36zM280 636q0 -22 -12.5 -36t-34.5 -14t-34.5 14t-12.5 36t12.5 36.5t35.5 14.5q21 0 33.5 -15t12.5 -36z" />
    <glyph glyph-name="Ethsmall" unicode="&#xf7f0;" horiz-adv-x="603" 
d="M542 284q0 -141 -68.5 -216.5t-181.5 -75.5q-105 0 -193 11v242h-52v77h52v219q86 11 193 11q112 0 181 -66t69 -202zM444 276q0 109 -43.5 153t-117.5 44q-35 0 -90 -5v-146h100q0 -35 -9 -77h-91v-168q50 -5 89 -5q83 0 122.5 49.5t39.5 154.5z" />
    <glyph glyph-name="Ntildesmall" unicode="&#xf7f1;" horiz-adv-x="623" 
d="M524 2q-42 -6 -83 -6l-233 371q-12 19 -22 48l-6 -1q2 -32 2 -51v-363h-83v539q44 7 92 7l226 -360q8 -13 18 -42l7 1q-2 30 -2 51v349h84v-543zM487 695q-12 -68 -36 -91t-62 -23q-26 0 -72.5 25.5t-59.5 25.5q-20 0 -29.5 -11.5t-13.5 -46.5q-35 0 -64 13
q12 67 36.5 90.5t62.5 23.5q22 0 68.5 -25t62.5 -25q21 0 29.5 10.5t12.5 46.5q37 0 65 -13z" />
    <glyph glyph-name="Ogravesmall" unicode="&#xf7f2;" horiz-adv-x="595" 
d="M534 272q0 -140 -63.5 -211t-173.5 -71q-113 0 -174.5 69.5t-61.5 210.5q0 139 63 212t173 73q114 0 175.5 -70.5t61.5 -212.5zM436 272q0 112 -33.5 158t-105.5 46q-73 0 -105 -45.5t-32 -158.5q0 -109 31 -156t106 -47q76 0 107.5 45.5t31.5 157.5zM345 581
q-28 -7 -70 -7q-76 79 -97 137h93z" />
    <glyph glyph-name="Oacutesmall" unicode="&#xf7f3;" horiz-adv-x="595" 
d="M534 272q0 -140 -63.5 -211t-173.5 -71q-113 0 -174.5 69.5t-61.5 210.5q0 139 63 212t173 73q114 0 175.5 -70.5t61.5 -212.5zM436 272q0 112 -33.5 158t-105.5 46q-73 0 -105 -45.5t-32 -158.5q0 -109 31 -156t106 -47q76 0 107.5 45.5t31.5 157.5zM425 711
q-13 -35 -35 -65t-63 -72q-42 0 -69 7l74 130h93z" />
    <glyph glyph-name="Ocircumflexsmall" unicode="&#xf7f4;" horiz-adv-x="595" 
d="M534 272q0 -140 -63.5 -211t-173.5 -71q-113 0 -174.5 69.5t-61.5 210.5q0 139 63 212t173 73q114 0 175.5 -70.5t61.5 -212.5zM436 272q0 112 -33.5 158t-105.5 46q-73 0 -105 -45.5t-32 -158.5q0 -109 31 -156t106 -47q76 0 107.5 45.5t31.5 157.5zM445 580
q-36 -6 -78 -6l-70 89l-70 -89q-38 0 -76 5q52 83 92 132h109q44 -53 93 -131z" />
    <glyph glyph-name="Otildesmall" unicode="&#xf7f5;" horiz-adv-x="595" 
d="M534 272q0 -140 -63.5 -211t-173.5 -71q-113 0 -174.5 69.5t-61.5 210.5q0 139 63 212t173 73q114 0 175.5 -70.5t61.5 -212.5zM436 272q0 112 -33.5 158t-105.5 46q-73 0 -105 -45.5t-32 -158.5q0 -109 31 -156t106 -47q76 0 107.5 45.5t31.5 157.5zM469 695
q-12 -68 -36 -91t-62 -23q-26 0 -72.5 25.5t-59.5 25.5q-20 0 -29.5 -11.5t-13.5 -46.5q-35 0 -64 13q12 67 36.5 90.5t62.5 23.5q22 0 68.5 -25t62.5 -25q21 0 29.5 10.5t12.5 46.5q37 0 65 -13z" />
    <glyph glyph-name="Odieresissmall" unicode="&#xf7f6;" horiz-adv-x="595" 
d="M534 272q0 -140 -63.5 -211t-173.5 -71q-113 0 -174.5 69.5t-61.5 210.5q0 139 63 212t173 73q114 0 175.5 -70.5t61.5 -212.5zM436 272q0 112 -33.5 158t-105.5 46q-73 0 -105 -45.5t-32 -158.5q0 -109 31 -156t106 -47q76 0 107.5 45.5t31.5 157.5zM261 636
q0 -22 -12.5 -36t-35.5 -14q-22 0 -34.5 14t-12.5 36q0 21 13 36t35 15t34.5 -15t12.5 -36zM433 636q0 -22 -12.5 -36t-34.5 -14t-34.5 14t-12.5 36t12.5 36.5t35.5 14.5q21 0 33.5 -15t12.5 -36z" />
    <glyph glyph-name="Oslashsmall" unicode="&#xf7f8;" horiz-adv-x="595" 
d="M534 272q0 -139 -63.5 -210.5t-173.5 -71.5q-62 0 -112 22l-46 -87h-44l56 107q-90 68 -90 237q0 137 63 211.5t173 74.5q67 0 116 -25l49 93h44l-60 -114q88 -68 88 -237zM160 272q0 -113 33 -160l182 345q-30 20 -78 20q-73 0 -105 -46.5t-32 -158.5zM436 272
q0 108 -32 157l-181 -344q29 -16 74 -16q76 0 107.5 45.5t31.5 157.5z" />
    <glyph glyph-name="Ugravesmall" unicode="&#xf7f9;" horiz-adv-x="598" 
d="M504 219q0 -112 -48 -170.5t-156 -58.5q-103 0 -154.5 51t-51.5 178v326h93v-335q0 -76 23 -106t91 -30q63 0 89.5 32t26.5 104v335h87v-326zM342 581q-28 -7 -70 -7q-76 79 -97 137h93z" />
    <glyph glyph-name="Uacutesmall" unicode="&#xf7fa;" horiz-adv-x="598" 
d="M504 219q0 -112 -48 -170.5t-156 -58.5q-103 0 -154.5 51t-51.5 178v326h93v-335q0 -76 23 -106t91 -30q63 0 89.5 32t26.5 104v335h87v-326zM430 711q-13 -35 -35 -65t-63 -72q-42 0 -69 7l74 130h93z" />
    <glyph glyph-name="Ucircumflexsmall" unicode="&#xf7fb;" horiz-adv-x="598" 
d="M504 219q0 -112 -48 -170.5t-156 -58.5q-103 0 -154.5 51t-51.5 178v326h93v-335q0 -76 23 -106t91 -30q63 0 89.5 32t26.5 104v335h87v-326zM450 580q-36 -6 -78 -6l-70 89l-70 -89q-38 0 -76 5q52 83 92 132h109q44 -53 93 -131z" />
    <glyph glyph-name="Udieresissmall" unicode="&#xf7fc;" horiz-adv-x="598" 
d="M504 219q0 -112 -48 -170.5t-156 -58.5q-103 0 -154.5 51t-51.5 178v326h93v-335q0 -76 23 -106t91 -30q63 0 89.5 32t26.5 104v335h87v-326zM265 636q0 -22 -12.5 -36t-35.5 -14q-22 0 -34.5 14t-12.5 36q0 21 13 36t35 15t34.5 -15t12.5 -36zM437 636q0 -22 -12.5 -36
t-34.5 -14t-34.5 14t-12.5 36t12.5 36.5t35.5 14.5q21 0 33.5 -15t12.5 -36z" />
    <glyph glyph-name="Yacutesmall" unicode="&#xf7fd;" horiz-adv-x="482" 
d="M461 541q-85 -186 -172 -334v-207h-94v207q-92 155 -174 334q36 8 97 8l109 -221q6 -12 14 -42h7q5 23 15 42l108 221q47 0 90 -8zM368 711q-13 -35 -35 -65t-63 -72q-42 0 -69 7l74 130h93z" />
    <glyph glyph-name="Thornsmall" unicode="&#xf7fe;" horiz-adv-x="533" 
d="M455 285q0 -91 -54.5 -137.5t-137.5 -46.5h-72v-101h-92v545h92v-88q39 3 75 3q87 0 138 -44t51 -131zM361 285q0 101 -107 101q-23 0 -63 -4v-206h53q60 0 88.5 26t28.5 83z" />
    <glyph glyph-name="Ydieresissmall" unicode="&#xf7ff;" horiz-adv-x="482" 
d="M461 541q-85 -186 -172 -334v-207h-94v207q-92 155 -174 334q36 8 97 8l109 -221q6 -12 14 -42h7q5 23 15 42l108 221q47 0 90 -8zM210 636q0 -22 -12.5 -36t-35.5 -14q-22 0 -34.5 14t-12.5 36q0 21 13 36t35 15t34.5 -15t12.5 -36zM382 636q0 -22 -12.5 -36t-34.5 -14
t-34.5 14t-12.5 36t12.5 36.5t35.5 14.5q21 0 33.5 -15t12.5 -36z" />
    <glyph glyph-name=".notdef.001" 
 />
    <glyph glyph-name="space.001" 
 />
    <glyph glyph-name="zero.dfra" horiz-adv-x="343" 
d="M322 194q0 -97 -38.5 -149t-110.5 -52q-152 0 -152 201q0 103 40 151.5t110 48.5q151 0 151 -200zM250 194q0 72 -17 103.5t-61 31.5q-43 0 -61 -31t-18 -104q0 -75 18 -105.5t62 -30.5q41 0 59 32.5t18 103.5z" />
    <glyph glyph-name="one.dfra" horiz-adv-x="343" 
d="M320 65q0 -38 -6 -65h-271v65h123v257l-114 -19q-8 26 -8 60l128 24h62v-322h86z" />
    <glyph glyph-name="two.dfra" horiz-adv-x="343" 
d="M310 65q0 -32 -5 -65h-266l-3 56q100 68 139.5 114.5t39.5 91.5q0 66 -75 66q-57 0 -89 -17q-8 23 -11 65q45 18 110 18t103 -32t38 -95q0 -99 -151 -202h170z" />
    <glyph glyph-name="three.dfra" horiz-adv-x="343" 
d="M297 110q0 -58 -43.5 -87.5t-119.5 -29.5q-61 0 -104 17q2 38 11 66q44 -18 92 -18q45 0 67.5 11.5t22.5 42.5q0 33 -20.5 44.5t-63.5 11.5h-65v62h64q42 0 59.5 13t17.5 40q0 46 -79 46q-47 0 -84 -14q-8 22 -10 64q46 15 106 15q63 0 101.5 -24t38.5 -75q0 -68 -67 -89
v-3q76 -19 76 -93z" />
    <glyph glyph-name="four.dfra" horiz-adv-x="343" 
d="M329 144q0 -38 -6 -62h-48v-82h-65v82h-191v64q62 119 161 248q37 0 63 -10l-157 -242h125v85h64v-83h54z" />
    <glyph glyph-name="five.dfra" horiz-adv-x="343" 
d="M302 117q0 -59 -39.5 -91.5t-112.5 -32.5q-56 0 -104 16q2 40 11 66q43 -16 91 -16q45 0 63 14t18 45q0 33 -24.5 46.5t-79.5 13.5q-38 0 -74 -2q3 115 19 211h223q0 -36 -5 -64h-162l-8 -87q90 0 137 -26t47 -93z" />
    <glyph glyph-name="six.dfra" horiz-adv-x="343" 
d="M309 128q0 -64 -36.5 -99.5t-96.5 -35.5q-70 0 -105.5 42t-35.5 137q0 109 45 165.5t127 56.5q51 0 81 -8q-3 -46 -9 -65q-26 8 -69 8q-53 0 -77.5 -29.5t-28.5 -95.5h3q29 42 83 42q51 0 85 -29t34 -89zM240 127q0 65 -65 65q-68 0 -68 -69q0 -73 67 -73q66 0 66 77z
" />
    <glyph glyph-name="seven.dfra" horiz-adv-x="343" 
d="M311 327q-69 -139 -190 -334q-43 2 -70 11l187 319h-200q-6 25 -6 64h279v-60z" />
    <glyph glyph-name="eight.dfra" horiz-adv-x="343" 
d="M311 103q0 -53 -37.5 -81.5t-106.5 -28.5q-135 0 -135 105q0 67 79 99q-69 28 -69 93q0 50 34.5 77t96.5 27q129 0 129 -97q0 -62 -75 -91q84 -32 84 -103zM233 292q0 46 -63 46q-60 0 -60 -48q0 -49 65 -62q58 16 58 64zM240 107q0 27 -17.5 43.5t-57.5 26.5
q-62 -17 -62 -71q0 -29 15.5 -43t51.5 -14q70 0 70 58z" />
    <glyph glyph-name="nine.dfra" horiz-adv-x="343" 
d="M35 259q0 64 36.5 99.5t96.5 35.5q69 0 105 -42.5t36 -136.5q0 -109 -45 -165.5t-127 -56.5q-50 0 -82 8q2 40 9 65q27 -8 69 -8q53 0 78 30t29 95h-4q-29 -42 -82 -42q-51 0 -85 29t-34 89zM103 260q0 -65 66 -65q67 0 67 69q0 73 -66 73q-35 0 -51 -18.5t-16 -58.5z
" />
    <glyph glyph-name="zero.ltab" 
d="M460 337q0 -347 -209 -347q-49 0 -86 17t-66 56t-44 107.5t-15 166.5q0 347 211 347q103 0 156 -80.5t53 -266.5zM369 337q0 143 -26 205.5t-92 62.5q-64 0 -92 -62t-28 -206q0 -147 27.5 -207.5t92.5 -60.5q64 0 91 63t27 205z" />
    <glyph glyph-name="one.ltab" 
d="M466 0h-396v86h180v500l-165 -24q-11 40 -11 79l178 33h88v-588h133q0 -51 -7 -86z" />
    <glyph glyph-name="two.ltab" 
d="M190 85h272q0 -46 -7 -85h-388l-6 76q150 115 212 215t62 178q0 62 -32.5 95.5t-90.5 33.5q-81 0 -129 -25q-13 40 -16 84q67 27 148 27q100 0 157.5 -54t57.5 -155q0 -83 -58 -186t-182 -204z" />
    <glyph glyph-name="three.ltab" 
d="M432 193q0 -100 -66.5 -151.5t-164.5 -51.5q-88 0 -154 29q7 55 16 85q63 -29 142 -29q130 0 130 120q0 114 -121 114h-102v84h91q63 0 89 29.5t26 83.5q0 45 -29.5 69t-82.5 24q-68 0 -129 -24q-10 40 -13 85q69 24 154 24q86 0 140 -42t54 -127q0 -114 -100 -155v-5
q57 -17 88.5 -58.5t31.5 -103.5z" />
    <glyph glyph-name="four.ltab" 
d="M461 242q0 -36 -9 -81h-70v-161h-87v161h-250v83q44 100 109.5 227.5t116.5 212.5q41 -2 77 -17l-219 -428h169v187h84v-184h79z" />
    <glyph glyph-name="five.ltab" 
d="M441 198q0 -96 -62 -152t-162 -56q-76 0 -143 25q3 36 16 86q54 -23 128 -23q68 0 100 29t32 93q0 118 -170 118q-55 0 -98 -5q5 177 30 361h319q0 -41 -8 -84h-241l-17 -191q276 0 276 -201z" />
    <glyph glyph-name="six.ltab" 
d="M450 224q0 -111 -54 -172.5t-143 -61.5q-102 0 -152.5 72.5t-50.5 238.5q0 192 64 287.5t186 95.5q72 0 117 -14q-2 -44 -12 -85q-44 14 -105 14q-77 0 -116.5 -55.5t-44.5 -180.5h4q45 66 130 66q79 0 128 -51t49 -154zM361 222q0 133 -107 133q-56 0 -83.5 -33.5
t-27.5 -105.5q0 -71 27 -109t79 -38q56 0 84 36.5t28 116.5z" />
    <glyph glyph-name="seven.ltab" 
d="M449 594q-134 -294 -305 -601q-51 4 -84 17l298 580h-294q-7 38 -7 84h392v-80z" />
    <glyph glyph-name="eight.ltab" 
d="M448 183q0 -92 -55 -142.5t-150 -50.5q-87 0 -139.5 44t-52.5 141q0 112 115 173q-102 58 -102 157q0 85 51 132t136 47t134 -43t49 -125q0 -47 -28 -89t-78 -68q120 -61 120 -176zM346 511q0 45 -26 71.5t-73 26.5q-46 0 -71.5 -27t-25.5 -68q0 -102 104 -129
q42 15 67 50.5t25 75.5zM357 184q0 103 -117 136q-47 -15 -73.5 -53t-26.5 -86q0 -116 107 -116q110 0 110 119z" />
    <glyph glyph-name="nine.ltab" 
d="M50 450q0 111 54 172.5t143 61.5q102 0 152.5 -72.5t50.5 -238.5q0 -192 -64 -287.5t-186 -95.5q-72 0 -117 14q2 44 12 85q44 -14 105 -14q77 0 116.5 55.5t44.5 180.5h-4q-45 -66 -130 -66q-79 0 -128 51t-49 154zM139 452q0 -133 107 -133q56 0 83.5 33.5t27.5 105.5
q0 71 -27 109t-79 38q-56 0 -84 -36.5t-28 -116.5z" />
    <glyph glyph-name="zero.nfra" horiz-adv-x="343" 
d="M322 481q0 -97 -38.5 -149t-110.5 -52q-152 0 -152 201q0 103 40 151.5t110 48.5q151 0 151 -200zM250 481q0 73 -17 104t-61 31q-43 0 -61 -31t-18 -104q0 -75 18 -105.5t62 -30.5q41 0 59 32.5t18 103.5z" />
    <glyph glyph-name="one.nfra" horiz-adv-x="343" 
d="M320 352q0 -38 -6 -65h-271v65h123v257l-114 -19q-8 26 -8 60l128 24h62v-322h86z" />
    <glyph glyph-name="two.nfra" horiz-adv-x="343" 
d="M310 352q0 -32 -5 -65h-266l-3 56q100 68 139.5 114.5t39.5 91.5q0 66 -75 66q-57 0 -89 -17q-8 23 -11 65q45 18 110 18t103 -32t38 -95q0 -99 -151 -202h170z" />
    <glyph glyph-name="three.nfra" horiz-adv-x="343" 
d="M297 397q0 -58 -43.5 -87.5t-119.5 -29.5q-61 0 -104 17q2 38 11 66q44 -18 92 -18q45 0 67.5 11.5t22.5 42.5q0 33 -20.5 44.5t-63.5 11.5h-65v62h64q42 0 59.5 13t17.5 40q0 46 -79 46q-47 0 -84 -14q-8 22 -10 64q46 15 106 15q63 0 101.5 -24t38.5 -75q0 -68 -67 -89
v-3q76 -19 76 -93z" />
    <glyph glyph-name="four.nfra" horiz-adv-x="343" 
d="M329 431q0 -38 -6 -62h-48v-82h-65v82h-191v64q62 119 161 248q37 0 63 -10l-157 -242h125v85h64v-83h54z" />
    <glyph glyph-name="five.nfra" horiz-adv-x="343" 
d="M302 404q0 -59 -39.5 -91.5t-112.5 -32.5q-56 0 -104 16q2 40 11 66q43 -16 91 -16q45 0 63 14t18 45q0 33 -24.5 46.5t-79.5 13.5q-38 0 -74 -2q3 115 19 211h223q0 -36 -5 -64h-162l-8 -87q90 0 137 -26t47 -93z" />
    <glyph glyph-name="six.nfra" horiz-adv-x="343" 
d="M309 415q0 -64 -36.5 -99.5t-96.5 -35.5q-70 0 -105.5 42t-35.5 137q0 109 45 165.5t127 56.5q51 0 81 -8q-3 -46 -9 -65q-26 8 -69 8q-53 0 -77.5 -29.5t-28.5 -95.5h3q29 42 83 42q51 0 85 -29t34 -89zM240 414q0 65 -65 65q-68 0 -68 -69q0 -73 67 -73q66 0 66 77z
" />
    <glyph glyph-name="seven.nfra" horiz-adv-x="343" 
d="M311 614q-69 -139 -190 -334q-43 2 -70 11l187 319h-200q-6 26 -6 64h279v-60z" />
    <glyph glyph-name="eight.nfra" horiz-adv-x="343" 
d="M311 390q0 -53 -37.5 -81.5t-106.5 -28.5q-135 0 -135 105q0 67 79 99q-69 28 -69 93q0 50 34.5 77t96.5 27q129 0 129 -97q0 -62 -75 -91q84 -32 84 -103zM233 579q0 46 -63 46q-60 0 -60 -48q0 -49 65 -62q58 16 58 64zM240 394q0 27 -17.5 43.5t-57.5 26.5
q-62 -17 -62 -71q0 -29 15.5 -43t51.5 -14q70 0 70 58z" />
    <glyph glyph-name="nine.nfra" horiz-adv-x="343" 
d="M35 546q0 64 36.5 99.5t96.5 35.5q69 0 105 -42.5t36 -136.5q0 -109 -45 -165.5t-127 -56.5q-50 0 -82 8q2 40 9 65q27 -8 69 -8q53 0 78 30t29 95h-4q-29 -42 -82 -42q-51 0 -85 29t-34 89zM103 547q0 -65 66 -65q67 0 67 69q0 73 -66 73q-35 0 -51 -18.5t-16 -58.5z
" />
    <glyph glyph-name=".notdef.002" 
 />
    <glyph glyph-name="Euro.lprp" 
d="M392 229h-202q10 -81 43.5 -118t95.5 -37q73 0 126 32q9 -41 12 -88q-56 -28 -139 -28q-200 0 -233 239h-62v62h56q-1 15 -1 47q0 34 1 50h-56v62h63q20 120 80 177t150 57q82 0 129 -19q0 -37 -11 -88q-52 22 -116 22q-58 0 -91.5 -34t-45.5 -115h228q0 -28 -8 -62h-226
q-1 -16 -1 -52v-45h216q0 -27 -8 -62z" />
    <glyph glyph-name="brokenbar.caps" horiz-adv-x="270" 
d="M163 401h-72v273h72v-273zM163 0h-72v277h72v-277z" />
    <glyph glyph-name="minus.lprp" 
d="M427 302h-353v72h353v-72z" />
    <glyph glyph-name="multiply.lprp" horiz-adv-x="498" 
d="M444 187l-50 -49l-147 151l-147 -151l-49 49l150 149l-150 149l49 48l147 -151l147 151l50 -48l-150 -149z" />
    <glyph glyph-name="exclam.caps" horiz-adv-x="245" 
d="M169 674q0 -220 -12 -482q-37 -7 -68 -7q-14 273 -14 489h94zM175 42q0 -25 -14.5 -39t-37.5 -14q-24 0 -38.5 14t-14.5 39q0 26 15 41t38 15t37.5 -15t14.5 -41z" />
    <glyph glyph-name="quotedbl.caps" horiz-adv-x="350" 
d="M146 674l-19 -262q-25 -9 -60 -9l-17 271h96zM300 674l-19 -262q-27 -9 -59 -9l-18 271h96z" />
    <glyph glyph-name="dollar.lprp" 
d="M447 220q0 -64 -46.5 -108.5t-128.5 -53.5l3 -58h-84l4 57q-85 4 -139 24q7 58 18 81q72 -27 171 -27q114 0 114 77q0 35 -31.5 56.5t-76.5 34t-90.5 27.5t-77 48t-31.5 84q0 63 47 105t126 52l-2 55h84l-3 -51q63 -4 110 -12q0 -45 -11 -81q-67 14 -147 14
q-64 0 -90 -19t-26 -56q0 -22 17 -37.5t44 -25t60 -18t65.5 -21t59.5 -29.5t44 -47t17 -71z" />
    <glyph glyph-name="percent.lprp" horiz-adv-x="807" 
d="M346 494q0 -90 -40.5 -140t-113.5 -50t-115 47t-42 143q0 92 43 141t114 49q74 0 114 -47.5t40 -142.5zM271 494q0 65 -17.5 97.5t-61.5 32.5q-81 0 -81 -130q0 -67 19 -98.5t62 -31.5t61 32t18 98zM573 671l-270 -681q-33 6 -63 21l264 670q29 0 69 -10zM772 180
q0 -90 -40.5 -140t-113.5 -50t-115 47t-42 143q0 92 43 141t114 49q74 0 114 -47.5t40 -142.5zM697 180q0 65 -17.5 97.5t-61.5 32.5q-81 0 -81 -130q0 -67 19 -98.5t62 -31.5t61 32t18 98z" />
    <glyph glyph-name="quotesingle.caps" horiz-adv-x="196" 
d="M146 674l-19 -262q-25 -9 -60 -9l-17 271h96z" />
    <glyph glyph-name="parenleft.caps" horiz-adv-x="294" 
d="M259 -53q-32 -9 -76 -9q-122 172 -122 400q0 217 122 397q41 0 76 -11q-50 -77 -78 -178.5t-28 -204.5q0 -104 28 -209.5t78 -184.5z" />
    <glyph glyph-name="parenright.caps" horiz-adv-x="294" 
d="M36 725q30 9 75 9q122 -172 122 -400q0 -219 -122 -397q-42 0 -75 11q49 77 77 179t28 204q0 105 -28 210t-77 184z" />
    <glyph glyph-name="plus.caps" horiz-adv-x="495" 
d="M283 110h-70v194h-171v68h171v193h70v-193h171v-68h-171v-194z" />
    <glyph glyph-name="hyphen.caps" horiz-adv-x="250" 
d="M217 299h-184v77h184v-77z" />
    <glyph glyph-name="zero.lprp" 
d="M460 337q0 -347 -209 -347q-49 0 -86 17t-66 56t-44 107.5t-15 166.5q0 347 211 347q103 0 156 -80.5t53 -266.5zM369 337q0 143 -26 205.5t-92 62.5q-64 0 -92 -62t-28 -206q0 -147 27.5 -207.5t92.5 -60.5q64 0 91 63t27 205z" />
    <glyph glyph-name="one.lprp" horiz-adv-x="470" 
d="M426 0h-366v86h150v500l-145 -24q-11 40 -11 79l158 33h88v-588h133q0 -51 -7 -86z" />
    <glyph glyph-name="two.lprp" 
d="M190 85h272q0 -46 -7 -85h-388l-6 76q150 115 212 215t62 178q0 62 -32.5 95.5t-90.5 33.5q-81 0 -129 -25q-13 40 -16 84q67 27 148 27q100 0 157.5 -54t57.5 -155q0 -83 -58 -186t-182 -204z" />
    <glyph glyph-name="three.lprp" 
d="M432 193q0 -100 -66.5 -151.5t-164.5 -51.5q-88 0 -154 29q7 55 16 85q63 -29 142 -29q130 0 130 120q0 114 -121 114h-102v84h91q63 0 89 29.5t26 83.5q0 45 -29.5 69t-82.5 24q-68 0 -129 -24q-10 40 -13 85q69 24 154 24q86 0 140 -42t54 -127q0 -114 -100 -155v-5
q57 -17 88.5 -58.5t31.5 -103.5z" />
    <glyph glyph-name="four.lprp" 
d="M461 242q0 -36 -9 -81h-70v-161h-87v161h-250v83q44 100 109.5 227.5t116.5 212.5q41 -2 77 -17l-219 -428h169v187h84v-184h79z" />
    <glyph glyph-name="five.lprp" 
d="M441 198q0 -96 -62 -152t-162 -56q-76 0 -143 25q3 36 16 86q54 -23 128 -23q68 0 100 29t32 93q0 118 -170 118q-55 0 -98 -5q5 177 30 361h319q0 -41 -8 -84h-241l-17 -191q276 0 276 -201z" />
    <glyph glyph-name="six.lprp" 
d="M450 224q0 -111 -54 -172.5t-143 -61.5q-102 0 -152.5 72.5t-50.5 238.5q0 192 64 287.5t186 95.5q72 0 117 -14q-2 -44 -12 -85q-44 14 -105 14q-77 0 -116.5 -55.5t-44.5 -180.5h4q45 66 130 66q79 0 128 -51t49 -154zM361 222q0 133 -107 133q-56 0 -83.5 -33.5
t-27.5 -105.5q0 -71 27 -109t79 -38q56 0 84 36.5t28 116.5z" />
    <glyph glyph-name="seven.lprp" horiz-adv-x="480" 
d="M434 594q-134 -294 -305 -601q-51 4 -84 17l298 580h-294q-7 38 -7 84h392v-80z" />
    <glyph glyph-name="eight.lprp" 
d="M448 183q0 -92 -55 -142.5t-150 -50.5q-87 0 -139.5 44t-52.5 141q0 112 115 173q-102 58 -102 157q0 85 51 132t136 47t134 -43t49 -125q0 -47 -28 -89t-78 -68q120 -61 120 -176zM346 511q0 45 -26 71.5t-73 26.5q-46 0 -71.5 -27t-25.5 -68q0 -102 104 -129
q42 15 67 50.5t25 75.5zM357 184q0 103 -117 136q-47 -15 -73.5 -53t-26.5 -86q0 -116 107 -116q110 0 110 119z" />
    <glyph glyph-name="nine.lprp" 
d="M50 450q0 111 54 172.5t143 61.5q102 0 152.5 -72.5t50.5 -238.5q0 -192 -64 -287.5t-186 -95.5q-72 0 -117 14q2 44 12 85q44 -14 105 -14q77 0 116.5 55.5t44.5 180.5h-4q-45 -66 -130 -66q-79 0 -128 51t-49 154zM139 452q0 -133 107 -133q56 0 83.5 33.5t27.5 105.5
q0 71 -27 109t-79 38q-56 0 -84 -36.5t-28 -116.5z" />
    <glyph glyph-name="colon.caps" horiz-adv-x="222" 
d="M166 42q0 -25 -14.5 -39t-37.5 -14q-24 0 -38 13.5t-14 39.5t14.5 41t37.5 15q22 0 37 -15t15 -41zM166 431q0 -25 -14.5 -39.5t-37.5 -14.5q-24 0 -38 14t-14 40t14.5 40.5t37.5 14.5q22 0 37 -15t15 -40z" />
    <glyph glyph-name="semicolon.caps" horiz-adv-x="222" 
d="M163 431q0 -25 -14.5 -39.5t-37.5 -14.5q-24 0 -38.5 14t-14.5 40t14.5 40.5t38.5 14.5q23 0 37.5 -15t14.5 -40zM163 59q0 -103 -117 -232l-72 26q64 76 85 119.5t21 105.5v35h79q4 -17 4 -54z" />
    <glyph glyph-name="less.caps" horiz-adv-x="402" 
d="M340 110h-89l-205 229l205 226h89v-9l-201 -213l201 -226v-7z" />
    <glyph glyph-name="equal.caps" horiz-adv-x="491" 
d="M427 398h-363v67h363v-67zM427 209h-363v67h363v-67z" />
    <glyph glyph-name="greater.caps" horiz-adv-x="402" 
d="M150 565l206 -230l-206 -225h-89v8l200 214l-200 225v8h89z" />
    <glyph glyph-name="question.caps" horiz-adv-x="376" 
d="M353 504q0 -142 -194 -211v-101q-33 -7 -75 -9q-14 82 -14 157q193 55 193 159q0 54 -29.5 78.5t-92.5 24.5q-55 0 -106 -11q-8 40 -8 82q58 11 122 11q90 0 147 -45.5t57 -134.5zM173 42q0 -25 -15 -39t-38 -14t-37.5 14t-14.5 39q0 26 15 41t38 15q22 0 37 -15t15 -41z
" />
    <glyph glyph-name="at.caps" horiz-adv-x="802" 
d="M741 373q0 -113 -41.5 -176.5t-110.5 -63.5q-72 0 -98 50h-3q-51 -50 -122 -50q-59 0 -93.5 28.5t-34.5 84.5q0 114 146 121l96 4v87q-36 17 -87 17q-61 0 -102 -18q-10 34 -10 69q57 16 112 16q104 0 160 -40v-264q0 -25 9 -35t29 -10q39 0 61 39.5t22 141.5
q0 124 -74 185.5t-190 61.5q-127 0 -203 -75.5t-76 -219.5q0 -270 253 -270q30 0 70 7.5t63 17.5q10 -32 10 -68q-61 -23 -145 -23q-150 0 -235.5 81.5t-85.5 254.5q0 91 29.5 162t80 112.5t112 62.5t130.5 21q143 0 235.5 -80t92.5 -231zM480 231v83l-93 -4
q-41 -2 -55.5 -15t-14.5 -47q0 -31 15 -42t51 -11q55 0 97 36z" />
    <glyph glyph-name="bracketleft.caps" horiz-adv-x="343" 
d="M297 -95h-198v865h198q0 -39 -8 -79h-104v-707h104q8 -42 8 -79z" />
    <glyph glyph-name="bracketright.caps" horiz-adv-x="343" 
d="M47 770h197v-865h-197q0 44 7 79h104v707h-104q-7 36 -7 79z" />
    <glyph glyph-name="zero.otab" 
d="M458 273q0 -133 -54 -208t-153 -75q-98 0 -153.5 70.5t-55.5 212.5q0 136 57.5 209t151.5 73q100 0 153.5 -70.5t53.5 -211.5zM368 273q0 102 -26 152.5t-91 50.5q-63 0 -91 -51t-28 -152q0 -105 27.5 -155t91.5 -50q62 0 89.5 51.5t27.5 153.5z" />
    <glyph glyph-name="one.otab" 
d="M466 0h-392v84h180v375l-165 -24q-11 40 -11 77l178 33h84v-461h133q0 -49 -7 -84z" />
    <glyph glyph-name="two.otab" 
d="M197 84h254q0 -45 -7 -84h-370l-6 76q141 94 197.5 162t56.5 132q0 50 -27 75.5t-76 25.5q-78 0 -128 -27q-13 50 -16 84q67 27 148 27q91 0 142.5 -45t51.5 -133q0 -144 -220 -293z" />
    <glyph glyph-name="three.otab" 
d="M432 64q0 -100 -66.5 -151.5t-164.5 -51.5q-88 0 -154 29q7 53 16 85q59 -29 142 -29q130 0 130 120q0 114 -121 114h-102v84h91q63 0 89 29.5t26 83.5q0 45 -29.5 69t-82.5 24q-68 0 -129 -24q-10 43 -13 85q69 24 154 24q86 0 140 -42t54 -127q0 -114 -100 -155v-5
q57 -17 88.5 -58.5t31.5 -103.5z" />
    <glyph glyph-name="four.otab" 
d="M461 113q0 -36 -9 -81h-70v-161h-87v161h-250v83q44 100 109.5 227.5t116.5 212.5q41 -2 77 -17l-219 -428h169v187h84v-184h79z" />
    <glyph glyph-name="five.otab" 
d="M441 69q0 -96 -62 -152t-162 -56q-76 0 -143 25q3 36 16 86q54 -23 128 -23q68 0 100 29t32 93q0 118 -170 118q-55 0 -98 -5q5 177 30 361h319q0 -41 -8 -84h-241l-17 -191q276 0 276 -201z" />
    <glyph glyph-name="six.otab" 
d="M450 224q0 -111 -54 -172.5t-143 -61.5q-102 0 -152.5 72.5t-50.5 238.5q0 192 64 287.5t186 95.5q72 0 117 -14q-2 -44 -12 -85q-44 14 -105 14q-77 0 -116.5 -55.5t-44.5 -180.5h4q45 66 130 66q79 0 128 -51t49 -154zM361 222q0 133 -107 133q-56 0 -83.5 -33.5
t-27.5 -105.5q0 -71 27 -109t79 -38q56 0 84 36.5t28 116.5z" />
    <glyph glyph-name="seven.otab" 
d="M449 465q-134 -294 -305 -601q-51 4 -84 17l298 580h-294q-7 38 -7 84h392v-80z" />
    <glyph glyph-name="eight.otab" 
d="M448 183q0 -92 -55 -142.5t-150 -50.5q-87 0 -139.5 44t-52.5 141q0 112 115 173q-102 58 -102 157q0 85 51 132t136 47t134 -43t49 -125q0 -47 -28 -89t-78 -68q120 -61 120 -176zM346 511q0 45 -26 71.5t-73 26.5q-46 0 -71.5 -27t-25.5 -68q0 -102 104 -129
q42 15 67 50.5t25 75.5zM357 184q0 103 -117 136q-47 -15 -73.5 -53t-26.5 -86q0 -116 107 -116q110 0 110 119z" />
    <glyph glyph-name="nine.otab" 
d="M50 321q0 111 54 172.5t143 61.5q102 0 152.5 -72.5t50.5 -238.5q0 -192 -64 -287.5t-186 -95.5q-72 0 -117 14q2 44 12 85q44 -14 105 -14q77 0 116.5 55.5t44.5 180.5h-4q-45 -66 -130 -66q-79 0 -128 51t-49 154zM139 323q0 -133 107 -133q56 0 83.5 33.5t27.5 105.5
q0 71 -27 109t-79 38q-56 0 -84 -36.5t-28 -116.5z" />
    <glyph glyph-name="braceleft.caps" horiz-adv-x="326" 
d="M283 -16q0 -48 -7 -79q-117 0 -170.5 30.5t-53.5 93.5q0 29 17.5 60.5t38 53.5t38 47.5t17.5 45.5q0 33 -24.5 46.5t-95.5 13.5v85q70 0 95 13.5t25 45.5q0 20 -17.5 45.5t-38 47.5t-38 53.5t-17.5 60.5q0 60 59 91.5t166 31.5q6 -31 6 -79q-76 0 -107.5 -13t-31.5 -43
q0 -17 16.5 -42.5t37 -48t37 -52t16.5 -53.5q0 -40 -22 -63t-80 -34v-6q58 -11 80 -34.5t22 -64.5q0 -24 -16.5 -53.5t-37 -52.5t-37 -48.5t-16.5 -42.5q0 -32 30.5 -44t108.5 -12z" />
    <glyph glyph-name="bar.caps" horiz-adv-x="260" 
d="M166 -95h-72v865h72v-865z" />
    <glyph glyph-name="braceright.caps" horiz-adv-x="326" 
d="M43 691q0 41 7 79q117 0 170.5 -30.5t53.5 -93.5q0 -29 -17.5 -60.5t-38 -53.5t-38 -47.5t-17.5 -45.5q0 -32 25 -46t95 -14v-85q-70 0 -95 -13.5t-25 -45.5q0 -20 17.5 -45.5t38 -47.5t38 -53.5t17.5 -60.5q0 -60 -58.5 -91.5t-166.5 -31.5q-6 32 -6 79q76 0 108 13
t32 43q0 21 -27 55t-54 72t-27 69q0 40 22 62.5t80 34.5v6q-57 11 -79.5 34.5t-22.5 64.5q0 30 27 68.5t54 73t27 55.5q0 32 -31 44t-109 12z" />
    <glyph glyph-name="asciitilde.caps" horiz-adv-x="495" 
d="M466 408q-16 -90 -43 -124t-72 -34q-29 0 -69.5 23t-76.5 46t-54 23q-21 0 -31 -20t-18 -72q-43 0 -74 14q15 90 42.5 124.5t72.5 34.5q36 0 108 -46t92 -46q21 0 31 19.5t18 73.5q42 0 74 -16z" />
    <glyph glyph-name="dagger.caps" horiz-adv-x="523" 
d="M475 410h-170v-410q-37 -9 -88 -9v419h-169v84h169v180h88v-180h170v-84z" />
    <glyph glyph-name="cent.lprp" 
d="M460 99q-40 -22 -113 -30l3 -69h-84l3 71q-99 12 -153.5 77t-54.5 179q0 127 58.5 194.5t149.5 78.5l-3 74h84l-3 -73q59 -3 101 -19q-4 -38 -18 -84q-51 22 -120 22q-70 0 -113 -41.5t-43 -135.5q0 -107 42 -149t124 -42q72 0 122 29q12 -38 18 -82z" />
    <glyph glyph-name="sterling.lprp" 
d="M482 82q0 -37 -10 -82h-386v74q89 26 89 127q0 32 -38 123h-84v66h55q-19 57 -19 94q0 89 57.5 144.5t157.5 55.5q88 0 140 -14q0 -37 -12 -85q-60 17 -132 17q-62 0 -90 -29.5t-28 -90.5q0 -35 23 -92h223q0 -34 -9 -66h-183q33 -76 33 -120q0 -74 -63 -122h276z" />
    <glyph glyph-name="section.caps" 
d="M39 316q0 86 100 128q34 -16 62 -40q-77 -28 -77 -77q0 -30 29.5 -48t71 -27.5t83 -21t71 -38t29.5 -68.5q0 -61 -46.5 -97.5t-136.5 -36.5q-73 0 -131 12q6 54 12 73q62 -16 129 -16q87 0 87 55q0 24 -29 38t-71 23t-83.5 22t-70.5 43t-29 76zM461 358q0 -86 -100 -128
q-34 16 -62 40q77 28 77 77q0 30 -29.5 48t-71 27.5t-83 21t-71 38t-29.5 68.5q0 61 46.5 97.5t136.5 36.5q73 0 131 -12q-5 -47 -12 -73q-62 16 -129 16q-87 0 -87 -55q0 -24 29 -38t71 -23t83.5 -22t70.5 -43t29 -76z" />
    <glyph glyph-name="bullet.caps" horiz-adv-x="352" 
d="M277 333q0 -46 -29 -74.5t-72 -28.5q-44 0 -72.5 28.5t-28.5 74.5q0 47 28.5 76.5t72.5 29.5q43 0 72 -29.5t29 -76.5z" />
    <glyph glyph-name="paragraph.caps" 
d="M423 162q0 -94 -32.5 -154t-111.5 -109l-33 44q68 43 93.5 93t25.5 125v457q-32 8 -81 8v-465q0 -60 -17 -95t-64 -67l-34 45q32 20 45 45t13 64v167h-14q-73 0 -114 43t-41 128q0 98 56.5 145.5t148.5 47.5q89 0 160 -20v-502z" />
    <glyph glyph-name="germandbls.caps" horiz-adv-x="1046" 
d="M992 182q0 -88 -60.5 -140t-164.5 -52q-108 0 -181 31q5 34 22 86q76 -33 168 -33q117 0 117 101q0 33 -22.5 59.5t-56.5 43.5t-74 38t-74 42t-56.5 56.5t-22.5 81.5q0 89 64 138.5t168 49.5q79 0 142 -15q-2 -45 -15 -87q-67 18 -141 18q-66 0 -92.5 -24.5t-26.5 -72.5
q0 -29 22.5 -53t56.5 -40t74 -37.5t74 -44t56.5 -60.5t22.5 -86zM469 182q0 -88 -60.5 -140t-164.5 -52q-108 0 -181 31q5 34 22 86q76 -33 168 -33q117 0 117 101q0 33 -22.5 59.5t-56.5 43.5t-74 38t-74 42t-56.5 56.5t-22.5 81.5q0 89 64 138.5t168 49.5q79 0 142 -15
q-2 -45 -15 -87q-67 18 -141 18q-66 0 -92.5 -24.5t-26.5 -72.5q0 -29 22.5 -53t56.5 -40t74 -37.5t74 -44t56.5 -60.5t22.5 -86z" />
    <glyph glyph-name="notequal.caps" horiz-adv-x="491" 
d="M427 209h-240l-76 -116h-47l76 116h-76v67h120l82 122h-202v67h246l68 103h49l-68 -103h68v-67h-113l-82 -122h195v-67z" />
    <glyph glyph-name="infinity.caps" horiz-adv-x="884" 
d="M241 125q-90 0 -140.5 58t-50.5 161q0 93 49.5 150.5t144.5 57.5q120 0 198 -132q45 72 93 102t110 30q89 0 139 -57.5t50 -156.5q0 -97 -50 -155t-139 -58q-122 0 -204 131q-78 -131 -200 -131zM643 203q107 0 107 138q0 66 -29.5 99.5t-81.5 33.5q-53 0 -91 -32
t-72 -102q64 -137 167 -137zM250 203q102 0 157 136q-64 135 -159 135q-114 0 -114 -136q0 -135 116 -135z" />
    <glyph glyph-name="plusminus.caps" horiz-adv-x="445" 
d="M385 374h-130v-130h-66v130h-129v64h129v127h66v-127h130v-64zM385 110h-325v67h325v-67z" />
    <glyph glyph-name="lessequal.caps" horiz-adv-x="445" 
d="M363 215h-93l-193 175l193 175h92v-9l-190 -162l191 -170v-9zM385 110h-325v66h325v-66z" />
    <glyph glyph-name="greaterequal.caps" horiz-adv-x="445" 
d="M174 565l193 -176l-193 -174h-91v9l189 164l-190 168v9h92zM385 110h-325v66h325v-66z" />
    <glyph glyph-name="yen.lprp" 
d="M486 669q-92 -231 -165 -371h120q0 -32 -8 -67h-135v-231h-97v231h-141v67h118q-85 167 -163 371q42 9 99 9l117 -286q16 -39 22 -62h4q7 30 20 64l117 284q48 0 92 -9z" />
    <glyph glyph-name="mu.caps" horiz-adv-x="588" 
d="M491 0h-90v45h-5q-72 -55 -143 -55q-45 0 -67 23v-219h-89v725q50 6 89 6v-370q0 -84 89 -84q65 0 126 36v412q48 6 90 6v-525z" />
    <glyph glyph-name="pi.caps" horiz-adv-x="698" 
d="M595 0h-98v583h-296v-583h-98v674h492v-674z" />
    <glyph glyph-name="integral.caps" horiz-adv-x="315" 
d="M318 680q0 -42 -6 -81q-15 3 -50 3q-68 0 -68 -83v-488q0 -76 -46 -123t-115 -47q-24 0 -52 4q0 42 6 81q15 -3 50 -3q67 0 67 83v488q0 77 46 123.5t116 46.5q24 0 52 -4z" />
    <glyph glyph-name="ordfeminine.caps" horiz-adv-x="380" 
d="M366 349q-34 -6 -72 -6l-34 86h-140l-33 -86q-43 0 -67 6q54 155 132 325h82q64 -140 132 -325zM241 484l-42 109q-5 13 -8 32h-3q-3 -19 -8 -32l-42 -109h103z" />
    <glyph glyph-name="ordmasculine.caps" horiz-adv-x="380" 
d="M345 509q0 -80 -44 -124.5t-113 -44.5q-71 0 -112.5 42t-41.5 127q0 79 43.5 124.5t112.5 45.5q71 0 113 -41t42 -129zM272 509q0 112 -82 112q-83 0 -83 -112q0 -111 81 -111q84 0 84 111z" />
    <glyph glyph-name="questiondown.caps" horiz-adv-x="376" 
d="M22 169q0 143 194 212v101q35 7 76 9q13 -87 13 -157q-193 -55 -193 -159q0 -54 29.5 -78.5t92.5 -24.5q55 0 106 11q8 -40 8 -82q-51 -11 -122 -11q-90 0 -147 45t-57 134zM202 631q0 26 15 40t38 14t38 -14.5t15 -39.5t-15.5 -40t-38.5 -15q-22 0 -37 15t-15 40z" />
    <glyph glyph-name="exclamdown.caps" horiz-adv-x="245" 
d="M77 0q0 220 12 482q28 5 68 7q14 -273 14 -489h-94zM71 631q0 26 14.5 40t37.5 14q24 0 38.5 -14t14.5 -40t-15 -40.5t-38 -14.5t-37.5 14.5t-14.5 40.5z" />
    <glyph glyph-name="logicalnot.caps" horiz-adv-x="498" 
d="M454 209q-32 -7 -73 -7v158h-346v74h419v-225z" />
    <glyph glyph-name="florin.caps" 
d="M418 680q0 -40 -6 -81q-20 4 -49 4q-39 0 -62.5 -24t-23.5 -68v-111h161q0 -32 -7 -77h-154v-455h-88v455h-135v77h135v104q0 82 50.5 131t125.5 49q27 0 53 -4z" />
    <glyph glyph-name="approxequal.caps" horiz-adv-x="496" 
d="M438 408q-41 -36 -88 -36q-34 0 -97.5 21.5t-96.5 21.5q-54 0 -98 -41v67q44 41 98 41q33 0 96 -21t97 -21q46 0 89 36v-68zM438 219q-40 -35 -88 -35q-34 0 -97.5 21.5t-96.5 21.5q-52 0 -98 -41v66q44 41 98 41q33 0 96 -21t97 -21q44 0 89 36v-68z" />
    <glyph glyph-name="guillemotleft.caps" horiz-adv-x="481" 
d="M242 129l-73 -13l-139 220l139 220l73 -14l-122 -207zM452 129l-73 -13l-139 220l139 220l73 -14l-122 -207z" />
    <glyph glyph-name="guillemotright.caps" horiz-adv-x="481" 
d="M452 336l-140 -220l-72 14l121 207l-121 206l72 13zM242 336l-139 -220l-73 14l122 207l-122 206l73 13z" />
    <glyph glyph-name="endash.caps" 
d="M444 304h-389v69h398q0 -39 -9 -69z" />
    <glyph glyph-name="emdash.caps" horiz-adv-x="1000" 
d="M929 304h-861v69h869q0 -39 -8 -69z" />
    <glyph glyph-name="quotedblleft.caps" horiz-adv-x="416" 
d="M40 481q0 147 118 202q19 -22 31 -52q-82 -36 -82 -122h40q12 -48 12 -102h-119v74zM228 481q0 147 118 202q20 -23 30 -52q-81 -36 -81 -122h39q13 -42 13 -102h-119v74z" />
    <glyph glyph-name="quotedblright.caps" horiz-adv-x="416" 
d="M188 600q0 -147 -118 -202q-20 22 -30 51q81 37 81 123h-39q-13 46 -13 102h119v-74zM376 600q0 -147 -118 -202q-21 26 -30 51q81 38 81 123h-39q-12 43 -12 102h118v-74z" />
    <glyph glyph-name="quoteleft.caps" horiz-adv-x="229" 
d="M40 481q0 147 118 202q19 -22 31 -52q-82 -36 -82 -122h40q12 -48 12 -102h-119v74z" />
    <glyph glyph-name="quoteright.caps" horiz-adv-x="229" 
d="M188 600q0 -147 -118 -202q-20 22 -30 51q81 37 81 123h-39q-13 46 -13 102h119v-74z" />
    <glyph glyph-name="divide.caps" horiz-adv-x="408" 
d="M256 150q0 -26 -14.5 -40t-37.5 -14t-37.5 14t-14.5 40t14.5 40.5t38.5 14.5q22 0 36.5 -14.5t14.5 -40.5zM256 523q0 -25 -14.5 -39t-37.5 -14t-37.5 14t-14.5 39q0 26 14.5 40.5t38.5 14.5q22 0 36.5 -14.5t14.5 -40.5zM346 308h-283v60h283v-60z" />
    <glyph glyph-name="guilsinglleft.caps" horiz-adv-x="272" 
d="M242 129l-73 -13l-139 220l139 220l73 -14l-122 -207z" />
    <glyph glyph-name="guilsinglright.caps" horiz-adv-x="272" 
d="M242 336l-139 -220l-73 14l122 207l-122 206l73 13z" />
    <glyph glyph-name="fi.caps" horiz-adv-x="821" 
d="M480 674q0 -35 -7 -86h-276v-210h226v-86h-226v-292h-98v674h381zM722 0h-98v674h98v-674z" />
    <glyph glyph-name="fl.caps" horiz-adv-x="1025" 
d="M480 674q0 -35 -7 -86h-276v-210h226v-86h-226v-292h-98v674h381zM995 87q0 -41 -8 -87h-363v674h98v-587h273z" />
    <glyph glyph-name="daggerdbl.caps" horiz-adv-x="523" 
d="M475 178h-170v-178q-37 -9 -88 -9v187h-169v84h169v152h-169v84h169v176h88v-176h170v-84h-170v-152h170v-84z" />
    <glyph glyph-name="periodcentered.caps" horiz-adv-x="217" 
d="M162 336q0 -25 -14.5 -39t-37.5 -14q-24 0 -38 14t-14 39q0 26 14.5 40.5t38.5 14.5q22 0 36.5 -14.5t14.5 -40.5z" />
    <glyph glyph-name="quotesinglbase.caps" horiz-adv-x="229" 
d="M188 188q0 -147 -118 -202q-19 20 -30 51q80 36 80 120h-39q-13 46 -13 105h120v-74z" />
    <glyph glyph-name="quotedblbase.caps" horiz-adv-x="416" 
d="M188 188q0 -147 -118 -202q-19 20 -30 51q80 36 80 120h-39q-13 46 -13 105h120v-74zM377 188q0 -148 -119 -202q-20 23 -30 51q80 36 80 120h-39q-12 43 -12 105h120v-74z" />
    <glyph glyph-name="perthousand.lprp" horiz-adv-x="1163" 
d="M346 494q0 -90 -40.5 -140t-113.5 -50t-115 47t-42 143q0 92 43 141t114 49q74 0 114 -47.5t40 -142.5zM271 494q0 65 -17.5 97.5t-61.5 32.5q-81 0 -81 -130q0 -67 19 -98.5t62 -31.5t61 32t18 98zM573 671l-270 -681q-33 6 -63 21l264 670q29 0 69 -10zM772 180
q0 -90 -40.5 -140t-113.5 -50t-115 47t-42 143q0 92 43 141t114 49q74 0 114 -47.5t40 -142.5zM697 180q0 65 -17.5 97.5t-61.5 32.5q-81 0 -81 -130q0 -67 19 -98.5t62 -31.5t61 32t18 98zM1128 180q0 -90 -40.5 -140t-113.5 -50t-115 47t-42 143q0 92 43 141t114 49
q74 0 114 -47.5t40 -142.5zM1053 180q0 65 -17.5 97.5t-61.5 32.5q-81 0 -81 -130q0 -67 19 -98.5t62 -31.5t61 32t18 98z" />
    <glyph glyph-name=".notdef.003" 
 />
    <glyph glyph-name="Euro.allsmall" 
d="M374 188h-185q10 -65 39.5 -93t84.5 -28q67 0 119 27q9 -35 11 -80q-55 -24 -131 -24q-97 0 -148.5 48t-65.5 150h-52v54h47v30q0 30 1 44h-48v54h54q33 185 210 185q79 0 125 -17q0 -45 -11 -80q-51 20 -112 20q-51 0 -79.5 -24.5t-40.5 -83.5h210q0 -22 -9 -54h-208
q-1 -14 -1 -45v-29h199q0 -27 -9 -54z" />
    <glyph glyph-name="onehalf.small" horiz-adv-x="867" 
d="M579 543l-222 -552q-31 5 -57 20l218 544q35 -2 61 -12zM320 226q0 -38 -6 -64h-271v64h123v257l-114 -18q-8 26 -8 60l128 24h62v-323h86zM833 65q0 -38 -4 -65h-265l-3 56q99 68 138.5 114.5t39.5 91.5q0 66 -74 66q-57 0 -89 -17q-9 29 -11 65q45 18 111 18
q61 0 99.5 -32.5t38.5 -94.5q0 -102 -149 -202h168z" />
    <glyph glyph-name="onequarter.small" horiz-adv-x="857" 
d="M579 543l-222 -552q-31 5 -57 20l218 544q35 -2 61 -12zM320 226q0 -38 -6 -64h-271v64h123v257l-114 -18q-8 26 -8 60l128 24h62v-323h86zM843 144q0 -30 -6 -62h-49v-82h-65v82h-191v64q62 115 161 248q36 0 64 -10l-158 -242h126v85h63v-83h55z" />
    <glyph glyph-name="threequarters.small" horiz-adv-x="857" 
d="M579 543l-222 -552q-31 5 -57 20l218 544q35 -2 61 -12zM297 271q0 -58 -43.5 -87.5t-119.5 -29.5q-61 0 -104 17q2 38 11 66q44 -18 92 -18q45 0 67.5 11.5t22.5 42.5q0 33 -20.5 44.5t-63.5 11.5h-65v62h64q42 0 59.5 13t17.5 40q0 46 -79 46q-47 0 -84 -14
q-8 22 -10 64q46 15 106 15q63 0 101.5 -24t38.5 -75q0 -68 -67 -89v-3q76 -19 76 -93zM843 144q0 -30 -6 -62h-49v-82h-65v82h-191v64q62 115 161 248q36 0 64 -10l-158 -242h126v85h63v-83h55z" />
    <glyph glyph-name="minus.allsmall" 
d="M427 231h-353v72h353v-72z" />
    <glyph glyph-name="multiply.allsmall" horiz-adv-x="498" 
d="M444 122l-50 -49l-147 151l-147 -151l-49 49l150 150l-150 148l49 48l147 -151l147 151l50 -48l-150 -148z" />
    <glyph glyph-name="exclam.allsmall" horiz-adv-x="245" 
d="M169 545q0 -169 -12 -368q-28 -5 -68 -7q-14 217 -14 375h94zM175 42q0 -25 -14.5 -39t-37.5 -14q-24 0 -38.5 14t-14.5 39q0 26 15 41t38 15t37.5 -15t14.5 -41z" />
    <glyph glyph-name="quotedbl.allsmall" horiz-adv-x="350" 
d="M146 545l-19 -180q-25 -9 -60 -9l-17 189h96zM300 545l-19 -180q-27 -9 -59 -9l-18 189h96z" />
    <glyph glyph-name="numbersign.allsmall" 
d="M450 417q0 -31 -11 -79h-74l-22 -134h77q0 -33 -10 -78h-81l-20 -126h-61l20 126h-89l-20 -126h-61l20 126h-68q0 39 13 78h69l21 134h-73q0 40 12 79h75l22 128h61l-21 -128h88l22 128h61l-22 -128h72zM282 204l22 134h-89l-22 -134h89z" />
    <glyph glyph-name="dollar.allsmall" 
d="M421 183q0 -55 -39 -93.5t-111 -42.5l2 -47h-74l2 46q-65 3 -118 22q5 49 16 72q68 -24 148 -24q91 0 91 59q0 26 -26.5 41.5t-64.5 24.5t-76 20.5t-64.5 37.5t-26.5 68q0 53 39 89.5t110 43.5l-2 45h74l-2 -43q45 -2 94 -11q0 -35 -10 -71q-62 13 -129 13
q-50 0 -70.5 -13.5t-20.5 -42.5q0 -22 26.5 -35t64.5 -21t76 -20.5t64.5 -42t26.5 -75.5z" />
    <glyph glyph-name="percent.allsmall" horiz-adv-x="742" 
d="M315 400q0 -72 -35.5 -113t-98.5 -41q-65 0 -100 39t-35 115q0 73 36 114t99 41q65 0 99.5 -39.5t34.5 -115.5zM243 400q0 51 -13 73.5t-50 22.5q-35 0 -48.5 -23t-13.5 -73q0 -51 13 -73t49 -22q37 0 50 22.5t13 72.5zM525 545l-246 -556q-27 4 -58 20l240 546
q35 0 64 -10zM697 144q0 -71 -36 -112.5t-99 -41.5q-65 0 -100 39t-35 115q0 72 36 113.5t99 41.5q65 0 100 -39.5t35 -115.5zM625 144q0 51 -13 73.5t-50 22.5q-35 0 -48.5 -23t-13.5 -73t13 -72.5t49 -22.5t49.5 22.5t13.5 72.5z" />
    <glyph glyph-name="ampersand.allsmall" horiz-adv-x="582" 
d="M336 437q0 54 -56 54q-60 0 -60 -63q0 -39 32 -81q49 22 66.5 42t17.5 48zM340 113q-66 77 -125 152q-48 -25 -62.5 -49t-14.5 -62q0 -45 25 -67.5t67 -22.5q55 0 110 49zM449 107l87 -105q-45 -10 -93 -10l-55 65q-82 -67 -166 -67q-85 0 -127.5 43t-42.5 115
q0 58 26.5 96.5t96.5 74.5q-36 55 -36 102q0 62 37 98t105 36q62 0 96 -30.5t34 -84.5q0 -43 -26 -78t-92 -67q51 -67 109 -132q40 41 108 123q11 -56 12 -100q-44 -53 -73 -79z" />
    <glyph glyph-name="quotesingle.allsmall" horiz-adv-x="196" 
d="M146 545l-19 -180q-25 -9 -60 -9l-17 189h96z" />
    <glyph glyph-name="parenleft.allsmall" horiz-adv-x="273" 
d="M247 -53q-34 -8 -76 -8q-59 68 -89 155.5t-30 179.5q0 185 119 332q43 0 76 -9q-48 -65 -76 -150.5t-28 -170.5q0 -87 28 -175t76 -154z" />
    <glyph glyph-name="parenright.allsmall" horiz-adv-x="273" 
d="M26 598q34 8 76 8q59 -68 89 -155.5t30 -179.5q0 -185 -119 -332q-43 0 -76 9q49 64 76.5 149.5t27.5 171.5q0 87 -28 175t-76 154z" />
    <glyph glyph-name="asterisk.allsmall" horiz-adv-x="438" 
d="M383 403l-122 -22l80 -85q-19 -19 -63 -52l-59 107l-55 -101q-42 21 -71 43l85 88l-113 23q5 40 19 80l112 -55l-16 116q46 7 83 7l-18 -123l106 50q18 -35 32 -76z" />
    <glyph glyph-name="plus.allsmall" horiz-adv-x="495" 
d="M454 307v-68h-171v-194h-70v194h-171v68h171v193h70v-193h171z" />
    <glyph glyph-name="comma.allsmall" horiz-adv-x="222" 
d="M163 59q0 -103 -117 -232l-72 26q64 76 85 119.5t21 105.5v35h79q4 -17 4 -54z" />
    <glyph glyph-name="hyphen.small" horiz-adv-x="250" 
d="M217 260h-184v77h184v-77z" />
    <glyph glyph-name="period.allsmall" horiz-adv-x="222" 
d="M165 42q0 -25 -14.5 -39t-37.5 -14t-37.5 14t-14.5 39q0 26 15 41t38 15q22 0 36.5 -15t14.5 -41z" />
    <glyph glyph-name="slash.allsmall" horiz-adv-x="361" 
d="M336 542l-244 -570q-43 8 -68 22l240 561q40 0 72 -13z" />
    <glyph glyph-name="zero.small" 
d="M449 273q0 -283 -198 -283q-96 0 -148 66t-52 217q0 144 53.5 213t146.5 69q98 0 148 -66.5t50 -215.5zM358 273q0 107 -23 154.5t-84 47.5q-60 0 -84.5 -48t-24.5 -154q0 -110 24 -157t85 -47q59 0 83 49t24 155z" />
    <glyph glyph-name="one.small" 
d="M466 0h-392v82h180v378l-165 -26q-11 42 -11 78l178 33h86v-463h131q0 -47 -7 -82z" />
    <glyph glyph-name="two.small" 
d="M199 82h241q0 -40 -6 -82h-355l-5 76q133 94 186 162t53 132q0 100 -101 100q-65 0 -117 -25q-13 39 -15 84q64 26 143 26q86 0 136 -45t50 -133q0 -147 -210 -295z" />
    <glyph glyph-name="three.small" 
d="M413 153q0 -163 -211 -163q-79 0 -141 24q5 48 16 82q62 -25 122 -25q121 0 121 86q0 47 -28 66t-85 19h-84v77h79q57 0 81.5 21t24.5 62q0 72 -104 72q-58 0 -113 -19q-9 28 -13 79q67 21 142 21q180 0 180 -140q0 -94 -92 -124v-6q105 -26 105 -132z" />
    <glyph glyph-name="four.small" 
d="M449 200q0 -43 -8 -80h-70v-120h-83v120h-232v83q94 196 206 352q46 -2 79 -15l-201 -342h151v121h80v-119h78z" />
    <glyph glyph-name="five.small" 
d="M425 163q0 -82 -53 -127.5t-152 -45.5q-70 0 -134 22q6 51 16 79q52 -20 118 -20q61 0 87.5 22.5t26.5 68.5q0 50 -36 73t-110 23q-45 0 -95 -4q3 144 25 291h293q0 -38 -7 -80h-216l-13 -132q250 0 250 -170z" />
    <glyph glyph-name="six.small" 
d="M433 180q0 -89 -49.5 -139.5t-130.5 -50.5q-93 0 -139.5 59.5t-46.5 194.5q0 152 60 231.5t171 79.5q67 0 108 -11q-5 -55 -11 -79q-42 11 -94 11q-139 0 -146 -186h5q38 56 111 56q71 0 116.5 -41t45.5 -125zM347 177q0 100 -93 100q-96 0 -96 -105q0 -52 23.5 -81
t68.5 -29q97 0 97 115z" />
    <glyph glyph-name="seven.small" 
d="M433 470q-109 -228 -261 -481q-53 4 -82 15l251 459h-275q-7 32 -7 82h374v-75z" />
    <glyph glyph-name="eight.small" 
d="M434 146q0 -75 -50 -115.5t-141 -40.5q-178 0 -178 149q0 90 108 141q-95 48 -95 129q0 70 46.5 108t126.5 38q82 0 126 -34.5t44 -102.5q0 -38 -26.5 -71.5t-73.5 -55.5q58 -26 85.5 -60.5t27.5 -84.5zM336 413q0 73 -89 73q-42 0 -63.5 -19.5t-21.5 -51.5q0 -73 93 -95
q39 12 60 37t21 56zM346 149q0 40 -25 64.5t-81 38.5q-43 -12 -65.5 -40t-22.5 -65q0 -43 21.5 -64.5t74.5 -21.5q55 0 76.5 22t21.5 66z" />
    <glyph glyph-name="nine.small" 
d="M67 365q0 89 49.5 139.5t130.5 50.5q93 0 139.5 -59.5t46.5 -194.5q0 -152 -60 -231.5t-171 -79.5q-67 0 -108 11q5 55 11 79q42 -11 94 -11q139 0 146 186h-5q-38 -56 -111 -56q-71 0 -116.5 41t-45.5 125zM153 368q0 -100 93 -100q96 0 96 105q0 52 -23.5 81t-68.5 29
q-97 0 -97 -115z" />
    <glyph glyph-name="colon.allsmall" horiz-adv-x="222" 
d="M166 42q0 -25 -14.5 -39t-37.5 -14q-24 0 -38 13.5t-14 39.5t14.5 41t37.5 15q22 0 37 -15t15 -41zM166 431q0 -25 -14.5 -39.5t-37.5 -14.5q-24 0 -38 14t-14 40t14.5 40.5t37.5 14.5q22 0 37 -15t15 -40z" />
    <glyph glyph-name="semicolon.allsmall" horiz-adv-x="222" 
d="M163 431q0 -25 -14.5 -39.5t-37.5 -14.5q-24 0 -38.5 14t-14.5 40t14.5 40.5t38.5 14.5q23 0 37.5 -15t14.5 -40zM163 59q0 -103 -117 -232l-72 26q64 76 85 119.5t21 105.5v35h79q4 -17 4 -54z" />
    <glyph glyph-name="less.allsmall" horiz-adv-x="402" 
d="M340 45h-89l-205 229l205 226h89v-9l-201 -213l201 -226v-7z" />
    <glyph glyph-name="equal.allsmall" horiz-adv-x="491" 
d="M427 336h-363v67h363v-67zM427 147h-363v67h363v-67z" />
    <glyph glyph-name="greater.allsmall" horiz-adv-x="402" 
d="M356 271l-205 -226h-89v9l201 213l-201 226v7h89z" />
    <glyph glyph-name="question.allsmall" horiz-adv-x="376" 
d="M340 404q0 -60 -42.5 -99t-136.5 -64v-64q-35 -7 -76 -9q-13 69 -13 123q102 20 140 42.5t38 62.5t-25.5 58t-81.5 18q-59 0 -103 -11q-7 35 -7 83q57 11 118 11q86 0 137.5 -36.5t51.5 -114.5zM175 42q0 -26 -14.5 -39.5t-38.5 -13.5q-23 0 -38 14t-15 39t15.5 40
t38.5 15t37.5 -14.5t14.5 -40.5z" />
    <glyph glyph-name="at.small" horiz-adv-x="681" 
d="M620 304q0 -92 -36 -142.5t-96 -50.5q-56 0 -80 36h-3q-40 -34 -94 -34q-44 0 -69.5 23.5t-25.5 67.5q0 47 27.5 69t83.5 25l71 4v60q-26 13 -65 13q-47 0 -76 -13q-8 26 -8 57q34 11 87 11q77 0 121 -29v-204q0 -32 31 -32q69 0 69 139q0 96 -56 144.5t-152 48.5
q-105 0 -164 -59t-59 -172q0 -107 52 -161.5t151 -54.5q60 0 105 18q8 -24 8 -61q-45 -17 -115 -17q-127 0 -196.5 68.5t-69.5 205.5q0 143 81.5 217t209.5 74q120 0 194 -63.5t74 -187.5zM398 185v71l-67 -3q-29 -2 -40 -12t-11 -35q0 -23 10.5 -31.5t36.5 -8.5q39 0 71 19
z" />
    <glyph glyph-name="bracketleft.allsmall" horiz-adv-x="347" 
d="M297 -88h-198v721h198q0 -38 -8 -78h-104v-565h104q8 -42 8 -78z" />
    <glyph glyph-name="backslash.allsmall" horiz-adv-x="361" 
d="M268 -28l-244 570q32 13 72 13l240 -561q-25 -14 -68 -22z" />
    <glyph glyph-name="bracketright.allsmall" horiz-adv-x="347" 
d="M50 633h198v-721h-198q0 38 8 78h104v565h-104q-8 42 -8 78z" />
    <glyph glyph-name="asciicircum.allsmall" horiz-adv-x="495" 
d="M423 312q-34 -7 -79 -7l-97 184l-99 -184q-42 0 -78 6q55 122 124 234h107q72 -121 122 -233z" />
    <glyph glyph-name="underscore.allsmall" 
d="M444 -139h-389v69h398q0 -31 -9 -69z" />
    <glyph glyph-name="braceleft.allsmall" horiz-adv-x="327" 
d="M274 4q0 -43 -6 -70q-116 0 -161 23.5t-45 74.5q0 32 27 64t53.5 57.5t26.5 41.5q0 24 -22 31.5t-94 7.5v74q72 0 94 7.5t22 32.5q0 15 -26.5 40.5t-53.5 57.5t-27 64q0 52 47 75t159 23q6 -25 6 -70q-80 0 -102.5 -6.5t-22.5 -29.5q0 -15 25.5 -41t51.5 -57t26 -58
q0 -28 -19 -45.5t-68 -26.5v-5q49 -9 68 -26.5t19 -46.5q0 -22 -16 -46t-35.5 -41t-35.5 -36.5t-16 -32.5q0 -23 23 -29.5t102 -6.5z" />
    <glyph glyph-name="bar.allsmall" horiz-adv-x="260" 
d="M166 -61h-72v667h72v-667z" />
    <glyph glyph-name="braceright.allsmall" horiz-adv-x="327" 
d="M53 538q0 43 6 70q116 0 161 -23.5t45 -74.5q0 -25 -16.5 -51t-37 -43t-37 -36.5t-16.5 -32.5q0 -24 22 -31.5t94 -7.5v-74q-72 0 -94 -7.5t-22 -32.5q0 -13 16.5 -31.5t37 -36t37 -43.5t16.5 -51q0 -52 -47 -75t-159 -23q-6 26 -6 70q80 0 102.5 6.5t22.5 29.5
q0 15 -26 41t-51.5 57t-25.5 58q0 28 19 45.5t68 26.5v5q-49 9 -68 26.5t-19 46.5q0 27 25.5 57.5t51.5 56.5t26 42q0 23 -23 29.5t-102 6.5z" />
    <glyph glyph-name="asciitilde.small" horiz-adv-x="492" 
d="M466 344q-16 -89 -43 -123.5t-72 -34.5q-37 0 -108.5 46.5t-91.5 46.5q-21 0 -31 -20t-18 -73q-39 0 -74 14q15 91 42.5 125.5t72.5 34.5q36 0 108 -46.5t92 -46.5q21 0 31 19.5t18 73.5q46 0 74 -16z" />
    <glyph glyph-name="dagger.allsmall" 
d="M443 281h-150v-281q-42 -8 -87 -8v289h-150v82h150v182h87v-182h150v-82z" />
    <glyph glyph-name="degree.allsmall" horiz-adv-x="316" 
d="M281 431q0 -56 -34 -91.5t-89 -35.5q-58 0 -90.5 33.5t-32.5 91.5q0 56 34 91t89 35q57 0 90 -33.5t33 -90.5zM227 431q0 35 -19 56t-50 21t-50 -21.5t-19 -55.5q0 -36 18.5 -57.5t50.5 -21.5t50.5 21.5t18.5 57.5z" />
    <glyph glyph-name="cent.allsmall" 
d="M433 77q-36 -20 -101 -26l2 -51h-76l2 53q-186 11 -186 215q0 106 51.5 162.5t134.5 62.5l-2 52h76l-2 -51q57 -2 94 -16q-4 -45 -16 -76q-48 18 -114 18t-97 -34.5t-31 -111.5q0 -90 32.5 -119t107.5 -29q65 0 109 26q12 -31 16 -75z" />
    <glyph glyph-name="sterling.allsmall" 
d="M457 76q0 -40 -9 -76h-355v70q45 13 65.5 34t20.5 61q0 28 -34 89h-84v66h53q-18 38 -18 71q0 76 49.5 120t146.5 44q69 0 128 -14q0 -43 -11 -81q-45 17 -120 17q-55 0 -79.5 -20t-24.5 -66q0 -29 23 -71h198q0 -36 -8 -66h-158q28 -52 28 -82q0 -60 -57 -96h246z" />
    <glyph glyph-name="section.allsmall" 
d="M39 187q0 86 100 128q34 -16 62 -40q-77 -28 -77 -77q0 -30 29.5 -48t71 -27.5t83 -21t71 -38t29.5 -68.5q0 -61 -46.5 -97.5t-136.5 -36.5q-73 0 -131 12q6 54 12 73q62 -16 129 -16q87 0 87 55q0 24 -29 38t-71 23t-83.5 22t-70.5 43t-29 76zM461 229q0 -86 -100 -128
q-34 16 -62 40q77 28 77 77q0 30 -29.5 48t-71 27.5t-83 21t-71 38t-29.5 68.5q0 61 46.5 97.5t136.5 36.5q73 0 131 -12q-5 -47 -12 -73q-62 16 -129 16q-87 0 -87 -55q0 -24 29 -38t71 -23t83.5 -22t70.5 -43t29 -76z" />
    <glyph glyph-name="bullet.allsmall" horiz-adv-x="352" 
d="M277 276q0 -46 -29 -74t-73 -28t-72 28t-28 74q0 48 28 77t72 29t73 -29.5t29 -76.5z" />
    <glyph glyph-name="paragraph.allsmall" 
d="M422 124q0 -94 -32 -154t-111 -109l-33 44q68 43 93 93t25 125v364q-32 10 -80 10v-374q0 -60 -17 -95t-64 -67l-34 45q32 20 45 45t13 64v81h-14q-73 0 -113.5 41.5t-40.5 126.5q0 97 53.5 144t140.5 47q91 0 169 -23v-408z" />
    <glyph glyph-name="germandbls.small" horiz-adv-x="926" 
d="M869 150q0 -73 -51 -116.5t-140 -43.5q-97 0 -157 26q7 46 20 82q63 -27 141 -27q93 0 93 72q0 30 -26.5 52t-63.5 38t-74.5 34.5t-64 52t-26.5 79.5q0 73 55 114.5t144 41.5q71 0 124 -13q-4 -46 -14 -83q-62 15 -118 15q-55 0 -75 -16.5t-20 -52.5q0 -26 26 -45.5
t63 -35t74.5 -34.5t63.5 -54.5t26 -85.5zM406 150q0 -73 -51 -116.5t-140 -43.5q-97 0 -157 26q7 46 20 82q63 -27 141 -27q93 0 93 72q0 30 -26.5 52t-64 38t-74.5 34.5t-63.5 52t-26.5 79.5q0 73 55 114.5t144 41.5q71 0 124 -13q-4 -46 -14 -83q-62 15 -118 15
q-55 0 -75 -16.5t-20 -52.5q0 -26 26 -45.5t63.5 -35t74.5 -34.5t63 -54.5t26 -85.5z" />
    <glyph glyph-name="registered.allsmall" horiz-adv-x="462" 
d="M322 261q-17 -4 -42 -4l-17 34q-18 34 -35 53h-32v-85h-38v218q36 4 73 4q76 0 76 -64q0 -46 -45 -60q17 -16 35 -48zM267 414q0 33 -40 33q-19 0 -31 -1v-69h27q44 0 44 37zM412 372q0 -83 -50.5 -134t-130.5 -51t-130.5 50.5t-50.5 134.5q0 81 50.5 132t130.5 51
q78 0 129.5 -50t51.5 -133zM383 371q0 70 -42 113.5t-110 43.5q-71 0 -111.5 -43t-40.5 -114q0 -69 41.5 -113t110.5 -44q70 0 111 42.5t41 114.5z" />
    <glyph glyph-name="copyright.allsmall" horiz-adv-x="680" 
d="M619 274q0 -128 -76.5 -206t-203.5 -78q-126 0 -202 77.5t-76 206.5q0 126 76.5 203.5t201.5 77.5q123 0 201.5 -76t78.5 -205zM457 116q-40 -22 -103 -22q-79 0 -121.5 45.5t-42.5 131.5q0 87 44.5 131t116.5 44q64 0 98 -17q-2 -37 -9 -58q-36 17 -86 17q-47 0 -71 -26
t-24 -92q0 -63 23 -91t73 -28q57 0 92 24q8 -26 10 -59zM578 272q0 112 -66 179t-173 67q-112 0 -175.5 -66.5t-63.5 -178.5q0 -110 65.5 -178t173.5 -68q110 0 174.5 65.5t64.5 179.5z" />
    <glyph glyph-name="trademark.allsmall" horiz-adv-x="763" 
d="M280 545q0 -31 -6 -58h-90v-251h-65v251h-94v58h255zM705 237q-24 -3 -60 -3l-18 182q-2 22 -2 35h-5q-1 -16 -11 -39l-74 -176h-64l-77 183q-5 14 -7 32h-5q0 -23 -2 -35l-23 -182q-15 0 -54 3q11 150 39 308h68l87 -212q4 -10 6 -26h5q1 10 7 26l86 212h68
q23 -136 36 -308z" />
    <glyph glyph-name="notequal.allsmall" horiz-adv-x="491" 
d="M427 147h-240l-76 -115h-47l76 115h-76v67h120l82 122h-202v67h246l68 104h49l-68 -104h68v-67h-113l-82 -122h195v-67z" />
    <glyph glyph-name="infinity.allsmall" horiz-adv-x="761" 
d="M218 95q-74 0 -117 48t-43 132q0 76 42 124t120 48q47 0 86 -23t77 -81q35 57 73 80.5t89 23.5q73 0 115 -48t42 -128q0 -79 -42 -127.5t-115 -48.5q-99 0 -167 104q-63 -104 -160 -104zM543 167q41 0 62.5 27.5t21.5 78.5t-23.5 77t-63.5 26q-41 0 -71 -24.5t-56 -78.5
q50 -106 130 -106zM225 167q79 0 122 103q-50 106 -124 106q-88 0 -88 -105q0 -104 90 -104z" />
    <glyph glyph-name="plusminus.allsmall" horiz-adv-x="446" 
d="M386 309h-131v-130h-66v130h-129v64h129v127h66v-127h131v-64zM386 45h-326v67h326v-67z" />
    <glyph glyph-name="lessequal.allsmall" horiz-adv-x="445" 
d="M363 150h-93l-191 175l191 175h92v-9l-190 -162l191 -170v-9zM385 45h-325v66h325v-66z" />
    <glyph glyph-name="greaterequal.allsmall" horiz-adv-x="445" 
d="M174 500l192 -175l-192 -175h-91v9l189 164l-190 168v9h92zM385 45h-325v66h325v-66z" />
    <glyph glyph-name="yen.allsmall" 
d="M461 541q-59 -141 -137 -278h111q0 -29 -7 -67h-133v-196h-87v196h-137v67h108q-63 107 -136 278q38 8 87 8l107 -235q9 -19 15 -41h6q5 19 14 41l108 235q35 0 81 -8z" />
    <glyph glyph-name="mu.allsmall" horiz-adv-x="588" 
d="M491 0h-90v45h-5q-72 -55 -143 -55q-45 0 -67 23v-219h-89v725q50 6 89 6v-370q0 -84 89 -84q65 0 126 36v412q48 6 90 6v-525z" />
    <glyph glyph-name="partialdiff.allsmall" horiz-adv-x="514" 
d="M455 275q0 -146 -48 -215.5t-149 -69.5q-198 0 -198 189q0 94 54 142t145 48q52 0 100 -12q-5 64 -38 95t-102 31q-64 0 -119 -19q0 44 6 74q50 17 120 17q52 0 90.5 -12.5t71.5 -42t50 -86.5t17 -139zM365 235q0 32 -1 52q-45 15 -98 15q-114 0 -114 -121
q0 -63 25.5 -92.5t80.5 -29.5q54 0 80.5 38t26.5 138z" />
    <glyph glyph-name="summation.allsmall" horiz-adv-x="504" 
d="M176 79h274q0 -35 -9 -79h-387v75l222 207l-208 188v75h366q0 -16 -7 -79h-235l170 -155v-59z" />
    <glyph glyph-name="product.allsmall" horiz-adv-x="617" 
d="M518 0h-93v463h-232v-463h-94v545h419v-545z" />
    <glyph glyph-name="pi.allsmall" horiz-adv-x="617" 
d="M518 0h-93v463h-232v-463h-94v545h419v-545z" />
    <glyph glyph-name="integral.allsmall" horiz-adv-x="315" 
d="M318 551q0 -42 -6 -81q-15 3 -50 3q-68 0 -68 -83v-359q0 -76 -46 -123t-115 -47q-24 0 -52 4q0 42 6 81q15 -3 50 -3q67 0 67 83v359q0 77 46 123.5t116 46.5q24 0 52 -4z" />
    <glyph glyph-name="ordfeminine.allsmall" horiz-adv-x="380" 
d="M362 220q-32 -6 -68 -6l-36 88h-139l-34 -88q-42 0 -66 6q57 159 132 325h79q77 -173 132 -325zM239 354l-42 107q-6 15 -7 28h-4q-1 -13 -7 -28l-42 -107h102z" />
    <glyph glyph-name="ordmasculine.allsmall" horiz-adv-x="380" 
d="M345 380q0 -80 -44 -124.5t-113 -44.5q-71 0 -112 42t-41 127q0 79 43 124.5t112 45.5q71 0 113 -41t42 -129zM272 380q0 112 -82 112t-82 -112q0 -111 80 -111q84 0 84 111z" />
    <glyph glyph-name="Omega.allsmall" horiz-adv-x="611" 
d="M557 0h-224l-4 66q130 48 130 235q0 92 -38.5 133.5t-116.5 41.5q-151 0 -151 -176q0 -96 34 -155t95 -79l-3 -66h-225v77h120v4q-112 70 -112 225q0 118 63.5 183.5t180.5 65.5q118 0 180.5 -65.5t62.5 -182.5q0 -152 -112 -226v-4h120v-77z" />
    <glyph glyph-name="questiondown.allsmall" horiz-adv-x="376" 
d="M34 140q0 60 42 99t136 64v64q35 7 76 9q14 -74 14 -123q-103 -21 -141 -43.5t-38 -62.5q0 -76 107 -76q52 0 103 11q8 -40 8 -81q-58 -11 -118 -11q-86 0 -137.5 36t-51.5 114zM199 502q0 25 14.5 39t37.5 14t38 -14t15 -39q0 -26 -15.5 -41t-38.5 -15q-22 0 -36.5 15
t-14.5 41z" />
    <glyph glyph-name="exclamdown.allsmall" horiz-adv-x="245" 
d="M78 0q0 168 12 367q37 7 68 7q14 -217 14 -374h-94zM73 502q0 26 14 40t37 14q24 0 38.5 -14t14.5 -40t-15 -40.5t-38 -14.5t-37 14.5t-14 40.5z" />
    <glyph glyph-name="logicalnot.allsmall" horiz-adv-x="498" 
d="M454 140q-32 -7 -73 -7v158h-346v74h419v-225z" />
    <glyph glyph-name="radical.allsmall" horiz-adv-x="523" 
d="M525 674q0 -43 -7 -79h-97l-78 -595h-89q-126 256 -235 530q40 9 85 9l164 -368q12 -25 20 -55h7q0 28 4 60l58 498h168z" />
    <glyph glyph-name="florin.allsmall" 
d="M418 551q0 -41 -6 -82q-20 4 -51 4q-38 0 -60.5 -23t-22.5 -68v-76h160q0 -33 -7 -77h-153v-322h-90v322h-134v77h134v69q0 83 49.5 131.5t127.5 48.5q27 0 53 -4z" />
    <glyph glyph-name="approxequal.allsmall" horiz-adv-x="496" 
d="M438 346q-41 -36 -88 -36q-34 0 -97.5 21.5t-96.5 21.5q-54 0 -98 -41v67q44 41 98 41q33 0 96 -21t97 -21q46 0 89 36v-68zM438 157q-40 -35 -88 -35q-34 0 -97.5 21.5t-96.5 21.5q-52 0 -98 -41v66q44 41 98 41q33 0 96 -21t97 -21q44 0 89 36v-68z" />
    <glyph glyph-name="Delta.allsmall" horiz-adv-x="499" 
d="M489 0h-479q89 289 189 545h103q104 -278 187 -545zM371 79l-113 342q-7 20 -9 44h-6q-1 -21 -9 -44l-113 -342h250z" />
    <glyph glyph-name="guillemotleft.small" horiz-adv-x="481" 
d="M242 56l-73 -13l-139 220l139 220l73 -14l-122 -207zM452 56l-73 -13l-139 220l139 220l73 -14l-122 -207z" />
    <glyph glyph-name="guillemotright.small" horiz-adv-x="481" 
d="M452 263l-140 -220l-72 14l121 207l-121 206l72 13zM242 263l-139 -220l-73 14l122 207l-122 206l73 13z" />
    <glyph glyph-name="ellipsis.allsmall" horiz-adv-x="651" 
d="M159 41q0 -25 -14.5 -39t-37.5 -14q-24 0 -38.5 13.5t-14.5 39.5t15 40.5t38 14.5t37.5 -15t14.5 -40zM376 41q0 -25 -14.5 -39t-37.5 -14q-24 0 -38.5 13.5t-14.5 39.5t14.5 40.5t38.5 14.5q23 0 37.5 -14.5t14.5 -40.5zM593 41q0 -25 -14.5 -39t-37.5 -14
q-24 0 -38.5 13.5t-14.5 39.5t14.5 40.5t38.5 14.5q23 0 37.5 -14.5t14.5 -40.5z" />
    <glyph glyph-name="endash.small" 
d="M444 231h-389v69h398q0 -39 -9 -69z" />
    <glyph glyph-name="emdash.small" horiz-adv-x="1000" 
d="M929 231h-861v69h869q0 -39 -8 -69z" />
    <glyph glyph-name="quotedblleft.allsmall" horiz-adv-x="408" 
d="M225 395q0 61 25 97.5t88 61.5q20 -22 30 -51q-47 -16 -63 -34.5t-16 -52.5h38q13 -42 13 -91h-115v70zM42 395q0 61 25 97.5t88 61.5q19 -24 29 -51q-47 -16 -63 -35t-16 -52h39q12 -43 12 -91h-114v70z" />
    <glyph glyph-name="quotedblright.allsmall" horiz-adv-x="408" 
d="M183 475q0 -61 -25 -97.5t-88 -61.5q-16 17 -30 51q47 16 63.5 35t16.5 52h-39q-13 45 -13 91h115v-70zM367 475q0 -61 -25 -97.5t-88 -61.5q-19 20 -30 51q47 16 63 34.5t16 52.5h-39q-12 41 -12 91h115v-70z" />
    <glyph glyph-name="quoteleft.allsmall" horiz-adv-x="225" 
d="M42 395q0 61 25 97.5t88 61.5q19 -24 29 -51q-47 -16 -63 -35t-16 -52h39q12 -43 12 -91h-114v70z" />
    <glyph glyph-name="quoteright.allsmall" horiz-adv-x="225" 
d="M183 475q0 -61 -25 -97.5t-88 -61.5q-16 17 -30 51q47 16 63.5 35t16.5 52h-39q-13 45 -13 91h115v-70z" />
    <glyph glyph-name="divide.allsmall" horiz-adv-x="408" 
d="M256 86q0 -26 -14.5 -40t-37.5 -14t-37.5 14t-14.5 40t14.5 40.5t38.5 14.5q22 0 36.5 -14.5t14.5 -40.5zM256 459q0 -25 -14.5 -39t-37.5 -14t-37.5 14t-14.5 39q0 26 14.5 40.5t38.5 14.5q22 0 36.5 -14.5t14.5 -40.5zM346 244h-283v60h283v-60z" />
    <glyph glyph-name="lozenge.allsmall" horiz-adv-x="466" 
d="M416 235q-64 -122 -147 -245h-78q-78 117 -147 245v62q69 132 147 248h78q84 -120 147 -248v-62zM347 267l-117 204l-116 -202l118 -205z" />
    <glyph glyph-name="currency.allsmall" 
d="M374 188h-185q10 -65 39.5 -93t84.5 -28q67 0 119 27q9 -35 11 -80q-55 -24 -131 -24q-97 0 -148.5 48t-65.5 150h-52v54h47v30q0 30 1 44h-48v54h54q33 185 210 185q79 0 125 -17q0 -45 -11 -80q-51 20 -112 20q-51 0 -79.5 -24.5t-40.5 -83.5h210q0 -22 -9 -54h-208
q-1 -14 -1 -45v-29h199q0 -27 -9 -54z" />
    <glyph glyph-name="guilsinglleft.small" horiz-adv-x="272" 
d="M242 56l-73 -13l-139 220l139 220l73 -14l-122 -207z" />
    <glyph glyph-name="guilsinglright.small" horiz-adv-x="272" 
d="M242 263l-139 -220l-73 14l122 207l-122 206l73 13z" />
    <glyph glyph-name="fi.small" horiz-adv-x="767" 
d="M425 545q0 -43 -6 -79h-226v-162h185v-79h-185v-225h-94v545h326zM668 0h-94v545h94v-545z" />
    <glyph glyph-name="fl.small" horiz-adv-x="924" 
d="M425 545q0 -43 -6 -79h-226v-162h185v-79h-185v-225h-94v545h326zM896 83q0 -47 -8 -83h-314v545h94v-462h228z" />
    <glyph glyph-name="daggerdbl.allsmall" 
d="M443 130h-150v-130q-42 -8 -87 -8v138h-150v78h150v113h-150v77h150v147h87v-147h150v-77h-150v-113h150v-78z" />
    <glyph glyph-name="periodcentered.small" horiz-adv-x="217" 
d="M162 285q0 -25 -14.5 -39t-37.5 -14q-24 0 -38 14t-14 39q0 26 14.5 40.5t38.5 14.5q22 0 36.5 -14.5t14.5 -40.5z" />
    <glyph glyph-name="quotesinglbase.allsmall" horiz-adv-x="225" 
d="M183 145q0 -61 -25 -97.5t-88 -61.5q-16 17 -30 51q47 16 63.5 35t16.5 52h-39q-13 45 -13 91h115v-70z" />
    <glyph glyph-name="quotedblbase.allsmall" horiz-adv-x="408" 
d="M183 145q0 -61 -25 -97.5t-88 -61.5q-16 17 -30 51q47 16 63.5 35t16.5 52h-39q-13 45 -13 91h115v-70zM367 145q0 -61 -25 -97.5t-88 -61.5q-19 20 -30 51q47 16 63 34.5t16 52.5h-39q-12 41 -12 91h115v-70z" />
    <glyph glyph-name="perthousand.allsmall" horiz-adv-x="1056" 
d="M315 400q0 -72 -35.5 -113t-98.5 -41q-65 0 -100 39t-35 115q0 73 36 114t99 41q65 0 99.5 -39.5t34.5 -115.5zM243 400q0 51 -13 73.5t-50 22.5q-35 0 -48.5 -23t-13.5 -73q0 -51 13 -73t49 -22q37 0 50 22.5t13 72.5zM525 545l-246 -556q-27 4 -58 20l240 546
q35 0 64 -10zM697 144q0 -71 -36 -112.5t-99 -41.5q-65 0 -100 39t-35 115q0 72 36 113.5t99 41.5q65 0 100 -39.5t35 -115.5zM625 144q0 51 -13 73.5t-50 22.5q-35 0 -48.5 -23t-13.5 -73t13 -72.5t49 -22.5t49.5 22.5t13.5 72.5zM1010 144q0 -72 -35.5 -113t-98.5 -41
q-65 0 -100 39t-35 115q0 73 36 114t99 41q65 0 99.5 -39.5t34.5 -115.5zM938 144q0 51 -12.5 73.5t-50.5 22.5q-35 0 -48.5 -23t-13.5 -73t13 -72.5t49 -22.5q37 0 50 22.5t13 72.5z" />
    <glyph glyph-name=".notdef.004" 
 />
    <glyph glyph-name="Eth.alt" horiz-adv-x="713" 
d="M652 351q0 -173 -81.5 -266.5t-215.5 -93.5q-135 0 -226 14v307h-60v82h60v167q0 21 -6.5 27.5t-25.5 6.5h-47v24q0 65 73 65q55 0 87 -30q63 30 162 30q129 0 204.5 -81t75.5 -252zM547 341q0 257 -195 257q-68 0 -125 -15v-189h110q0 -40 -9 -82h-101v-229
q62 -6 123 -6q197 0 197 264z" />
    <glyph glyph-name="lslash.alt" horiz-adv-x="283" 
d="M179 0h-90v320l-49 -16v84l49 16v333q42 7 90 7v-311l54 18q0 -43 -8 -86l-46 -15v-350z" />
    <glyph glyph-name="Yacute.alt" horiz-adv-x="565" 
d="M544 669q-99 -222 -206 -415v-254h-97v254l-160 307q-11 21 -18 27.5t-23 6.5h-39v26q0 63 71 63q34 0 55.5 -17t41.5 -58l103 -213q9 -21 19 -52h7q7 28 19 54l133 279q48 0 94 -8zM393 815q-25 -56 -86 -110q-16 0 -79 7l67 103h98z" />
    <glyph glyph-name="yacute.alt" horiz-adv-x="513" 
d="M487 518l-171 -502q-41 -121 -94 -176.5t-123 -55.5q-56 0 -92 19q5 47 18 83q35 -15 79 -15q57 0 86 66l27 63q-112 260 -179 518q44 7 88 7l117 -369q10 -29 17 -62h4q6 31 16 63l119 368q53 0 88 -7zM384 731q-28 -80 -97 -159q-42 0 -69 7l72 152h94z" />
    <glyph glyph-name="Zcaron.alt" horiz-adv-x="565" 
d="M537 7q0 -74 -67 -74h-18v36q0 18 -7 24.5t-27 6.5h-365l-6 76l341 512h-321q-6 44 -6 86h435l7 -76l-342 -512h287q89 0 89 -79zM418 812q-54 -76 -80 -104h-129q-38 43 -79 103q31 6 78 6l66 -74l67 74q40 0 77 -5z" />
    <glyph glyph-name="zcaron.alt" horiz-adv-x="475" 
d="M429 0h-383l-9 73l278 371h-251q-6 39 -6 78h354l9 -73l-277 -371h275q8 -32 10 -78zM82 727q34 7 78 7l76 -108l76 108q40 0 76 -6q-39 -72 -97 -153h-112q-55 74 -97 152z" />
    <glyph glyph-name="ampersand.alt" horiz-adv-x="702" 
d="M641 325q0 -162 -82 -248.5t-225 -86.5q-120 0 -184 59.5t-74 183.5h-58q0 31 7 63h53q12 109 66.5 160t137.5 51q90 0 137 -51t47 -149q0 -32 -4 -78h-294q0 -78 39 -118.5t129 -40.5q107 0 163 61t56 196q0 143 -70 210t-190 67q2 47 15 80q162 0 246.5 -98t84.5 -261z
M381 326q0 61 -25.5 87t-75.5 26q-108 0 -111 -143h211q1 8 1 30z" />
    <glyph glyph-name="at.alt" horiz-adv-x="841" 
d="M500 183v264q-35 16 -72 16q-58 0 -86.5 -36t-28.5 -124q0 -85 23 -117t72 -32q51 0 92 29zM780 348q0 -120 -43 -189.5t-118 -69.5q-86 0 -109 52h-3q-56 -53 -119 -53q-153 0 -153 207q0 116 49 173.5t137 57.5q35 0 77 -11q18 9 47 9q15 0 28 -3v-323q0 -51 49 -51
q92 0 92 201q0 136 -76 205t-208 69q-145 0 -224.5 -82.5t-79.5 -240.5q0 -306 279 -306q80 0 137 25q11 -31 11 -65q-62 -23 -151 -23q-164 0 -252.5 94.5t-88.5 275.5q0 98 29 173t80.5 120t118 68t144.5 23q157 0 252 -87t95 -249z" />
    <glyph glyph-name="A.alt" horiz-adv-x="581" 
d="M566 6q-32 -9 -94 -11l-66 205h-230l-39 -123q-14 -45 -36 -66t-60 -21q-37 0 -54 16t-17 51v22h41q20 0 27.5 7.5t15.5 30.5l189 557h103q125 -355 220 -668zM382 280l-80 251q-8 24 -8 48h-7q0 -17 -7 -48l-80 -251h182z" />
    <glyph glyph-name="B.alt" horiz-adv-x="617" 
d="M441 498q0 108 -119 108q-44 0 -98 -15v-210h107q50 0 80 30t30 87zM460 196q0 53 -32 82.5t-90 29.5h-114v-233q58 -6 101 -6q135 0 135 127zM562 190q0 -101 -65 -150t-170 -49q-86 0 -198 14v556q0 21 -6.5 27.5t-25.5 6.5h-47v24q0 65 72 65q59 0 88 -32
q55 32 132 32q91 0 143 -44t52 -132q0 -56 -27 -95t-70 -58v-7q122 -36 122 -158z" />
    <glyph glyph-name="D.alt" horiz-adv-x="713" 
d="M547 341q0 257 -195 257q-68 0 -125 -15v-500q62 -6 123 -6q197 0 197 264zM652 351q0 -173 -81.5 -266.5t-215.5 -93.5q-135 0 -226 14v556q0 21 -6.5 27.5t-25.5 6.5h-47v24q0 65 73 65q55 0 87 -30q63 30 162 30q129 0 204.5 -81t75.5 -252z" />
    <glyph glyph-name="H.alt" horiz-adv-x="712" 
d="M670 57q0 -67 -79 -67q-101 0 -101 112v209h-293v-311h-98v674h98v-276h293v276h98v-559q0 -21 7.5 -28.5t28.5 -7.5h46v-22z" />
    <glyph glyph-name="J.alt" horiz-adv-x="336" 
d="M237 60q0 -206 -186 -218q-12 40 -14 91q56 3 79 29t23 85v514q0 20 -7 27t-26 7h-45v22q0 67 80 67q96 0 96 -106v-518z" />
    <glyph glyph-name="K.alt" horiz-adv-x="627" 
d="M606 52q0 -62 -69 -62q-34 0 -54.5 15.5t-46.5 55.5l-159 256l-81 -94v-223h-97v674h97v-322h4l274 327q61 0 103 -11l-239 -281l179 -275q14 -21 23.5 -27t27.5 -6h38v-27z" />
    <glyph glyph-name="M.alt" horiz-adv-x="867" 
d="M787 4q-41 -7 -93 -7l-38 482q-1 14 -1 64h-7q-4 -38 -12 -64l-151 -479h-91l-152 479q-6 16 -11 64h-7q0 -38 -2 -64l-35 -384q-5 -56 -26 -80.5t-65 -24.5q-75 0 -75 67v22h44q20 0 27 7.5t9 28.5l58 559h110l156 -488q9 -27 15 -75h7q4 46 13 76l154 487h112
q40 -359 61 -670z" />
    <glyph glyph-name="N.alt" horiz-adv-x="713" 
d="M614 3q-50 -8 -90 -8l-278 473q-21 39 -32 74l-8 -1q6 -42 6 -77v-366q0 -108 -96 -108q-33 0 -54 17t-21 50v21h46q21 0 28.5 8t7.5 28v553q45 9 102 9l265 -453q21 -35 33 -73l8 1q-6 50 -6 77v446h89v-671z" />
    <glyph glyph-name="P.alt" horiz-adv-x="611" 
d="M546 466q0 -109 -66 -165t-164 -56h-91v-245h-96v561q0 20 -6.5 27t-26.5 7h-46v24q0 65 72 65q57 0 88 -31q53 31 116 31q99 0 159.5 -50.5t60.5 -167.5zM448 464q0 75 -33.5 106.5t-95.5 31.5q-45 0 -94 -13v-263h78q145 0 145 138z" />
    <glyph glyph-name="Q.alt" horiz-adv-x="677" 
d="M928 -126l-39 -76q-78 47 -143 47q-34 0 -135.5 -20t-131.5 -20q-84 0 -134.5 47t-52.5 143q-231 28 -231 338q0 171 73 261t205 90q133 0 205 -86.5t72 -260.5q0 -157 -61 -243t-174 -97q2 -107 106 -107q27 0 122.5 21t138.5 21t83 -11t97 -47zM511 337
q0 143 -42.5 202.5t-130.5 59.5q-89 0 -130.5 -59t-41.5 -203q0 -139 40.5 -200.5t132.5 -61.5q91 0 131.5 60.5t40.5 201.5z" />
    <glyph glyph-name="R.alt" horiz-adv-x="633" 
d="M443 483q0 119 -124 119q-50 0 -94 -13v-238h82q68 0 102 31.5t34 100.5zM610 52q0 -62 -67 -62q-33 0 -56 16.5t-45 57.5l-116 210h-101v-274h-96v561q0 21 -6.5 27.5t-25.5 6.5h-47v24q0 65 72 65q59 0 88 -30q53 30 124 30q92 0 150 -48.5t58 -147.5q0 -70 -33 -118
t-95 -67l108 -188q12 -21 22 -28.5t29 -7.5h37v-27z" />
    <glyph glyph-name="T.alt" horiz-adv-x="526" 
d="M500 674q0 -46 -9 -86h-169v-588h-97v588h-103q-21 0 -28.5 -7.5t-7.5 -26.5v-39h-18q-66 0 -66 73q0 43 26 64.5t71 21.5h401z" />
    <glyph glyph-name="U.alt" horiz-adv-x="695" 
d="M597 269q0 -138 -56 -208.5t-185 -70.5q-122 0 -181.5 61.5t-59.5 217.5v291q0 20 -8 27.5t-28 7.5h-46v22q0 67 79 67q48 0 74.5 -27t26.5 -81v-325q0 -96 31 -134t114 -38q77 0 112.5 40.5t35.5 131.5v423h91v-405z" />
    <glyph glyph-name="V.alt" horiz-adv-x="598" 
d="M568 669q-95 -348 -212 -669h-106l-180 558q-7 21 -14.5 29t-24.5 8h-42v26q0 63 70 63q77 0 102 -86l132 -439q4 -14 11 -55h7q3 28 11 55l157 518q52 0 89 -8z" />
    <glyph glyph-name="W.alt" horiz-adv-x="925" 
d="M868 669q-54 -296 -151 -669h-102l-134 475q-8 29 -11 70h-7q-4 -40 -13 -71l-132 -474h-104l-126 558q-4 21 -13 29t-26 8h-42v26q0 63 70 63q83 0 101 -87l85 -408q4 -21 9 -67h7q3 35 12 66l137 486h88l131 -487q8 -29 13 -65h7q5 45 9 65l107 491q49 0 85 -9z" />
    <glyph glyph-name="X.alt" horiz-adv-x="613" 
d="M580 5q-47 -10 -108 -10l-143 249q-5 7 -22 44h-6q-7 -21 -20 -44l-108 -183q-24 -41 -44 -56t-52 -15q-36 0 -52.5 16t-16.5 51v22h44q16 0 25 7.5t22 28.5l143 232l-196 322q54 8 111 8l136 -232q6 -10 18 -39h6q10 26 19 41l130 230q58 0 104 -8l-192 -319z" />
    <glyph glyph-name="Y.alt" horiz-adv-x="565" 
d="M544 669q-99 -222 -206 -415v-254h-97v254l-160 307q-11 21 -18 27.5t-23 6.5h-39v26q0 63 71 63q34 0 55.5 -17t41.5 -58l103 -213q9 -21 19 -52h7q7 28 19 54l133 279q48 0 94 -8z" />
    <glyph glyph-name="Z.alt" horiz-adv-x="565" 
d="M537 7q0 -74 -67 -74h-18v36q0 18 -7 24.5t-27 6.5h-365l-6 76l341 512h-321q-6 44 -6 86h435l7 -76l-342 -512h287q89 0 89 -79z" />
    <glyph glyph-name="underscore.alt" 
d="M444 -139h-389v69h398q0 -31 -9 -69z" />
    <glyph glyph-name="a.alt" horiz-adv-x="576" 
d="M382 105v329q-37 18 -89 18q-70 0 -103.5 -43.5t-33.5 -152.5q0 -106 27.5 -145.5t87.5 -39.5t111 34zM472 526v-413q0 -19 6 -26.5t24 -7.5h58v-27q0 -62 -69 -62q-72 0 -99 62h-3q-66 -62 -142 -62q-187 0 -187 255q0 143 60.5 215t168.5 72q43 0 93 -15q21 12 57 12
q18 0 33 -3z" />
    <glyph glyph-name="d.alt" horiz-adv-x="584" 
d="M390 106v325q-41 22 -97 22q-70 0 -103.5 -44t-33.5 -153q0 -105 27.5 -145t87.5 -40q68 0 119 35zM568 52q0 -62 -68 -62q-75 0 -99 63h-4q-67 -63 -154 -63q-88 0 -135.5 63.5t-47.5 191.5q0 287 229 287q50 0 101 -18v223q42 7 90 7v-631q0 -19 6.5 -26.5t23.5 -7.5
h58v-27z" />
    <glyph glyph-name="f.alt" horiz-adv-x="355" 
d="M326 740q0 -50 -6 -81q-21 3 -48 3q-34 0 -49 -18t-15 -56v-66h117q0 -34 -7 -78h-110v-498q0 -72 -44 -117t-111 -45q-25 0 -51 4q0 49 6 81q15 -3 48 -3t48 17t15 57v504h-62v78h62v60q0 75 46 118.5t110 43.5q25 0 51 -4z" />
    <glyph glyph-name="g.alt" horiz-adv-x="538" 
d="M496 -34q0 -83 -58.5 -132.5t-170.5 -49.5q-206 0 -206 152q0 58 50 109q-22 35 -29 70q19 69 56 117q-60 41 -60 126q0 78 48.5 126t132.5 48q29 0 56 -6q0 72 33.5 106.5t91.5 34.5q56 0 56 -51v-29h-49q-65 0 -65 -67v-25q61 -48 61 -134q0 -82 -49 -124t-126 -42
q-36 0 -72 10q-30 -38 -30 -69q0 -32 30 -32h156q70 0 107 -32t37 -106zM410 -42q0 37 -13.5 50t-48.5 13h-183q-23 -24 -23 -67q0 -51 28 -73t101 -22q139 0 139 99zM359 364q0 103 -98 103q-96 0 -96 -103q0 -102 96 -102q98 0 98 102z" />
    <glyph glyph-name="h.alt" horiz-adv-x="585" 
d="M493 0h-90v369q0 40 -20 61t-67 21q-68 0 -130 -41v-410h-89v737q42 7 89 7v-271h5q69 59 154 59q68 0 108 -38t40 -120v-374z" />
    <glyph glyph-name="i.alt" horiz-adv-x="283" 
d="M194 666q0 -24 -13.5 -39.5t-39.5 -15.5q-25 0 -38.5 16t-13.5 39q0 24 13.5 40.5t39.5 16.5q25 0 38.5 -16.5t13.5 -40.5zM186 0h-89v522h89v-522z" />
    <glyph glyph-name="k.alt" horiz-adv-x="518" 
d="M496 4q-37 -8 -95 -8l-145 249l-70 -78v-167h-89v737q42 7 89 7v-455h5l208 241q58 -6 92 -17l-177 -200q91 -146 182 -309z" />
    <glyph glyph-name="l.alt" horiz-adv-x="283" 
d="M186 0h-89v737q42 7 89 7v-744z" />
    <glyph glyph-name="m.alt" horiz-adv-x="851" 
d="M759 0h-90v369q0 82 -83 82q-60 0 -114 -43v-408h-90v369q0 82 -82 82q-57 0 -114 -41v-410h-89v518q36 6 89 6v-51h5q36 32 67 45.5t71 13.5q89 0 121 -70q74 70 160 70q67 0 108 -37.5t41 -120.5v-374z" />
    <glyph glyph-name="n.alt" horiz-adv-x="585" 
d="M493 0h-90v369q0 82 -87 82q-69 0 -130 -41v-410h-89v518q36 6 89 6v-51h5q68 59 154 59q66 0 107 -37t41 -122v-373z" />
    <glyph glyph-name="u.alt" horiz-adv-x="584" 
d="M487 0h-90v45h-5q-71 -55 -152 -55q-66 0 -106.5 37t-40.5 121v371q50 6 90 6v-370q0 -84 89 -84q64 0 125 36v412q50 6 90 6v-525z" />
    <glyph glyph-name="v.alt" horiz-adv-x="501" 
d="M475 518q-69 -240 -178 -518h-96q-106 271 -175 518q36 6 89 6l122 -370q8 -25 13 -61h5q6 38 14 63l120 368q49 0 86 -6z" />
    <glyph glyph-name="w.alt" horiz-adv-x="790" 
d="M739 518q-46 -259 -125 -518h-90l-115 356q-10 29 -14 64h-4q-4 -29 -15 -65l-111 -355h-91q-75 243 -123 518q38 6 87 6l77 -355q7 -34 10 -69h5q6 42 15 71l110 351h86l111 -352q10 -31 16 -70h4q4 35 12 71l75 353q45 0 80 -6z" />
    <glyph glyph-name="x.alt" horiz-adv-x="510" 
d="M484 4q-46 -8 -103 -8l-111 182q-11 20 -17 40h-4q-6 -16 -18 -40l-108 -182q-55 0 -97 8l169 274l-159 240q43 7 103 7l101 -166q13 -25 18 -42h5q8 23 18 42l99 166q55 0 97 -7l-163 -251z" />
    <glyph glyph-name="y.alt" horiz-adv-x="513" 
d="M487 518l-171 -502q-41 -121 -94 -176.5t-123 -55.5q-56 0 -92 19q5 47 18 83q35 -15 79 -15q57 0 86 66l27 63q-112 260 -179 518q44 7 88 7l117 -369q10 -29 17 -62h4q6 31 16 63l119 368q53 0 88 -7z" />
    <glyph glyph-name="z.alt" horiz-adv-x="475" 
d="M429 0h-383l-9 73l278 371h-251q-6 39 -6 78h354l9 -73l-277 -371h275q8 -32 10 -78z" />
    <glyph glyph-name="Adieresis.alt" horiz-adv-x="581" 
d="M255 758q0 -21 -13.5 -34t-36.5 -13q-22 0 -35 13.5t-13 33.5t13 33.5t36 13.5q22 0 35.5 -13t13.5 -34zM434 758q0 -21 -13.5 -34t-35.5 -13t-35 13.5t-13 33.5t13 33.5t35 13.5t35.5 -13t13.5 -34zM566 6q-32 -9 -94 -11l-66 205h-230l-39 -123q-14 -45 -36 -66
t-60 -21q-37 0 -54 16t-17 51v22h41q20 0 27.5 7.5t15.5 30.5l189 557h103q125 -355 220 -668zM382 280l-80 251q-8 24 -8 48h-7q0 -17 -7 -48l-80 -251h182z" />
    <glyph glyph-name="Aring.alt" horiz-adv-x="581" 
d="M566 6q-32 -9 -94 -11l-66 205h-230l-39 -123q-14 -45 -36 -66t-60 -21q-37 0 -54 16t-17 51v22h41q20 0 27.5 7.5t15.5 30.5l186 549q-59 19 -59 86q0 42 30.5 68t86.5 26t85 -24.5t29 -69.5q0 -32 -16.5 -55t-46.5 -31q121 -344 217 -660zM382 280l-80 251q-8 24 -8 48
h-7q0 -27 -7 -48l-80 -251h182zM346 753q0 47 -48 47q-23 0 -37 -12t-14 -35q0 -49 49 -49q50 0 50 49z" />
    <glyph glyph-name="Ntilde.alt" horiz-adv-x="713" 
d="M211 715q11 57 33 78.5t58 21.5q23 0 68.5 -21t60.5 -21q19 0 27 8.5t13 40.5q37 -2 61 -12q-10 -59 -31 -80t-57 -21q-23 0 -71 21.5t-61 21.5q-34 0 -39 -49q-33 0 -62 12zM614 3q-50 -8 -90 -8l-278 473q-21 39 -32 74l-8 -1q6 -42 6 -77v-366q0 -108 -96 -108
q-33 0 -54 17t-21 50v21h46q21 0 28.5 8t7.5 28v553q45 9 102 9l265 -453q21 -35 33 -73l8 1q-6 50 -6 77v446h89v-671z" />
    <glyph glyph-name="Udieresis.alt" horiz-adv-x="695" 
d="M305 758q0 -21 -13.5 -34t-36.5 -13q-22 0 -35 13.5t-13 33.5t13 33.5t36 13.5q22 0 35.5 -13t13.5 -34zM484 758q0 -21 -13.5 -34t-35.5 -13t-35 13.5t-13 33.5t13 33.5t35 13.5t35.5 -13t13.5 -34zM597 269q0 -138 -56 -208.5t-185 -70.5q-122 0 -181.5 61.5
t-59.5 217.5v291q0 20 -8 27.5t-28 7.5h-46v22q0 67 79 67q48 0 74.5 -27t26.5 -81v-325q0 -96 31 -134t114 -38q77 0 112.5 40.5t35.5 131.5v423h91v-405z" />
    <glyph glyph-name="aacute.alt" horiz-adv-x="576" 
d="M382 105v329q-37 18 -89 18q-70 0 -103.5 -43.5t-33.5 -152.5q0 -106 27.5 -145.5t87.5 -39.5t111 34zM472 526v-413q0 -19 6 -26.5t24 -7.5h58v-27q0 -62 -69 -62q-72 0 -99 62h-3q-66 -62 -142 -62q-187 0 -187 255q0 143 60.5 215t168.5 72q43 0 93 -15q21 12 57 12
q18 0 33 -3zM421 731q-28 -80 -97 -159q-42 0 -69 7l72 152h94z" />
    <glyph glyph-name="agrave.alt" horiz-adv-x="576" 
d="M382 105v329q-37 18 -89 18q-70 0 -103.5 -43.5t-33.5 -152.5q0 -106 27.5 -145.5t87.5 -39.5t111 34zM472 526v-413q0 -19 6 -26.5t24 -7.5h58v-27q0 -62 -69 -62q-72 0 -99 62h-3q-66 -62 -142 -62q-187 0 -187 255q0 143 60.5 215t168.5 72q43 0 93 -15q21 12 57 12
q18 0 33 -3zM345 579q-28 -7 -70 -7q-69 81 -96 159h93z" />
    <glyph glyph-name="acircumflex.alt" horiz-adv-x="576" 
d="M382 105v329q-37 18 -89 18q-70 0 -103.5 -43.5t-33.5 -152.5q0 -106 27.5 -145.5t87.5 -39.5t111 34zM472 526v-413q0 -19 6 -26.5t24 -7.5h58v-27q0 -62 -69 -62q-72 0 -99 62h-3q-66 -62 -142 -62q-187 0 -187 255q0 143 60.5 215t168.5 72q43 0 93 -15q21 12 57 12
q18 0 33 -3zM446 578q-35 -6 -78 -6l-76 108l-75 -108q-38 0 -76 5q45 82 96 154h113q57 -80 96 -153z" />
    <glyph glyph-name="adieresis.alt" horiz-adv-x="576" 
d="M382 105v329q-37 18 -89 18q-70 0 -103.5 -43.5t-33.5 -152.5q0 -106 27.5 -145.5t87.5 -39.5t111 34zM472 526v-413q0 -19 6 -26.5t24 -7.5h58v-27q0 -62 -69 -62q-72 0 -99 62h-3q-66 -62 -142 -62q-187 0 -187 255q0 143 60.5 215t168.5 72q43 0 93 -15q21 12 57 12
q18 0 33 -3zM255 636q0 -23 -13.5 -38t-37.5 -15q-23 0 -36.5 15t-13.5 38q0 24 13.5 39.5t37.5 15.5q23 0 36.5 -16t13.5 -39zM434 636q0 -23 -14 -38t-37 -15t-36.5 15t-13.5 38q0 24 13.5 39.5t37.5 15.5q23 0 36.5 -16t13.5 -39z" />
    <glyph glyph-name="atilde.alt" horiz-adv-x="576" 
d="M382 105v329q-37 18 -89 18q-70 0 -103.5 -43.5t-33.5 -152.5q0 -106 27.5 -145.5t87.5 -39.5t111 34zM472 526v-413q0 -19 6 -26.5t24 -7.5h58v-27q0 -62 -69 -62q-72 0 -99 62h-3q-66 -62 -142 -62q-187 0 -187 255q0 143 60.5 215t168.5 72q43 0 93 -15q21 12 57 12
q18 0 33 -3zM116 584q15 73 38.5 96t64.5 23q25 0 51 -14l53 -29q18 -11 34 -11q17 0 25.5 11.5t15.5 50.5q33 0 66 -15q-15 -72 -38 -95.5t-63 -23.5q-27 0 -52 14l-52 29q-22 12 -35 12q-18 0 -26.5 -11.5t-15.5 -50.5q-29 0 -66 14z" />
    <glyph glyph-name="aring.alt" horiz-adv-x="576" 
d="M382 105v329q-37 18 -89 18q-70 0 -103.5 -43.5t-33.5 -152.5q0 -106 27.5 -145.5t87.5 -39.5t111 34zM472 526v-413q0 -19 6 -26.5t24 -7.5h58v-27q0 -62 -69 -62q-72 0 -99 62h-3q-66 -62 -142 -62q-187 0 -187 255q0 143 60.5 215t168.5 72q43 0 93 -15q21 12 57 12
q18 0 33 -3zM413 669q0 -44 -31 -71.5t-84 -27.5q-58 0 -87.5 26.5t-29.5 72.5q0 45 31 73t86 28q57 0 86 -26.5t29 -74.5zM347 671q0 51 -49 51q-23 0 -37 -13t-14 -38q0 -54 49 -54q51 0 51 54z" />
    <glyph glyph-name="iacute.alt" horiz-adv-x="283" 
d="M186 0h-89v522h89v-522zM269 731q-28 -80 -97 -159q-42 0 -69 7l72 152h94z" />
    <glyph glyph-name="igrave.alt" horiz-adv-x="283" 
d="M186 0h-89v522h89v-522zM180 579q-28 -7 -70 -7q-69 81 -96 159h93z" />
    <glyph glyph-name="icircumflex.alt" horiz-adv-x="283" 
d="M186 0h-89v522h89v-522zM295 578q-35 -6 -78 -6l-76 108l-75 -108q-38 0 -76 5q45 82 96 154h113q57 -80 96 -153z" />
    <glyph glyph-name="idieresis.alt" horiz-adv-x="283" 
d="M186 0h-89v522h89v-522zM102 636q0 -23 -13.5 -38t-37.5 -15q-23 0 -36.5 15t-13.5 38q0 24 13.5 39.5t37.5 15.5q23 0 36.5 -16t13.5 -39zM281 636q0 -23 -14 -38t-37 -15t-36.5 15t-13.5 38q0 24 13.5 39.5t37.5 15.5q23 0 36.5 -16t13.5 -39z" />
    <glyph glyph-name="ntilde.alt" horiz-adv-x="585" 
d="M493 0h-90v369q0 82 -87 82q-69 0 -130 -41v-410h-89v518q36 6 89 6v-51h5q68 59 154 59q66 0 107 -37t41 -122v-373zM128 584q15 73 38.5 96t64.5 23q25 0 51 -14l53 -29q18 -11 34 -11q17 0 25.5 11.5t15.5 50.5q33 0 66 -15q-15 -72 -38 -95.5t-63 -23.5q-27 0 -52 14
l-52 29q-22 12 -35 12q-18 0 -26.5 -11.5t-15.5 -50.5q-29 0 -66 14z" />
    <glyph glyph-name="uacute.alt" horiz-adv-x="584" 
d="M487 0h-90v45h-5q-71 -55 -152 -55q-66 0 -106.5 37t-40.5 121v371q50 6 90 6v-370q0 -84 89 -84q64 0 125 36v412q50 6 90 6v-525zM423 731q-28 -80 -97 -159q-42 0 -69 7l72 152h94z" />
    <glyph glyph-name="ugrave.alt" horiz-adv-x="584" 
d="M487 0h-90v45h-5q-71 -55 -152 -55q-66 0 -106.5 37t-40.5 121v371q50 6 90 6v-370q0 -84 89 -84q64 0 125 36v412q50 6 90 6v-525zM342 579q-28 -7 -70 -7q-69 81 -96 159h93z" />
    <glyph glyph-name="ucircumflex.alt" horiz-adv-x="584" 
d="M487 0h-90v45h-5q-71 -55 -152 -55q-66 0 -106.5 37t-40.5 121v371q50 6 90 6v-370q0 -84 89 -84q64 0 125 36v412q50 6 90 6v-525zM443 578q-34 -6 -78 -6l-76 108l-75 -108q-38 0 -76 5q45 82 96 154h113q57 -80 96 -153z" />
    <glyph glyph-name="udieresis.alt" horiz-adv-x="584" 
d="M487 0h-90v45h-5q-71 -55 -152 -55q-66 0 -106.5 37t-40.5 121v371q50 6 90 6v-370q0 -84 89 -84q64 0 125 36v412q50 6 90 6v-525zM250 636q0 -23 -13.5 -38t-37.5 -15q-23 0 -36.5 15t-13.5 38q0 24 13.5 39.5t37.5 15.5q23 0 36.5 -16t13.5 -39zM429 636
q0 -23 -14 -38t-37 -15t-36.5 15t-13.5 38q0 24 13.5 39.5t37.5 15.5q23 0 36.5 -16t13.5 -39z" />
    <glyph glyph-name="dagger.alt" horiz-adv-x="523" 
d="M475 410h-170v-410q-37 -9 -88 -9v419h-169v84h169v180h88v-180h170v-84z" />
    <glyph glyph-name="Agrave.alt" horiz-adv-x="581" 
d="M566 6q-32 -9 -94 -11l-66 205h-230l-39 -123q-14 -45 -36 -66t-60 -21q-37 0 -54 16t-17 51v22h41q20 0 27.5 7.5t15.5 30.5l189 557h103q125 -355 220 -668zM382 280l-80 251q-8 24 -8 48h-7q0 -17 -7 -48l-80 -251h182zM269 815l67 -103q-63 -7 -78 -7q-60 52 -86 110
h97z" />
    <glyph glyph-name="Atilde.alt" horiz-adv-x="581" 
d="M566 6q-32 -9 -94 -11l-66 205h-230l-39 -123q-14 -45 -36 -66t-60 -21q-37 0 -54 16t-17 51v22h41q20 0 27.5 7.5t15.5 30.5l189 557h103q125 -355 220 -668zM382 280l-80 251q-8 24 -8 48h-7q0 -17 -7 -48l-80 -251h182zM133 715q11 57 33 78.5t58 21.5q23 0 68.5 -21
t60.5 -21q19 0 27 8.5t13 40.5q37 -2 61 -12q-10 -59 -31 -80t-57 -21q-23 0 -71 21.5t-61 21.5q-34 0 -39 -49q-33 0 -62 12z" />
    <glyph glyph-name="ydieresis.alt" horiz-adv-x="513" 
d="M487 518l-171 -502q-41 -121 -94 -176.5t-123 -55.5q-56 0 -92 19q5 47 18 83q35 -15 79 -15q57 0 86 66l27 63q-112 260 -179 518q44 7 88 7l117 -369q10 -29 17 -62h4q6 31 16 63l119 368q53 0 88 -7zM230 636q0 -23 -13.5 -38t-37.5 -15q-23 0 -36.5 15t-13.5 38
q0 24 13.5 39.5t37.5 15.5q23 0 36.5 -16t13.5 -39zM409 636q0 -23 -14 -38t-37 -15t-36.5 15t-13.5 38q0 24 13.5 39.5t37.5 15.5q23 0 36.5 -16t13.5 -39z" />
    <glyph glyph-name="Ydieresis.alt" horiz-adv-x="565" 
d="M544 669q-99 -222 -206 -415v-254h-97v254l-160 307q-11 21 -18 27.5t-23 6.5h-39v26q0 63 71 63q34 0 55.5 -17t41.5 -58l103 -213q9 -21 19 -52h7q7 28 19 54l133 279q48 0 94 -8zM245 758q0 -21 -13.5 -34t-36.5 -13q-22 0 -35 13.5t-13 33.5t13 33.5t36 13.5
q22 0 35.5 -13t13.5 -34zM424 758q0 -21 -13.5 -34t-35.5 -13t-35 13.5t-13 33.5t13 33.5t35 13.5t35.5 -13t13.5 -34z" />
    <glyph glyph-name="fi.alt" horiz-adv-x="610" 
d="M521 666q0 -24 -14 -39.5t-39 -15.5t-38.5 16t-13.5 39q0 24 13.5 40.5t39.5 16.5q25 0 38.5 -16.5t13.5 -40.5zM513 0h-89v444h-216v-497q0 -72 -44 -117.5t-111 -45.5q-25 0 -51 4q0 49 6 81q15 -3 48 -3t48 17t15 57v504h-62v78h62v60q0 75 46 118.5t110 43.5
q25 0 51 -4q0 -50 -6 -81q-21 3 -48 3q-34 0 -49 -18t-15 -56v-66h305v-522z" />
    <glyph glyph-name="fl.alt" horiz-adv-x="620" 
d="M523 0h-89v657q-63 9 -125 9q-56 0 -78.5 -17.5t-22.5 -56.5v-70h113q0 -40 -6 -78h-107v-498q0 -72 -44 -117t-111 -45q-25 0 -51 4q0 49 6 81q15 -3 48 -3t48 17t15 57v504h-62v78h62v63q0 78 51.5 118.5t143.5 40.5q106 0 209 -18v-726z" />
    <glyph glyph-name="daggerdbl.alt" horiz-adv-x="523" 
d="M475 178h-170v-178q-37 -9 -88 -9v187h-169v84h169v152h-169v84h169v176h88v-176h170v-84h-170v-152h170v-84z" />
    <glyph glyph-name="Acircumflex.alt" horiz-adv-x="581" 
d="M566 6q-32 -9 -94 -11l-66 205h-230l-39 -123q-14 -45 -36 -66t-60 -21q-37 0 -54 16t-17 51v22h41q20 0 27.5 7.5t15.5 30.5l189 557h103q125 -355 220 -668zM382 280l-80 251q-8 24 -8 48h-7q0 -17 -7 -48l-80 -251h182zM437 711q-31 -6 -78 -6l-66 74l-67 -74
q-40 0 -77 5q55 77 80 105h129q35 -40 79 -104z" />
    <glyph glyph-name="Aacute.alt" horiz-adv-x="581" 
d="M566 6q-32 -9 -94 -11l-66 205h-230l-39 -123q-14 -45 -36 -66t-60 -21q-37 0 -54 16t-17 51v22h41q20 0 27.5 7.5t15.5 30.5l189 557h103q125 -355 220 -668zM382 280l-80 251q-8 24 -8 48h-7q0 -17 -7 -48l-80 -251h182zM418 815q-25 -56 -86 -110q-16 0 -79 7l67 103
h98z" />
    <glyph glyph-name="Uacute.alt" horiz-adv-x="695" 
d="M597 269q0 -138 -56 -208.5t-185 -70.5q-122 0 -181.5 61.5t-59.5 217.5v291q0 20 -8 27.5t-28 7.5h-46v22q0 67 79 67q48 0 74.5 -27t26.5 -81v-325q0 -96 31 -134t114 -38q77 0 112.5 40.5t35.5 131.5v423h91v-405zM459 815q-25 -56 -86 -110q-16 0 -79 7l67 103h98z
" />
    <glyph glyph-name="Ucircumflex.alt" horiz-adv-x="695" 
d="M597 269q0 -138 -56 -208.5t-185 -70.5q-122 0 -181.5 61.5t-59.5 217.5v291q0 20 -8 27.5t-28 7.5h-46v22q0 67 79 67q48 0 74.5 -27t26.5 -81v-325q0 -96 31 -134t114 -38q77 0 112.5 40.5t35.5 131.5v423h91v-405zM492 711q-31 -6 -78 -6l-66 74l-67 -74q-40 0 -77 5
q55 77 80 105h129q35 -40 79 -104z" />
    <glyph glyph-name="Ugrave.alt" horiz-adv-x="695" 
d="M597 269q0 -138 -56 -208.5t-185 -70.5q-122 0 -181.5 61.5t-59.5 217.5v291q0 20 -8 27.5t-28 7.5h-46v22q0 67 79 67q48 0 74.5 -27t26.5 -81v-325q0 -96 31 -134t114 -38q77 0 112.5 40.5t35.5 131.5v423h91v-405zM338 815l67 -103q-63 -7 -78 -7q-60 52 -86 110h97z
" />
    <glyph glyph-name="dotlessi.alt" horiz-adv-x="283" 
d="M186 0h-89v522h89v-522z" />
    <glyph glyph-name="zero.oprp" 
d="M458 273q0 -133 -54 -208t-153 -75q-98 0 -153.5 70.5t-55.5 212.5q0 136 57.5 209t151.5 73q100 0 153.5 -70.5t53.5 -211.5zM368 273q0 102 -26 152.5t-91 50.5q-63 0 -91 -51t-28 -152q0 -105 27.5 -155t91.5 -50q62 0 89.5 51.5t27.5 153.5z" />
    <glyph glyph-name="one.oprp" horiz-adv-x="470" 
d="M426 0h-362v84h150v375l-145 -24q-11 40 -11 77l158 33h84v-461h133q0 -49 -7 -84z" />
    <glyph glyph-name="two.oprp" 
d="M197 84h254q0 -45 -7 -84h-370l-6 76q141 94 197.5 162t56.5 132q0 50 -27 75.5t-76 25.5q-78 0 -128 -27q-13 50 -16 84q67 27 148 27q91 0 142.5 -45t51.5 -133q0 -144 -220 -293z" />
    <glyph glyph-name="three.oprp" 
d="M432 64q0 -100 -66.5 -151.5t-164.5 -51.5q-88 0 -154 29q7 53 16 85q59 -29 142 -29q130 0 130 120q0 114 -121 114h-102v84h91q63 0 89 29.5t26 83.5q0 45 -29.5 69t-82.5 24q-68 0 -129 -24q-10 43 -13 85q69 24 154 24q86 0 140 -42t54 -127q0 -114 -100 -155v-5
q57 -17 88.5 -58.5t31.5 -103.5z" />
    <glyph glyph-name="four.oprp" 
d="M461 113q0 -36 -9 -81h-70v-161h-87v161h-250v83q44 100 109.5 227.5t116.5 212.5q41 -2 77 -17l-219 -428h169v187h84v-184h79z" />
    <glyph glyph-name="five.oprp" 
d="M441 69q0 -96 -62 -152t-162 -56q-76 0 -143 25q3 36 16 86q54 -23 128 -23q68 0 100 29t32 93q0 118 -170 118q-55 0 -98 -5q5 177 30 361h319q0 -41 -8 -84h-241l-17 -191q276 0 276 -201z" />
    <glyph glyph-name="six.oprp" 
d="M450 224q0 -111 -54 -172.5t-143 -61.5q-102 0 -152.5 72.5t-50.5 238.5q0 192 64 287.5t186 95.5q72 0 117 -14q-2 -44 -12 -85q-44 14 -105 14q-77 0 -116.5 -55.5t-44.5 -180.5h4q45 66 130 66q79 0 128 -51t49 -154zM361 222q0 133 -107 133q-56 0 -83.5 -33.5
t-27.5 -105.5q0 -71 27 -109t79 -38q56 0 84 36.5t28 116.5z" />
    <glyph glyph-name="seven.oprp" horiz-adv-x="480" 
d="M434 465q-134 -294 -305 -601q-51 4 -84 17l298 580h-294q-7 38 -7 84h392v-80z" />
    <glyph glyph-name="eight.oprp" 
d="M448 183q0 -92 -55 -142.5t-150 -50.5q-87 0 -139.5 44t-52.5 141q0 112 115 173q-102 58 -102 157q0 85 51 132t136 47t134 -43t49 -125q0 -47 -28 -89t-78 -68q120 -61 120 -176zM346 511q0 45 -26 71.5t-73 26.5q-46 0 -71.5 -27t-25.5 -68q0 -102 104 -129
q42 15 67 50.5t25 75.5zM357 184q0 103 -117 136q-47 -15 -73.5 -53t-26.5 -86q0 -116 107 -116q110 0 110 119z" />
    <glyph glyph-name="nine.oprp" 
d="M50 321q0 111 54 172.5t143 61.5q102 0 152.5 -72.5t50.5 -238.5q0 -192 -64 -287.5t-186 -95.5q-72 0 -117 14q2 44 12 85q44 -14 105 -14q77 0 116.5 55.5t44.5 180.5h-4q-45 -66 -130 -66q-79 0 -128 51t-49 154zM139 323q0 -133 107 -133q56 0 83.5 33.5t27.5 105.5
q0 71 -27 109t-79 38q-56 0 -84 -36.5t-28 -116.5z" />
    <glyph glyph-name="orn.001" horiz-adv-x="1000" 
d="M940 233h-667q-61 0 -110 4v-4l179 -178q-28 -31 -61 -51q-119 115 -221 229v79q110 123 221 229q36 -22 61 -51l-179 -177v-4q49 4 110 4h667v-80z" />
    <glyph glyph-name="orn.002" horiz-adv-x="659" 
d="M600 15q-97 -102 -229 -221h-83q-124 111 -229 221q20 33 51 61l178 -179h4q-4 49 -4 110v737h83v-737q0 -61 -4 -110h4l178 179q27 -24 51 -61z" />
    <glyph glyph-name="orn.003" horiz-adv-x="1000" 
d="M940 233q-101 -114 -221 -229q-37 24 -61 51l179 178v4q-49 -4 -110 -4h-667v80h667q36 0 110 -4v4l-179 177q31 34 61 51q119 -115 221 -229v-79z" />
    <glyph glyph-name="orn.004" horiz-adv-x="659" 
d="M600 523q-20 -33 -51 -61l-178 179h-4q4 -49 4 -110v-737h-83v737q0 61 4 110h-4l-178 -179q-27 24 -51 61q97 102 229 221h83q124 -111 229 -221z" />
    <glyph glyph-name="orn.005" horiz-adv-x="665" 
d="M605 235h-333q-54 0 -105 4v-4l158 -140q-27 -31 -56 -51q-98 82 -209 194v73q101 104 209 195q26 -19 56 -52l-158 -139v-4q76 4 105 4h333v-80z" />
    <glyph glyph-name="orn.006" horiz-adv-x="585" 
d="M525 209q-82 -98 -194 -209h-76q-104 101 -195 209q20 29 51 56l140 -158h4q-4 76 -4 105v332h83v-332q0 -54 -4 -105h4l140 158q31 -27 51 -56z" />
    <glyph glyph-name="orn.007" horiz-adv-x="665" 
d="M605 238q-111 -112 -209 -194q-29 20 -56 51l158 140v4q-51 -4 -105 -4h-333v80h333q29 0 105 -4v4l-158 139q30 33 56 52q108 -91 209 -195v-73z" />
    <glyph glyph-name="orn.008" horiz-adv-x="585" 
d="M525 336q-23 -33 -51 -56l-140 157h-4q4 -49 4 -104v-333h-83v333q0 55 4 104h-4l-140 -157q-28 23 -51 56q100 117 195 208h76q104 -101 194 -208z" />
    <glyph glyph-name="orn.009" horiz-adv-x="504" 
d="M444 322q-87 -102 -177 -183h-30q-115 110 -177 183v29q81 94 177 183h30q96 -90 177 -183v-29z" />
    <glyph glyph-name="orn.010" horiz-adv-x="507" 
d="M408 338q0 -70 -5 -145l-19 -20q-44 -2 -135 -2q-85 0 -127 2l-18 20q-5 67 -5 138q0 74 5 147l18 19q60 4 135 4q78 0 127 -4l19 -19q5 -70 5 -140z" />
    <glyph glyph-name="orn.011" horiz-adv-x="596" 
d="M537 318q-108 -122 -220 -227h-36q-142 134 -221 228v36q112 127 220 227h36q123 -114 221 -228v-36zM452 337l-154 158l-153 -158l153 -159z" />
    <glyph glyph-name="orn.012" horiz-adv-x="663" 
d="M564 338q0 -114 -6 -218l-28 -29q-100 -6 -206 -6q-95 0 -191 6l-29 29q-5 98 -5 208q0 112 5 222l29 28q101 6 203 6q107 0 194 -6l28 -28q6 -94 6 -212zM485 168v334h-308v-334h308z" />
    <glyph glyph-name="orn.013" horiz-adv-x="504" 
d="M444 259q-82 -95 -177 -183h-30q-115 110 -177 183v30q83 95 177 182h30q96 -90 177 -183v-29z" />
    <glyph glyph-name="orn.014" horiz-adv-x="501" 
d="M405 277q0 -85 -4 -145l-19 -20q-45 -2 -136 -2q-84 0 -127 2l-18 20q-4 52 -4 138q0 88 4 147l18 19q61 4 136 4q76 0 127 -4l19 -19q4 -56 4 -140z" />
    <glyph glyph-name="orn.015" horiz-adv-x="596" 
d="M537 255q-100 -115 -220 -227h-36q-133 124 -221 227v37q112 127 220 227h36q123 -114 221 -228v-36zM453 274l-155 160l-155 -160l155 -161z" />
    <glyph glyph-name="orn.016" horiz-adv-x="658" 
d="M561 277q0 -104 -5 -217l-29 -30q-112 -5 -206 -5q-84 0 -191 5l-28 30q-5 97 -5 207q0 112 5 222l28 29q102 6 203 6q109 0 194 -6l29 -29q5 -103 5 -212zM483 107v335h-308v-335h308z" />
    <glyph glyph-name="orn.017" horiz-adv-x="420" 
d="M166 -95h-72v865h72v-865zM327 -95h-73v865h73v-865z" />
    <glyph glyph-name="orn.018" horiz-adv-x="420" 
d="M166 -61h-72v667h72v-667zM327 -61h-73v667h73v-667z" />
    </font>
</defs>
</svg>
