<?xml version="1.0" encoding="utf-8"?>
<!-- Generator: Adobe Illustrator 19.1.0, SVG Export Plug-In . SVG Version: 6.00 Build 0)  -->
<!DOCTYPE svg PUBLIC "-//W3C//DTD SVG 1.1//EN" "http://www.w3.org/Graphics/SVG/1.1/DTD/svg11.dtd">
<svg version="1.1" id="Layer_1" xmlns="http://www.w3.org/2000/svg" xmlns:xlink="http://www.w3.org/1999/xlink" x="0px" y="0px"
	 viewBox="0 0 64 39" enable-background="new 0 0 64 39" xml:space="preserve">
<g>
	<g>
		<line fill="none" stroke="#B1A080" stroke-width="2" stroke-miterlimit="10" x1="25.2" y1="19.4" x2="45.9" y2="19.4"/>
		<g>
			<polygon fill="#B1A080" points="25.8,18.6 22,11.9 20.1,11.9 24,18.6 22.2,18.6 18.3,11.9 16.5,11.9 20.4,18.6 18.6,18.6 
				14.7,11.9 12.8,11.9 16.7,18.6 14.9,18.6 14.9,20.2 16.7,20.2 12.8,27 14.7,27 18.6,20.2 20.4,20.2 16.5,27 18.3,27 22.2,20.2 
				24,20.2 20.1,27 22,27 25.8,20.2 			"/>
		</g>
		<g>
			<path fill="#B1A080" d="M54.3,19.4c-4,1.5-8.9,4-12,6.7l2.4-6.7l-2.4-6.7C45.4,15.4,50.3,18,54.3,19.4z"/>
		</g>
	</g>
</g>
</svg>
