<?xml version="1.0" encoding="utf-8"?>
<!-- Generator: Adobe Illustrator 19.1.0, SVG Export Plug-In . SVG Version: 6.00 Build 0)  -->
<!DOCTYPE svg PUBLIC "-//W3C//DTD SVG 1.1//EN" "http://www.w3.org/Graphics/SVG/1.1/DTD/svg11.dtd">
<svg version="1.1" id="Layer_1" xmlns="http://www.w3.org/2000/svg" xmlns:xlink="http://www.w3.org/1999/xlink" x="0px" y="0px"
	 viewBox="-831 629 64 39" style="enable-background:new -831 629 64 39;" xml:space="preserve">
<style type="text/css">
	.st0{fill:none;stroke:#B1A080;stroke-width:2;stroke-miterlimit:10;}
	.st1{fill:#B1A080;}
</style>
<g>
	<g>
		<line class="st0" x1="-809.8" y1="648.4" x2="-789.1" y2="648.4"/>
		<g>
			<polygon class="st1" points="-789.7,649.2 -785.9,656 -784,656 -787.9,649.2 -786.1,649.2 -782.2,656 -780.4,656 -784.3,649.2 
				-782.5,649.2 -778.6,656 -776.7,656 -780.6,649.2 -778.8,649.2 -778.8,647.6 -780.6,647.6 -776.7,640.9 -778.6,640.9 
				-782.5,647.6 -784.3,647.6 -780.4,640.9 -782.2,640.9 -786.1,647.6 -787.9,647.6 -784,640.9 -785.9,640.9 -789.7,647.6 			"/>
		</g>
		<g>
			<path class="st1" d="M-806.2,641.7l-2.4,6.7l2.4,6.7c-3.1-2.7-8-5.2-12-6.7C-814.2,647-809.3,644.4-806.2,641.7z"/>
		</g>
	</g>
</g>
</svg>
