<?xml version="1.0" encoding="utf-8"?>
<!-- Generator: Adobe Illustrator 19.1.0, SVG Export Plug-In . SVG Version: 6.00 Build 0)  -->
<!DOCTYPE svg PUBLIC "-//W3C//DTD SVG 1.1//EN" "http://www.w3.org/Graphics/SVG/1.1/DTD/svg11.dtd">
<svg version="1.1" id="Layer_1" xmlns="http://www.w3.org/2000/svg" xmlns:xlink="http://www.w3.org/1999/xlink" x="0px" y="0px"
	 viewBox="0 0 310.3 326.9" style="enable-background:new 0 0 310.3 326.9;" xml:space="preserve">
<style type="text/css">
	.st0{fill:#69624F;}
</style>
<path class="st0" d="M148.1,211.8c0-3-2-5.6-4.8-6.4c-1.1-2.3-3.4-4-6.1-4c-0.5,0-1.1,0.1-1.6,0.2c-1.2-1.1-2.8-1.8-4.6-1.8
	c-1.4,0-2.6,0.4-3.7,1.1c-0.9-0.5-2-0.8-3.2-0.8c-2.3,0-4.4,1.2-5.6,2.9c-0.2,0-0.3,0-0.5,0c-3.2,0-5.9,2.3-6.6,5.3
	c-2.5,1-4.2,3.5-4.2,6.3c0,3.8,3.1,6.9,6.9,6.9c1.4,0,2.7-0.4,3.7-1.1c1.1,0.7,2.4,1.2,3.8,1.2c1.4,0,2.7-0.4,3.8-1.2
	c0.8,0.8,1.8,1.5,2.8,1.9c2.1,0.9,3.8,3.4,3.8,6.1v3.2h2.4v-3.6c0-2.7,1-4.8,3-6c0.6-0.4,1.1-0.7,1.5-1.1c0,0,0.1-0.1,0.1-0.1
	c0.5-0.6,0.9-1.2,1-2c-0.5-0.2-1-0.2-1.6-0.2c-0.7,0-1.3,0.1-2,0.4c-0.4,0.1-0.8,0-0.9-0.4c-0.1-0.4,0-0.8,0.4-0.9
	c0.8-0.3,1.7-0.5,2.5-0.5c0.6,0,1.2,0.1,1.7,0.2c0-2.9-2.4-5.3-5.3-5.3c0,0,0,0,0,0c0,0,0,0,0,0c-1.1,0-2.1-0.3-3-0.7
	c-0.9,1-1.3,2.2-1.3,3.5c0,0,0,0.1,0,0.1c0,0,0,0,0,0.1c0,1.3,0.5,2.6,1.5,3.6h0c0.3,0.3,0.3,0.7,0,1c-0.1,0.1-0.3,0.2-0.5,0.2
	c-0.2,0-0.4-0.1-0.5-0.2c-1.1-1.1-1.7-2.5-1.8-4c-0.4-0.1-0.7-0.1-1.1-0.1c-0.8,0-1.7,0.2-2.5,0.6c-0.1,0.1-0.2,0.1-0.3,0.1
	c-0.3,0-0.5-0.1-0.6-0.4c-0.2-0.3-0.1-0.8,0.3-1c1-0.5,2.1-0.8,3.2-0.8c0.4,0,0.7,0,1.1,0.1c0.1-1.3,0.6-2.5,1.5-3.5
	c-0.8-0.7-1.5-1.5-1.9-2.5c-1.2,0.9-2.6,1.3-4,1.3c-0.5,0-1-0.1-1.5-0.2c-0.4,3.3-3.3,5.8-6.7,5.8h0l0,0h-0.1
	c-1.5,0-2.8,0.6-3.7,1.5c-0.1,0.1-0.3,0.2-0.5,0.2c-0.2,0-0.4-0.1-0.5-0.2c-0.3-0.3-0.3-0.7,0-1c1.2-1.2,2.9-1.9,4.7-1.9h0.1
	c0,0,0,0,0,0c0.5,0,0.9-0.1,1.4-0.2c-0.7-0.9-1.6-1.6-2.7-2c-0.4-0.1-0.6-0.5-0.5-0.9c0.1-0.4,0.5-0.6,0.9-0.5
	c1.5,0.5,2.8,1.5,3.6,2.7c1.4-0.9,2.5-2.4,2.6-4.1c-0.7-0.3-1.4-0.8-1.9-1.4c-0.3-0.3-0.3-0.7,0-1c0.3-0.3,0.7-0.3,1,0
	c0.6,0.6,1.2,1,1.9,1.2c0,0,0,0,0,0c0.6,0.2,1.2,0.3,1.8,0.3c1.2,0,2.5-0.4,3.5-1.3c-0.1-0.4-0.1-0.9-0.1-1.3c0-0.4,0.3-0.7,0.7-0.7
	c0.4,0,0.7,0.3,0.7,0.7c0,2.7,2,5,4.7,5.3c0.2-1.6,0.9-3,1.9-4c0.3-0.3,0.7-0.3,1,0c0.3,0.3,0.3,0.7,0,1c-0.8,0.8-1.4,1.9-1.5,3.1
	c2.2,0.2,4.2,1.6,5.2,3.5c1.3-0.2,2.4-0.8,3.3-1.7c0.3-0.3,0.7-0.3,1,0c0.3,0.3,0.3,0.7,0,1c-1,1.1-2.3,1.8-3.7,2.1
	c0.2,0.6,0.3,1.2,0.3,1.9c0,0,0,0,0,0c0,1.4-0.3,2.6-1,3.6c1.3,0.6,2.4,1.5,3.1,2.8h0c0.2,0.3,0.1,0.8-0.3,1
	c-0.1,0.1-0.2,0.1-0.3,0.1c-0.2,0-0.5-0.1-0.6-0.4c-0.7-1.2-1.7-2-2.8-2.4c-0.4,0.4-1,0.8-1.5,1.1c-1.6,0.9-2.3,2.4-2.3,4.8v7.6h2.5
	c0.5-3.3,2.1-6,4.9-7.6v0c2.2-1,3.9-3.1,4.1-5.7c1.1-1.2,1.8-2.8,1.8-4.6c0-1.5-0.5-2.9-1.4-4.1C148,213,148.1,212.4,148.1,211.8z"
	/>
<path class="st0" d="M172.7,142.2c2.4,0.3,9.6,0.1,10.6-0.3l0.4-0.1l-0.1-1.8c0-1-0.2-2.4-0.3-3.2c-0.2-1.4-0.3-1.4-0.9-2.1
	c-0.4-0.4-0.9-0.7-1.3-0.9c-0.4-0.1-0.8-0.3-0.9-0.4c-0.3-0.3-0.2-0.5,0.4-0.6l0.5,0v-1v-1l-2,0h-0.3l3.8-5.6l0.5-0.3l0.9-0.3
	c0.5-0.2,1.3-0.4,1.7-0.5c2.7-0.5,5.2-1.3,6.7-2.1c1.3-0.7,2.1-1.2,2.4-1.4l-1.9-0.8l2.8-0.1c0.5-0.2,1-0.7,1.8-1.4
	c0.3-0.2,0.6-0.5,1-0.9l-4.2-0.9l4.9,0.3c0.3-0.3,0.6-0.5,0.8-0.7c0.2-0.2,0.3-0.3,0.5-0.4l-7.2-0.4l8.6-0.8
	c2.4-2.1,3.5-3.2,3.6-3.4l-3.1-1.4l4.3,0.1c0.4-0.4,0.7-0.8,1-1.1c1-1.3,1.4-1.9,3.2-4.2c0.8-1,1.6-2.2,1.9-2.6
	c0.3-0.4,0.8-1.1,1.2-1.7c1.3-1.6,1.3-1.9-0.1-1.2c-1.2,0.5-2.3,1-3.9,1.5c-0.7,0.2-1.6,0.6-2.2,0.9l-4.2,4.3l1.7-3
	c-0.4,0.2-1,0.6-1.7,1.1c-1.1,0.7-2.5,1.6-3.1,2c-1.6,0.9-3.5,2.3-6,4.3c-3.9,3.1-4.8,4-6.4,5.9c-1.3,1.5-1.3,1.5-1.8,2.1
	c-0.2,0.3-0.5,0.6-0.6,0.7c-0.1,0.1-0.4,0.5-0.8,1c-0.3,0.4-1,1.3-1.4,1.9c-0.4,0.6-1,1.4-1.3,1.9c-0.3,0.4-0.7,0.9-0.8,1.1
	c0,0-3,4.4-3.9,6.5h-2l-1.9,0v1v1l0.6,0c0.4,0,0.6,0.1,0.6,0.2c0,0.1-0.1,0.3-1,0.7c-1.3,0.6-1.9,1.1-2.1,1.7
	c-0.2,0.6-0.5,3.3-0.7,5C171.2,142,171.2,142,172.7,142.2z"/>
<path class="st0" d="M180,197.1l25.9,25.9c0.6-0.8,1.2-1.6,1.8-2.4l-23.5-23.5H180z"/>
<path class="st0" d="M210,197.1l7.4,7.4c0.5-1,0.9-1.9,1.3-2.9l-4.5-4.5H210z"/>
<path class="st0" d="M195,197.1l17.1,17.1c0.6-0.9,1.1-1.7,1.6-2.6l-14.4-14.4H195z"/>
<path class="st0" d="M164,241.2l10.7,10.7c0.8-0.6,1.6-1.2,2.5-1.8L164,237V241.2z"/>
<path class="st0" d="M164,211.2l27.3,27.3c0.7-0.7,1.5-1.4,2.2-2.1L164,206.9V211.2z"/>
<path class="st0" d="M164,256.2l1.8,1.8c0.8-0.5,1.7-1.1,2.6-1.7L164,252V256.2z"/>
<path class="st0" d="M164,226.2l19.3,19.3c0.8-0.6,1.5-1.3,2.3-1.9L164,221.9V226.2z"/>
<path class="st0" d="M165,197.1l33.9,33.9c0.7-0.7,1.4-1.5,2-2.2l-31.7-31.7H165z"/>
<polygon class="st0" points="117.5,115.7 117.5,115.7 137.5,95.7 133.2,95.7 115.3,113.6 115.3,113.6 115.3,113.6 91.4,137.5 
	91.4,141.7 117.5,115.7 "/>
<polygon class="st0" points="102.4,100.7 107.4,95.7 103.2,95.7 100.3,98.6 100.3,98.6 91.4,107.4 91.4,111.7 102.4,100.7 "/>
<polygon class="st0" points="146.5,144.7 148.6,144.7 151.6,141.7 151.6,137.4 145.4,143.6 "/>
<polygon class="st0" points="140,138.2 151.6,126.6 151.6,122.4 137.9,136.1 "/>
<polygon class="st0" points="130.4,128.6 130.4,128.6 114.3,144.7 118.5,144.7 132.5,130.7 132.5,130.7 132.5,130.7 151.6,111.6 
	151.6,107.4 130.4,128.6 "/>
<polygon class="st0" points="122.8,121.1 99.2,144.7 103.5,144.7 125,123.2 151.6,96.6 151.6,95.7 148.3,95.7 122.8,121.1 "/>
<polygon class="st0" points="109.9,108.2 122.5,95.7 118.2,95.7 107.8,106.1 107.8,106.1 91.4,122.4 91.4,126.7 109.9,108.2 "/>
<polygon class="st0" points="91.4,95.7 91.4,96.6 92.4,95.7 "/>
<polygon class="st0" points="144.3,144.7 146.5,144.7 145.4,143.6 "/>
<polygon class="st0" points="129.3,144.7 133.5,144.7 140,138.2 137.9,136.1 "/>
<polygon class="st0" points="156,294.2 156,316 157.5,314.5 159,312.9 159,294.2 157.5,294.2 "/>
<rect x="153.5" y="32.4" class="st0" width="7.8" height="35"/>
<path class="st0" d="M188.1,49.7c0,4.3-1.3,8.3-3.6,11.5c0.8,1.3,1.7,2.5,2.8,3.7c3.3-4.2,5.2-9.5,5.2-15.2
	c0-13.7-11.2-24.9-24.9-24.9h-22.6v4.4h22.6C178.9,29.2,188.1,38.4,188.1,49.7z"/>
<path class="st0" d="M180.7,70.8c-0.9-1-1.7-2.2-2.5-3.7c-3.1,1.9-6.7,3-10.6,3h-22.6v4.4h22.6C172.4,74.6,176.9,73.2,180.7,70.8z"
	/>
<path class="st0" d="M197.3,287.6c-0.3,1.8-2.2,3-3.5,3c-4.7,0-8.2-3.7-13.7-7.8c-5.5-4-10.3-6.8-15-5.7c-3.9,0.9-6.5,3.8-7.7,5.6
	c-0.6-0.9-1.7-2.2-3.1-3.3c-1-0.8-2.2-1.5-3.6-2c-0.4-0.1-0.7-0.2-1.1-0.3c-4.7-1.1-9.5,1.7-15,5.7c-5.5,4-9,7.7-13.7,7.8
	c-1.3,0-3.1-1.1-3.5-3c-1.6,0.9-2.4,8.2,4.8,9.8c18.5,4,24.2-7.1,35.2-12.9c10.9,5.8,16.6,16.9,35.2,12.9
	C199.8,295.9,198.9,288.5,197.3,287.6z"/>
<path class="st0" d="M185.8,66.6c-1-1.1-1.9-2.4-2.6-3.7c-1.9-3.3-3-6.5-3.2-7.3l0,0c0.5-0.2,0.9-0.5,1.2-0.8c1.2-1,2-2.5,2-4.3
	c0-4.2-2.4-6.1-7.5-6.1c-2.2,0-5.2,0.1-7.9,0.2c-0.1,0.5-0.1,1.2-0.1,1.7c0,0.5,0,1.2,0.1,1.6l1.9,0.3V61l-1.9,0.3
	c-0.1,0.5-0.1,1.1-0.1,1.6c0,0.5,0,1.2,0.1,1.7h7.6c0.1-0.5,0.1-1.2,0.1-1.7c0-0.5,0-1.2-0.1-1.6L174,61v-4h2l0.1,0
	c0.1,0.3,0.2,0.7,0.4,1c1.2,3.3,2.4,5.8,3.7,7.9c0.8,1.4,1.7,2.5,2.6,3.5c1.8,1.9,3.7,3.2,6,4.4c4.9,2.4,11.9,1.8,15.8-2.6
	c0.4-0.5,0.8-1,1.2-1.6c0.3-0.6,0.6-1.1,0.8-1.7c1.1-2.9,0.5-5.7-0.5-7.4c-0.4-0.7-0.9-1.3-1.4-1.6c0.6,1.3,0.8,2.8,0.6,4.3
	c0,0.2-0.1,0.5-0.1,0.7c-0.5,2.2-1.8,4.3-4,5.7c-2,1.2-4.6,1.9-7.9,1.5C190.2,70.5,187.7,68.8,185.8,66.6z M174,53.8V48
	c0.6,0,1.5,0,2,0c1.9,0,2.9,0.8,2.9,2.8c0,2.2-1.1,3.1-3,3.1H174z"/>
<circle class="st0" cx="200.8" cy="59.7" r="2"/>
<rect x="153.5" y="15.5" class="st0" width="7.8" height="6.3"/>
<path class="st0" d="M303.7,137.8h-14.9c-2.8-20.7-9.6-40.7-20-58.3l-1.3,0.7c10.2,17.4,17,37.1,19.8,57.6h-4.7
	c-3-22-10.6-42.6-22-60.4l4.8-14.5l-0.6-0.9c-8.2-12.9-23.4-30.2-41.3-39.8l-3.3-1.8l0.4,18.4l-20.8,6l4.8,2.6
	c14.1,7.5,26.7,17.9,37.4,30.9l0.7,0.8l15.5,0.1c11.1,17.3,18.4,37.3,21.4,58.6h-41.3v10.6h-6.6V87.6h-68.3H159v-3.7v-0.3h2.4v-6.3
	h-7.8v6.3h2.5v0.3v3.7H83.3v60.8h-3.7h-2.5v-10.6H34.8c3-21.4,10.3-41.4,21.4-58.6L71.7,79l0.7-0.8C83,65.3,95.6,54.9,109.7,47.3
	l4.8-2.6l-20.8-6l0.4-18.4l-3.3,1.8C72.9,31.8,57.7,49,49.5,62l-0.6,0.9l4.8,14.5c-11.4,17.8-19,38.4-22,60.4h-4.7
	c2.8-20.5,9.5-40.2,19.8-57.6l-1.3-0.7C35.2,97,28.4,117,25.6,137.8H11.9l15.5,22.1L11.9,182h13.7c2.9,20.7,9.7,40.6,20.2,58.2
	l1.3-0.7c-10.3-17.3-17.1-37-20-57.4H32c3.1,21.5,10.6,41.6,21.8,59l-4.8,14.5l0.6,0.9c8.2,12.9,23.4,30.2,41.3,39.8l3.3,1.8
	l-0.4-18.4l20.8-6l-4.8-2.6c-14.1-7.5-26.7-17.9-37.4-30.9l-0.7-0.8l-15.5-0.1C45.3,222.4,38,202.9,34.9,182h25.9v10.6h23.8
	c8,39.8,50.4,67.6,66.1,76.7c3.2,1.9,5.3,2.9,5.8,3.2l1,0.5l1-0.5c2.7-1.4,62.3-31.9,71.9-79.8h5.2h16.9V182h26.9
	c-3.1,20.9-10.4,40.4-21.2,57.3l-15.5,0.1l-0.7,0.8c-10.7,12.9-23.3,23.3-37.4,30.9l-4.8,2.6l20.8,6l-0.4,18.4l3.3-1.8
	c18-9.6,33.1-26.8,41.3-39.8l0.6-0.9l-4.8-14.5c11.2-17.4,18.7-37.5,21.8-59h4.8c-2.9,20.5-9.7,40.1-20,57.4l1.3,0.7
	c10.4-17.6,17.3-37.5,20.2-58.2h15l-15.5-22.1L303.7,137.8z M257.5,72.7c-0.8-1.2-1.7-2.4-2.6-3.6l3.1-9.4c0.9,1.3,1.8,2.5,2.5,3.7
	L257.5,72.7z M252.7,66.3c-1.3-1.6-2.6-3.2-3.9-4.7l2.6-10.4c1.6,1.9,3.1,3.7,4.5,5.6L252.7,66.3z M250.2,49.9l-2.6,10.4
	c-1.3-1.5-2.6-2.9-4-4.3l1.7-11.4C247,46.3,248.6,48.1,250.2,49.9z M242.3,54.7c-0.6-0.6-1.3-1.3-1.9-1.9l0,0l1.5-11.5
	c0.7,0.7,1.4,1.3,2,2L242.3,54.7z M237.8,50.4c-1.4-1.2-2.7-2.5-4.2-3.6l0.7-12.1c1.7,1.3,3.4,2.7,5,4.2L237.8,50.4z M232.2,45.6
	c-0.9-0.7-1.8-1.5-2.8-2.2l0.1-12.3c1.1,0.8,2.3,1.6,3.4,2.4L232.2,45.6z M228.1,30.1L228,42.3c-1-0.7-1.9-1.4-2.9-2.1L224.8,28
	C225.9,28.7,227,29.4,228.1,30.1z M223.4,42.6c1.9,1.3,3.7,2.7,5.5,4.1l-11.5,3.2c-2-1.3-3.9-2.6-6-3.8L223.4,42.6z M230.3,47.8
	c1.8,1.5,3.6,3,5.3,4.5L224.5,55c-1.8-1.4-3.7-2.8-5.6-4.1L230.3,47.8z M236.9,53.5c1.3,1.2,2.6,2.4,3.8,3.7l-10.9,2.2
	c-1.3-1.1-2.6-2.2-3.9-3.2L236.9,53.5z M232.6,61.9l10.6-2.1c1.9,2.1,3.8,4.2,5.6,6.4l-10.6,1.2C236.4,65.5,234.5,63.6,232.6,61.9z
	 M244.8,74.6c-1.7-2-3.5-4-5.3-5.9l10.4-1.2c1.9,2.3,3.6,4.7,5.3,7.1L244.8,74.6z M69.6,74.6l-10.5,0.1c1.7-2.4,3.5-4.8,5.3-7.1
	l10.4,1.2C73.1,70.6,71.3,72.6,69.6,74.6z M76.1,67.4l-10.6-1.2c1.8-2.2,3.7-4.3,5.6-6.4l10.6,2.1C79.8,63.6,78,65.5,76.1,67.4z
	 M84.5,59.4l-10.9-2.2c1.3-1.3,2.5-2.5,3.8-3.7l10.9,2.6C87.1,57.2,85.8,58.3,84.5,59.4z M89.9,55l-11.1-2.7c1.7-1.6,3.5-3,5.3-4.5
	l11.4,3.1C93.5,52.2,91.7,53.6,89.9,55z M103,46.1c-2,1.2-4,2.5-6,3.8l-11.6-3.2c1.8-1.4,3.6-2.8,5.5-4.1L103,46.1z M89.6,28
	l-0.3,12.2c-1,0.7-1.9,1.4-2.9,2.1l-0.1-12.2C87.3,29.4,88.4,28.7,89.6,28z M84.8,31.1l0.1,12.3c-0.9,0.7-1.9,1.4-2.8,2.2l-0.7-12
	C82.5,32.7,83.6,31.9,84.8,31.1z M80,34.7l0.7,12c-1.4,1.2-2.8,2.4-4.2,3.6L75,38.8C76.6,37.4,78.3,36,80,34.7z M72.4,41.3l1.5,11.5
	l0,0c-0.6,0.6-1.3,1.3-1.9,1.9l-1.7-11.4C71,42.6,71.7,41.9,72.4,41.3z M69,44.6L70.7,56c-1.4,1.4-2.7,2.8-4,4.3l-2.6-10.4
	C65.7,48.1,67.3,46.3,69,44.6z M63,51.2l2.6,10.4c-1.3,1.5-2.6,3.1-3.9,4.7l-3.2-9.5C59.9,55,61.4,53.1,63,51.2z M53.8,63.5
	c0.8-1.2,1.6-2.5,2.5-3.7l3.1,9.4c-0.9,1.2-1.7,2.4-2.6,3.6L53.8,63.5z M56.9,245.7c0.8,1.2,1.7,2.4,2.6,3.6l-3.1,9.4
	c-0.9-1.3-1.8-2.5-2.5-3.7L56.9,245.7z M61.6,252.1c1.3,1.6,2.6,3.2,3.9,4.7L63,267.2c-1.6-1.9-3.1-3.7-4.5-5.6L61.6,252.1z
	 M64.1,268.5l2.6-10.4c1.3,1.5,2.6,2.9,4,4.3L69,273.8C67.3,272.1,65.7,270.3,64.1,268.5z M72,263.7c0.6,0.6,1.3,1.3,1.9,1.9l0,0
	l-1.5,11.5c-0.7-0.7-1.4-1.3-2-2L72,263.7z M76.6,268c1.4,1.2,2.8,2.5,4.2,3.6l-0.7,12c-1.7-1.3-3.4-2.7-5-4.2L76.6,268z
	 M82.1,272.8c0.9,0.7,1.8,1.5,2.8,2.2l-0.1,12.3c-1.1-0.8-2.3-1.6-3.4-2.4L82.1,272.8z M86.2,288.3l0.1-12.2c1,0.7,1.9,1.4,2.9,2.1
	l0.3,12.2C88.4,289.7,87.3,289,86.2,288.3z M91,275.8c-1.9-1.3-3.7-2.7-5.5-4.1l11.6-3.2c2,1.3,3.9,2.6,6,3.8L91,275.8z M84.1,270.6
	c-1.8-1.5-3.6-3-5.3-4.5l11.1-2.7c1.8,1.4,3.7,2.8,5.6,4.1L84.1,270.6z M77.5,264.9c-1.3-1.2-2.6-2.4-3.8-3.7l10.9-2.2
	c1.3,1.1,2.6,2.2,3.9,3.2L77.5,264.9z M81.8,256.5l-10.6,2.1c-1.9-2.1-3.8-4.2-5.6-6.4l10.6-1.2C78,252.9,79.8,254.8,81.8,256.5z
	 M69.6,243.8c1.7,2,3.5,4,5.3,5.9l-10.4,1.2c-1.9-2.3-3.6-4.7-5.3-7.1L69.6,243.8z M244.8,243.8l10.5-0.1c-1.7,2.4-3.5,4.8-5.3,7.1
	l-10.4-1.2C241.3,247.8,243,245.8,244.8,243.8z M238.2,251l10.6,1.2c-1.8,2.2-3.7,4.3-5.6,6.4l-10.6-2.1
	C234.5,254.8,236.4,252.9,238.2,251z M229.8,259l10.9,2.2c-1.3,1.3-2.5,2.5-3.8,3.7l-10.9-2.6C227.2,261.2,228.5,260.1,229.8,259z
	 M224.5,263.4l11.1,2.7c-1.7,1.6-3.5,3.1-5.3,4.5l-11.4-3.1C220.8,266.2,222.7,264.8,224.5,263.4z M211.3,272.3c2-1.2,4-2.5,6-3.8
	l11.5,3.2c-1.8,1.4-3.6,2.8-5.5,4.1L211.3,272.3z M224.8,290.4l0.3-12.2c1-0.7,1.9-1.4,2.9-2.1l0.1,12.2
	C227,289,225.9,289.7,224.8,290.4z M229.6,287.3l-0.1-12.3c0.9-0.7,1.9-1.4,2.8-2.2l0.7,12C231.8,285.7,230.7,286.5,229.6,287.3z
	 M234.3,283.7l-0.7-12.1c1.4-1.2,2.8-2.4,4.2-3.6l1.5,11.5C237.7,281,236,282.4,234.3,283.7z M242,277.1l-1.5-11.5l0,0
	c0.6-0.6,1.3-1.3,1.9-1.9l1.7,11.4C243.3,275.8,242.7,276.5,242,277.1z M245.3,273.8l-1.7-11.4c1.4-1.4,2.7-2.8,4-4.3l2.6,10.4
	C248.6,270.3,247,272.1,245.3,273.8z M251.4,267.2l-2.6-10.4c1.3-1.5,2.6-3.1,3.9-4.7l3.2,9.5C254.5,263.4,253,265.3,251.4,267.2z
	 M260.5,254.9c-0.8,1.2-1.6,2.5-2.5,3.7l-3.1-9.4c0.9-1.2,1.7-2.4,2.6-3.6L260.5,254.9z M289.2,177.6h-1.5H283h-3h-27.5v-29.1l0,0
	l0,0v-0.1h-0.1l-9.3-6.2h37h3h4.7h1.5h5.9l-5.2,7.5l-0.1,0.2l-5.8,8.3l-0.7,1l-0.5,0.7l1.2,1.7l4.6,6.5l1.3,1.9l5.3,7.6H289.2z
	 M248.1,182v6.2h-11.5h-5.5h-4.5H159h-1.5H156h-5.3H88.4h-4.5H65.3V182v-2.2v-2.2v-24.8h7.4h2.2h2.2h2.5h3.7h4.4H156h1.5h1.5h4.4
	h63.8h4.4h6.6h2.2h2.2h5.3v24.8v2.2V182z M225.6,193.4c-0.3,1.1-0.6,2.3-0.9,3.4c-0.8,2.7-1.7,5.4-2.8,7.9c-0.4,1-0.9,2-1.3,2.9
	c-1.1,2.4-2.4,4.7-3.8,7c-0.5,0.9-1.1,1.8-1.6,2.6c-1.4,2.2-2.9,4.3-4.4,6.4c-0.6,0.8-1.2,1.6-1.8,2.4c-0.8,1-1.6,2-2.4,3
	c-0.8,1-1.7,1.9-2.5,2.9c-0.7,0.7-1.3,1.5-2,2.2c-1.8,1.9-3.6,3.7-5.4,5.4c-0.7,0.7-1.5,1.4-2.2,2.1c-1.9,1.8-3.8,3.4-5.7,5
	c-0.8,0.7-1.6,1.3-2.3,1.9c-2.1,1.7-4.1,3.2-6.1,4.7c-0.8,0.6-1.6,1.2-2.4,1.8c-2.2,1.6-4.4,3.1-6.4,4.4c-0.9,0.6-1.7,1.1-2.6,1.7
	c-2.5,1.6-4.8,3-6.7,4.1c-1,0.6-1.9,1.1-2.7,1.6c-0.2,0.1-0.4,0.2-0.6,0.4v-1V262v-10.8v-4.2v-10.8v-4.2v-10.8v-4.2v-10.8v-4.2v-7.2
	v-2h1.5h0.5h0h3.8h5.4h0h5.4h4.2h10.8h4.2h10.8h4.2h10.8h4.2h0.9C225.8,192.9,225.7,193.2,225.6,193.4z M20.4,177.6l4.1-5.9l1.3-1.9
	l4.5-6.4l2.4-3.5l-0.5-0.7l-2-2.8l-4.5-6.4l-1.3-1.9l-4.1-5.8H25h1.5h4.7h3h37L61,148.4h-0.1v0.1l0,0h0v29.1H34.4h-3h-4.8h-1.5H20.4
	z M87.8,145.4v-4.2v-10.8v-4.2v-10.8v-4.2v-10.8v-4.2V92h4.1h1.9h2.3h10.8h4.2h10.8h4.2h10.8h4.2h10.8h4.1v0.2v10.8v4.2v5.4v5.4v4.2
	V133v4.2V148v0.4h-0.4h-5.5h0h-5.3h-4.2h-10.8h-4.2h-5.4h0h-5.4h-4.2H99.8h-4.2h-7.8V145.4z M163.4,92h63.8v56.4h-63.8H159V92H163.4
	z M89.2,192.7h61.5h5.3v74.6c-1.3-0.7-3.1-1.8-5.3-3.1C134.3,254.2,97,228.1,89.2,192.7z"/>
<path class="st0" d="M97.5,177.3c-0.3-4.2-0.7-8.5-1.1-12.8l1.7-0.3c0.1-0.5,0.1-1.1,0.1-1.6c0-0.5,0-1.2-0.1-1.7h-7l-3.3,12
	l-0.2,0.6c-0.2,0.6-0.3,1.5-0.4,2.5h-0.3c-0.1-0.9-0.2-1.9-0.4-2.5l-3.1-10.7l-0.6-1.9h-5.6h-1.4c-0.1,0.5-0.1,1.1-0.1,1.7
	c0,0.5,0,1.2,0.1,1.6l1.4,0.2l0.4,0.1c-0.1,1.3-0.2,2.6-0.4,3.9c-0.3,3-0.5,5.9-0.7,8.9l-1.4,0.3c-0.1,0.5-0.1,1.1-0.1,1.6
	c0,0.5,0,1.2,0.1,1.7h2.1h4.4c0.1-0.5,0.1-1.1,0.1-1.7c0-0.5,0-1.2-0.1-1.6l-1.4-0.3l0.6-8c0-0.5,0.1-1.8,0.1-2.3h0.3
	c0,0.6,0.2,1.6,0.4,2.3l1.8,6.4l1.5,5.2h3h1.1l3.2-11.5c0.2-0.6,0.3-1.6,0.4-2.3h0.3c0,0.5,0,1.7,0.1,2.3l0.6,8l-1.4,0.3
	c-0.1,0.5-0.1,1.1-0.1,1.6c0,0.5,0,1.2,0.1,1.7h6.8c0.1-0.5,0.1-1.1,0.1-1.7c0-0.5,0-1.2-0.1-1.6L97.5,177.3z"/>
<path class="st0" d="M118.1,177.3c-1.6-5.5-3.3-10.9-5.2-16.4h-5.1c-1.9,5.5-3.6,10.9-5.2,16.4l-0.9,0.3c-0.1,0.5-0.1,1.1-0.1,1.6
	c0,0.5,0,1.2,0.1,1.7h6.3c0.1-0.5,0.1-1.1,0.1-1.7c0-0.5,0-1.2-0.1-1.6l-1.3-0.3l0.7-2.2h6l0.7,2.2l-1.3,0.3
	c-0.1,0.5-0.1,1.1-0.1,1.6c0,0.5,0,1.2,0.1,1.7h6.5c0.1-0.5,0.1-1.1,0.1-1.7c0-0.5,0-1.2-0.1-1.6L118.1,177.3z M108.2,171.9l1.5-5.2
	c0.2-0.7,0.4-1.4,0.4-1.9h0.3c0,0.5,0.2,1.3,0.4,1.9l1.5,5.2H108.2z"/>
<path class="st0" d="M141.1,164.2c0.1-0.5,0.1-1.1,0.1-1.6c0-0.5,0-1.2-0.1-1.7h-7.9c-0.1,0.5-0.1,1.1-0.1,1.7c0,0.5,0,1.2,0.1,1.6
	l1.7,0.3v4.4h-6.7v-4.4l1.7-0.3c0.1-0.5,0.1-1.1,0.1-1.6c0-0.5,0-1.2-0.1-1.7h-7.9c-0.1,0.5-0.1,1.1-0.1,1.7c0,0.5,0,1.2,0.1,1.6
	l1.9,0.3v12.8l-1.9,0.3c-0.1,0.5-0.1,1.1-0.1,1.6c0,0.5,0,1.2,0.1,1.7h7.9c0.1-0.5,0.1-1.1,0.1-1.7c0-0.5,0-1.2-0.1-1.6l-1.7-0.3
	v-4.8h6.7v4.8l-1.7,0.3c-0.1,0.5-0.1,1.1-0.1,1.6c0,0.5,0,1.2,0.1,1.7h7.9c0.1-0.5,0.1-1.1,0.1-1.7c0-0.5,0-1.2-0.1-1.6l-1.9-0.3
	v-12.8L141.1,164.2z"/>
<path class="st0" d="M157.5,162c-0.5-0.3-0.9-0.6-1.5-0.8c-1-0.4-2.2-0.6-3.5-0.6c-5.1,0-8.6,3.4-8.6,10.3c0,7,3.3,10.2,8.6,10.2
	c1.3,0,2.4-0.2,3.4-0.6c0.5-0.2,1-0.5,1.5-0.8c0.6-0.4,1-0.9,1.5-1.4c1.3-1.7,2.1-4.1,2.1-7.4c0-3.4-0.8-5.9-2.1-7.6
	C158.6,162.8,158.1,162.3,157.5,162z M156,175.1c-0.6,1.7-1.7,2.4-3.4,2.4c-2.7,0-4-1.7-4-6.6c0-5,1.3-6.6,4-6.6
	c1.7,0,2.8,0.6,3.5,2.5c0.3,1,0.5,2.3,0.5,4.1C156.5,172.7,156.4,174.1,156,175.1z"/>
<path class="st0" d="M172.7,173.6h2.8v3.6c-0.6,0.2-1.5,0.3-2.2,0.3c-2.9,0-4.5-1.6-4.5-6.6c0-5.2,1.6-6.6,4.6-6.6
	c0.7,0,1.6,0.1,2.1,0.3l0.2,2c0.5,0.1,1.4,0.1,1.9,0.1c0.5,0,1.3,0,1.8-0.1v-4.8c-1.6-0.7-4-1.1-6.1-1.1c-5.4,0-9.2,3.1-9.2,10.2
	c0,6.6,3,10.3,9,10.3c2.4,0,5.1-0.6,6.6-1.4v-9.7h-7.5C172.4,171.2,172.5,172.6,172.7,173.6z"/>
<path class="st0" d="M199.4,177.3c-1.6-5.5-3.3-10.9-5.2-16.4h-5.1c-1.9,5.5-3.6,10.9-5.2,16.4l-0.9,0.3c-0.1,0.5-0.1,1.1-0.1,1.6
	c0,0.5,0,1.2,0.1,1.7h6.3c0.1-0.5,0.1-1.1,0.1-1.7c0-0.5,0-1.2-0.1-1.6l-1.3-0.3l0.7-2.2h6l0.7,2.2l-1.3,0.3
	c-0.1,0.5-0.1,1.1-0.1,1.6c0,0.5,0,1.2,0.1,1.7h6.5c0.1-0.5,0.1-1.1,0.1-1.7c0-0.5,0-1.2-0.1-1.6L199.4,177.3z M189.5,171.9l1.5-5.2
	c0.2-0.7,0.4-1.4,0.4-1.9h0.3c0,0.5,0.2,1.3,0.4,1.9l1.5,5.2H189.5z"/>
<path class="st0" d="M215,160.9c-0.1,0.5-0.1,1.1-0.1,1.7c0,0.5,0,1.2,0.1,1.6l1.6,0.3v7.1c0,0.7,0,1.6,0.1,2.3h-0.3
	c-0.2-0.8-0.5-1.6-0.8-2.1l-6.2-10.9h-6.3c-0.1,0.5-0.1,1.1-0.1,1.7c0,0.5,0,1.2,0.1,1.6l1.9,0.3v12.8l-1.9,0.3
	c-0.1,0.5-0.1,1.1-0.1,1.6c0,0.5,0,1.2,0.1,1.7h7.4c0.1-0.5,0.1-1.1,0.1-1.7c0-0.5,0-1.2-0.1-1.6l-1.7-0.3v-7.9
	c0-0.6-0.1-1.6-0.1-2.2h0.3c0.2,0.7,0.5,1.6,0.8,2.1l6.6,11.7c1.1,0,2.9-0.1,3.9-0.3v-16.1l1.7-0.3c0.1-0.5,0.1-1.1,0.1-1.6
	c0-0.5,0-1.2-0.1-1.7H215z"/>
<path class="st0" d="M240.5,160.9h-2.2h-4c-0.1,0.5-0.1,1.1-0.1,1.7c0,0.5,0,1.2,0.1,1.6l1.1,0.3l-1.6,3.4c-0.3,0.6-0.5,1.2-0.7,1.9
	h-0.3c-0.2-0.7-0.4-1.3-0.7-1.9l-0.4-0.9l-1.2-2.5l1.1-0.3c0-0.1,0-0.2,0-0.4c0-0.4,0.1-0.9,0.1-1.3c0-0.4,0-0.8-0.1-1.3
	c0-0.1,0-0.3,0-0.4h-4.4h-2.5c-0.1,0.5-0.1,1.1-0.1,1.7c0,0.5,0,1.2,0.1,1.6l1.2,0.3c0.4,0.9,0.8,1.7,1.2,2.6
	c1.1,2.2,2.2,4.4,3.4,6.5v3.7l-1.9,0.3c-0.1,0.5-0.1,1.1-0.1,1.6c0,0.5,0,1.2,0.1,1.7h3h5.3c0-0.5,0.1-1.1,0.1-1.7
	c0-0.5,0-1.2-0.1-1.6l-1.9-0.3v-3.7c1.2-2.1,2.3-4.2,3.3-6.4c0.4-0.9,0.9-1.7,1.3-2.6l1-0.2l0.3-0.1c0.1-0.5,0.1-1.1,0.1-1.6
	c0-0.5,0-1.2-0.1-1.7H240.5z"/>
<path class="st0" d="M42.8,159.2c0,1.9,1.5,3.5,3.5,3.5c1.9,0,3.5-1.5,3.5-3.5c0-1.9-1.5-3.5-3.5-3.5
	C44.3,155.7,42.8,157.3,42.8,159.2z"/>
<path class="st0" d="M271.2,159.2c0-1.9-1.5-3.5-3.5-3.5c-1.9,0-3.5,1.5-3.5,3.5c0,1.9,1.5,3.5,3.5,3.5
	C269.7,162.7,271.2,161.1,271.2,159.2z"/>
<rect x="35.8" y="146" class="st0" width="21" height="1.5"/>
<rect x="35.8" y="172.5" class="st0" width="21" height="1.5"/>
<rect x="257.3" y="146" class="st0" width="21" height="1.5"/>
<rect x="257.3" y="172.5" class="st0" width="21" height="1.5"/>
</svg>
