<?xml version="1.0" encoding="utf-8"?>
<!-- Generator: Adobe Illustrator 19.1.0, SVG Export Plug-In . SVG Version: 6.00 Build 0)  -->
<!DOCTYPE svg PUBLIC "-//W3C//DTD SVG 1.1//EN" "http://www.w3.org/Graphics/SVG/1.1/DTD/svg11.dtd">
<svg version="1.1" id="Layer_1" xmlns="http://www.w3.org/2000/svg" xmlns:xlink="http://www.w3.org/1999/xlink" x="0px" y="0px"
	 viewBox="641 578 285 85" style="enable-background:new 641 578 285 85;" xml:space="preserve">
<style type="text/css">
	.st0{fill:#D5BE70;}
</style>
<path class="st0" d="M917.9,622.1c-1.1,6.2-7.5,10-11.7,10c-15.9-0.1-27.5-12.5-46-26.1c-18.6-13.5-34.5-22.7-50.3-19.1
	c-13,2.9-21.9,12.6-25.9,18.6c-2.1-3.2-5.6-7.3-10.3-11c-3.4-2.6-7.4-5-12-6.6c-1.2-0.4-2.4-0.7-3.6-1c-15.8-3.6-31.7,5.6-50.3,19.1
	s-30.1,25.9-46,26.1c-4.2,0-10.5-3.8-11.7-10c-5.3,3-8.2,27.6,16.1,32.9c62.1,13.4,81.2-23.8,117.8-43.2
	c36.6,19.4,55.7,56.6,117.8,43.2C926.1,649.7,923.2,625,917.9,622.1z"/>
</svg>
